STARTFONT 2.1
FONT -Adobe-Helvetica-Bold-O-Normal--34-240-100-100-P-182-ISO10646-1
SIZE 24 100 100
FONTBOUNDINGBOX 43 49 -5 -12
COMMENT $Xorg: $
COMMENT ISO10646-1 extension by Markus Kuhn <mkuhn@acm.org>, 2001-03-20
COMMENT 
COMMENT +
COMMENT  Copyright 1984-1989, 1994 Adobe Systems Incorporated.
COMMENT  Copyright 1988, 1994 Digital Equipment Corporation.
COMMENT
COMMENT  Adobe is a trademark of Adobe Systems Incorporated which may be
COMMENT  registered in certain jurisdictions.
COMMENT  Permission to use these trademarks is hereby granted only in
COMMENT  association with the images described in this file.
COMMENT
COMMENT  Permission to use, copy, modify, distribute and sell this software
COMMENT  and its documentation for any purpose and without fee is hereby
COMMENT  granted, provided that the above copyright notices appear in all
COMMENT  copies and that both those copyright notices and this permission
COMMENT  notice appear in supporting documentation, and that the names of
COMMENT  Adobe Systems and Digital Equipment Corporation not be used in
COMMENT  advertising or publicity pertaining to distribution of the software
COMMENT  without specific, written prior permission.  Adobe Systems and
COMMENT  Digital Equipment Corporation make no representations about the
COMMENT  suitability of this software for any purpose.  It is provided "as
COMMENT  is" without express or implied warranty.
COMMENT -
STARTPROPERTIES 26
FOUNDRY "Adobe"
FAMILY_NAME "Helvetica"
WEIGHT_NAME "Bold"
SLANT "O"
SETWIDTH_NAME "Normal"
ADD_STYLE_NAME ""
PIXEL_SIZE 34
POINT_SIZE 240
RESOLUTION_X 100
RESOLUTION_Y 100
SPACING "P"
AVERAGE_WIDTH 182
CHARSET_REGISTRY "ISO10646"
CHARSET_ENCODING "1"
CAP_HEIGHT 25
X_HEIGHT 18
FONT_ASCENT 28
FONT_DESCENT 7
FACE_NAME "Helvetica Bold Oblique"
COPYRIGHT "Copyright (c) 1984, 1987 Adobe Systems Incorporated. All Rights Reserved. Copyright (c) 1988, 1991 Digital Equipment Corporation. All Rights Reserved."

STARTCHAR char0
ENCODING 0
SWIDTH 722 0
DWIDTH 24 0
BBX 25 25 2 0
BITMAP
AAAAAA80
00000000
80000080
00000000
80000080
00000000
80000080
00000000
80000080
00000000
80000080
00000000
80000080
00000000
80000080
00000000
80000080
00000000
80000080
00000000
80000080
00000000
80000080
00000000
AAAAAA80
ENDCHAR
STARTCHAR space
ENCODING 32
SWIDTH 278 0
DWIDTH 9 0
BBX 1 1 0 0
BITMAP
00
ENDCHAR
STARTCHAR exclam
ENCODING 33
SWIDTH 333 0
DWIDTH 11 0
BBX 10 25 4 0
BITMAP
07C0
07C0
07C0
0FC0
0F80
0F80
0F80
0F80
0F00
0F00
1F00
1E00
1E00
1E00
1C00
1C00
1C00
1800
0000
0000
7C00
7C00
FC00
F800
F800
ENDCHAR
STARTCHAR quotedbl
ENCODING 34
SWIDTH 474 0
DWIDTH 16 0
BBX 13 9 6 16
BITMAP
F8F8
F8F8
F8F8
F0F0
F0F0
F0F0
E0E0
E0E0
C0C0
ENDCHAR
STARTCHAR numbersign
ENCODING 35
SWIDTH 556 0
DWIDTH 19 0
BBX 21 25 1 -1
BITMAP
001C38
003C78
003878
0078F0
0078F0
00F1E0
00F1E0
1FFFF8
1FFFF8
1FFFF8
1FFFF8
03C780
078780
078F00
070F00
FFFFC0
FFFFC0
FFFFC0
FFFFC0
1C3C00
3C7800
387800
78F000
78F000
70E000
ENDCHAR
STARTCHAR dollar
ENCODING 36
SWIDTH 556 0
DWIDTH 18 0
BBX 18 28 2 -3
BITMAP
001800
001800
01FF00
07FF80
0FFFC0
1FB7C0
1F33C0
3E73C0
3E73C0
3F6000
3FE000
1FF000
0FFC00
03FF00
00FF00
00DF80
00CF80
01CF80
F1CF80
F18F00
F99F00
FFFE00
7FFC00
3FF800
0FE000
030000
060000
060000
ENDCHAR
STARTCHAR percent
ENCODING 37
SWIDTH 889 0
DWIDTH 29 0
BBX 27 23 4 0
BITMAP
07C00600
1FE00E00
3FF01C00
7CF83800
78783000
F0787000
F078E000
F0F1C000
F9F38000
7FE38000
3FC70000
0F0E1F00
001C7F80
0018FFC0
0039F3E0
0071E1E0
00E3C1E0
01C3C1E0
01C3C3C0
0383E7C0
0703FF80
0E01FF00
0C007C00
ENDCHAR
STARTCHAR ampersand
ENCODING 38
SWIDTH 722 0
DWIDTH 24 0
BBX 21 25 3 0
BITMAP
003F00
00FF80
01FFC0
03FFC0
07E7C0
07C7C0
07C780
07CF80
03FF00
03FE00
01F800
03F000
0FF878
1FFCF8
3E7CF0
7C3FE0
783FE0
F81FC0
F80F80
F81F80
FC7FC0
FFFFC0
7FFBE0
3FF1E0
0FC000
ENDCHAR
STARTCHAR quotesingle
ENCODING 39
SWIDTH 238 0
DWIDTH 8 0
BBX 5 9 6 16
BITMAP
F8
F8
F8
F0
F0
F0
E0
E0
C0
ENDCHAR
STARTCHAR parenleft
ENCODING 40
SWIDTH 333 0
DWIDTH 11 0
BBX 13 31 2 -6
BITMAP
0078
00F0
01E0
03C0
03C0
0780
0F00
0F00
1E00
1E00
3C00
3C00
3C00
7800
7800
7800
7800
F800
F800
F800
F800
F800
F800
7800
7800
7800
7800
3800
3C00
3C00
1E00
ENDCHAR
STARTCHAR parenright
ENCODING 41
SWIDTH 333 0
DWIDTH 11 0
BBX 12 32 -1 -6
BITMAP
0780
03C0
01C0
01E0
00E0
00F0
00F0
00F0
00F0
00F0
00F0
00F0
00F0
00F0
00F0
00F0
00F0
01F0
01E0
01E0
03E0
03C0
07C0
0780
0F80
0F00
1E00
1E00
3C00
7800
7000
E000
ENDCHAR
STARTCHAR asterisk
ENCODING 42
SWIDTH 389 0
DWIDTH 13 0
BBX 11 11 5 13
BITMAP
0700
0700
6660
F6E0
7FE0
3F80
1F00
3F80
73C0
F1C0
6180
ENDCHAR
STARTCHAR plus
ENCODING 43
SWIDTH 584 0
DWIDTH 19 0
BBX 17 16 3 0
BITMAP
00F000
00F000
00F000
00F000
01E000
01E000
7FFF80
FFFF80
FFFF80
FFFF00
03C000
03C000
03C000
078000
078000
078000
ENDCHAR
STARTCHAR comma
ENCODING 44
SWIDTH 278 0
DWIDTH 9 0
BBX 7 11 1 -6
BITMAP
1E
1E
3E
3E
3C
0C
1C
38
70
E0
80
ENDCHAR
STARTCHAR hyphen
ENCODING 45
SWIDTH 333 0
DWIDTH 11 0
BBX 9 5 3 7
BITMAP
FF80
FF80
FF80
FF80
FF80
ENDCHAR
STARTCHAR period
ENCODING 46
SWIDTH 278 0
DWIDTH 9 0
BBX 6 5 2 0
BITMAP
7C
7C
FC
F8
F8
ENDCHAR
STARTCHAR slash
ENCODING 47
SWIDTH 278 0
DWIDTH 9 0
BBX 14 24 0 0
BITMAP
000C
0018
0018
0030
0030
0060
0060
00C0
00C0
0180
0180
0300
0300
0600
0600
0C00
0C00
1800
1800
3000
3000
6000
6000
C000
ENDCHAR
STARTCHAR zero
ENCODING 48
SWIDTH 556 0
DWIDTH 18 0
BBX 17 24 3 0
BITMAP
00FC00
03FF00
07FF00
0FFF80
1F9F80
3E0F80
3E0F80
3C0F80
7C0F80
7C0F80
780F80
780F80
F80F80
F01F00
F01F00
F01F00
F01E00
F03E00
F83C00
FC7C00
FFF800
7FF000
7FE000
1FC000
ENDCHAR
STARTCHAR one
ENCODING 49
SWIDTH 556 0
DWIDTH 18 0
BBX 12 24 6 0
BITMAP
00F0
01F0
03F0
0FE0
FFE0
FFE0
FFC0
07C0
07C0
07C0
07C0
0780
0F80
0F80
0F80
0F80
1F00
1F00
1F00
1F00
1E00
3E00
3E00
3E00
ENDCHAR
STARTCHAR two
ENCODING 50
SWIDTH 556 0
DWIDTH 18 0
BBX 19 24 2 0
BITMAP
007E00
01FF80
03FFC0
07FFC0
0FC7E0
0F83E0
1F03E0
1E03E0
1E07C0
0007C0
000F80
001F00
003E00
00FC00
01F800
07F000
0FC000
1F8000
3F0000
7E0000
7FFE00
FFFE00
FFFE00
FFFE00
ENDCHAR
STARTCHAR three
ENCODING 51
SWIDTH 556 0
DWIDTH 18 0
BBX 17 24 3 0
BITMAP
01FC00
07FF00
0FFF00
1FFF80
1F0F80
3E0F80
3C0F80
3C0F80
001F00
003E00
01FC00
01FC00
01FE00
007E00
003F00
001F00
F01F00
F03F00
F03E00
F87E00
FFFC00
7FF800
7FE000
1F8000
ENDCHAR
STARTCHAR four
ENCODING 52
SWIDTH 556 0
DWIDTH 18 0
BBX 18 24 2 0
BITMAP
000FC0
001FC0
003FC0
003F80
007F80
00FF80
01EF80
03CF00
079F00
079F00
0F1F00
1E1F00
3C1E00
783E00
F83E00
FFFF80
FFFF80
FFFF80
FFFF80
007C00
007C00
007800
00F800
00F800
ENDCHAR
STARTCHAR five
ENCODING 53
SWIDTH 556 0
DWIDTH 18 0
BBX 18 24 3 0
BITMAP
03FFC0
03FFC0
07FF80
07FF80
0F0000
0F0000
0E0000
1E0000
1CF800
3FFE00
3FFE00
3FFF00
7C3F00
001F00
001F00
001F00
001F00
F03E00
F03E00
F8FC00
FFF800
7FF000
7FE000
1F8000
ENDCHAR
STARTCHAR six
ENCODING 54
SWIDTH 556 0
DWIDTH 18 0
BBX 18 24 3 0
BITMAP
007C00
01FF00
03FF80
07FFC0
0F87C0
1E07C0
1E0000
3C0000
3CF800
7FFE00
7FFE00
7FFF00
FE1F00
FC1F00
F80F00
F00F00
F01F00
F01E00
F83E00
F87C00
FFFC00
7FF800
3FE000
1F8000
ENDCHAR
STARTCHAR seven
ENCODING 55
SWIDTH 556 0
DWIDTH 18 0
BBX 18 24 5 0
BITMAP
3FFFC0
7FFFC0
7FFFC0
7FFF80
000F00
001E00
003E00
007C00
00F800
01F000
01E000
03E000
07C000
0F8000
0F8000
1F0000
1E0000
3E0000
3C0000
7C0000
7C0000
780000
F80000
F80000
ENDCHAR
STARTCHAR eight
ENCODING 56
SWIDTH 556 0
DWIDTH 18 0
BBX 18 24 2 0
BITMAP
007C00
01FF00
03FF80
07FFC0
0787C0
0F03C0
0F03C0
0F03C0
0F07C0
079F80
03FF00
07FE00
1FFE00
3F1F00
7C0F80
7C0F80
F80F80
F81F00
F81F00
FC3E00
7FFC00
7FF800
3FF000
0FC000
ENDCHAR
STARTCHAR nine
ENCODING 57
SWIDTH 556 0
DWIDTH 18 0
BBX 18 24 2 0
BITMAP
007E00
01FF00
07FF80
0FFFC0
0F87C0
1F03C0
1E03C0
3E03C0
3C03C0
3C07C0
3E0FC0
3F1FC0
3FFF80
1FFF80
0FFF80
07CF00
000F00
001F00
F81E00
FC3C00
7FFC00
7FF800
3FF000
0FC000
ENDCHAR
STARTCHAR colon
ENCODING 58
SWIDTH 333 0
DWIDTH 11 0
BBX 8 17 4 0
BITMAP
1F
1F
3F
3E
3E
00
00
00
00
00
00
00
7C
7C
FC
F8
F8
ENDCHAR
STARTCHAR semicolon
ENCODING 59
SWIDTH 333 0
DWIDTH 11 0
BBX 9 23 3 -6
BITMAP
0780
0780
0F80
0F00
0F00
0000
0000
0000
0000
0000
0000
0000
3E00
3E00
7E00
7C00
7C00
0C00
1800
3800
7000
E000
8000
ENDCHAR
STARTCHAR less
ENCODING 60
SWIDTH 584 0
DWIDTH 19 0
BBX 18 16 2 0
BITMAP
000040
0003C0
001FC0
00FF80
07FF80
1FFC00
7FE000
7F0000
FF0000
FFE000
3FF800
0FFF00
03FF00
007F00
001E00
000600
ENDCHAR
STARTCHAR equal
ENCODING 61
SWIDTH 584 0
DWIDTH 19 0
BBX 19 12 2 2
BITMAP
1FFFE0
1FFFE0
3FFFC0
3FFFC0
000000
000000
000000
000000
7FFF80
7FFF80
FFFF00
FFFF00
ENDCHAR
STARTCHAR greater
ENCODING 62
SWIDTH 584 0
DWIDTH 19 0
BBX 18 16 2 0
BITMAP
180000
1E0000
3FC000
3FF000
3FFE00
07FF00
00FFC0
003FC0
003FC0
01FF00
0FFE00
7FF800
7FC000
FE0000
F00000
C00000
ENDCHAR
STARTCHAR question
ENCODING 63
SWIDTH 611 0
DWIDTH 20 0
BBX 18 25 5 0
BITMAP
03FC00
0FFF00
1FFF80
3FFF80
3F0FC0
7C07C0
7C07C0
F807C0
F80F80
001F80
003F00
007E00
00FC00
01F800
03E000
03C000
078000
078000
000000
000000
0F8000
0F8000
1F0000
1F0000
1F0000
ENDCHAR
STARTCHAR at
ENCODING 64
SWIDTH 975 0
DWIDTH 33 0
BBX 32 30 3 -5
BITMAP
0000FE00
0007FFC0
001FFFE0
007E03F8
00F800FC
01E0003C
03C0001E
0780000E
0F01F38F
1E07FF8F
3C0F3F07
381C1F07
78381E0F
70701E0E
F0701C0E
E0E03C1E
E0E0381C
E1E0783C
E1E0F078
E1F1F1F0
E0FFFFE0
F0FF3F80
F03C1E00
78000000
7C000000
3F000000
1FC0F000
0FFFF000
07FFF000
01FF8000
ENDCHAR
STARTCHAR A
ENCODING 65
SWIDTH 722 0
DWIDTH 24 0
BBX 22 25 1 0
BITMAP
0003E0
0007E0
000FE0
001FE0
001FF0
003FF0
003FF0
007DF0
007DF0
00F9F0
00F9F0
01F0F8
03F0F8
03E0F8
07E0F8
07C0F8
0FFFF8
0FFFF8
1FFFF8
1FFFFC
3E00FC
3E007C
7C007C
FC007C
F8007C
ENDCHAR
STARTCHAR B
ENCODING 66
SWIDTH 722 0
DWIDTH 24 0
BBX 23 25 3 0
BITMAP
07FFE0
07FFF8
07FFFC
0FFFFE
0F807E
0F803E
0F803E
0F803C
1F807C
1F01F8
1FFFF0
1FFFE0
1FFFF0
3FFFF0
3E01F8
3E00F8
3E00F8
3E00F8
7C00F8
7C01F0
7C07F0
7FFFE0
FFFFC0
FFFF80
FFFE00
ENDCHAR
STARTCHAR C
ENCODING 67
SWIDTH 722 0
DWIDTH 24 0
BBX 23 25 3 0
BITMAP
003FE0
00FFF8
01FFFC
07FFFC
0FF0FE
0FC03E
1F803E
3F003E
3E003E
7E0000
7C0000
7C0000
F80000
F80000
F80000
F80000
F8007C
FC00FC
7C00F8
7E03F0
7F0FF0
3FFFE0
3FFFC0
1FFF00
07F800
ENDCHAR
STARTCHAR D
ENCODING 68
SWIDTH 722 0
DWIDTH 24 0
BBX 23 25 3 0
BITMAP
07FFE0
07FFF8
07FFFC
0FFFFC
0F81FE
0F807E
0F803E
0F803E
1F803E
1F003E
1F003E
1F003E
1F003E
3F007E
3E007C
3E007C
3E00F8
3E00F8
7C01F0
7C03F0
7C0FE0
7FFFC0
FFFF80
FFFF00
FFFC00
ENDCHAR
STARTCHAR E
ENCODING 69
SWIDTH 667 0
DWIDTH 22 0
BBX 23 25 3 0
BITMAP
07FFFE
07FFFE
07FFFC
0FFFFC
0F8000
0F8000
0F8000
0F8000
1F0000
1F0000
1FFFF0
1FFFF0
1FFFE0
3FFFE0
3E0000
3E0000
3E0000
3E0000
7C0000
7C0000
7C0000
7FFFE0
FFFFE0
FFFFC0
FFFFC0
ENDCHAR
STARTCHAR F
ENCODING 70
SWIDTH 611 0
DWIDTH 20 0
BBX 22 25 2 0
BITMAP
07FFFC
07FFFC
07FFF8
0FFFF8
0F8000
0F8000
0F8000
0F8000
1F0000
1F0000
1FFFE0
1FFFE0
1FFFC0
3FFFC0
3E0000
3E0000
3E0000
3E0000
7C0000
7C0000
7C0000
7C0000
FC0000
F80000
F80000
ENDCHAR
STARTCHAR G
ENCODING 71
SWIDTH 778 0
DWIDTH 25 0
BBX 25 25 3 0
BITMAP
001FF000
007FFC00
01FFFE00
03FFFF00
07F87F00
0FC01F80
1F801F80
1F000F80
3E000000
3E000000
7E000000
7C000000
7C03FF00
7C07FF00
F807FE00
F807FE00
FC003E00
FC003E00
7C007E00
7E00FC00
7F83FC00
3FFFFC00
1FFFBC00
0FFF3800
03F80000
ENDCHAR
STARTCHAR H
ENCODING 72
SWIDTH 722 0
DWIDTH 24 0
BBX 25 25 2 0
BITMAP
07E00F80
07C00F80
07C00F80
07C01F80
07C01F00
0FC01F00
0F801F00
0F801F00
0F803F00
0F803E00
1FFFFE00
1FFFFE00
1FFFFE00
1FFFFE00
1F007C00
3E007C00
3E007C00
3E007C00
3E00F800
7E00F800
7C00F800
7C00F800
7C01F800
7C01F000
FC01F000
ENDCHAR
STARTCHAR I
ENCODING 73
SWIDTH 278 0
DWIDTH 9 0
BBX 10 25 2 0
BITMAP
07C0
07C0
07C0
0FC0
0F80
0F80
0F80
0F80
1F80
1F00
1F00
1F00
1F00
3F00
3E00
3E00
3E00
3E00
7C00
7C00
7C00
7C00
FC00
F800
F800
ENDCHAR
STARTCHAR J
ENCODING 74
SWIDTH 556 0
DWIDTH 18 0
BBX 19 25 2 0
BITMAP
0003E0
0003E0
0003E0
0003E0
0007C0
0007C0
0007C0
0007C0
0007C0
000F80
000F80
000F80
000F80
001F80
001F00
7C1F00
7C1F00
7C1F00
F83E00
F83E00
FC7E00
FFFC00
7FF800
3FF000
1FC000
ENDCHAR
STARTCHAR K
ENCODING 75
SWIDTH 722 0
DWIDTH 24 0
BBX 25 25 2 0
BITMAP
07C01F80
07C03F00
07C07E00
0FC0FC00
0F81F800
0F83F000
0F87E000
0F8FC000
1FBF8000
1F7E0000
1FFC0000
1FF80000
1FFC0000
3FFE0000
3FBE0000
3E3F0000
3E1F0000
3E1F8000
7C0F8000
7C0FC000
7C07E000
7C07E000
FC03F000
F803F000
F801F800
ENDCHAR
STARTCHAR L
ENCODING 76
SWIDTH 611 0
DWIDTH 20 0
BBX 17 25 3 0
BITMAP
07C000
07C000
07C000
0FC000
0F8000
0F8000
0F8000
0F8000
1F8000
1F0000
1F0000
1F0000
1F0000
3F0000
3E0000
3E0000
3E0000
3E0000
7C0000
7C0000
7C0000
7FFF80
FFFF80
FFFF00
FFFF00
ENDCHAR
STARTCHAR M
ENCODING 77
SWIDTH 833 0
DWIDTH 27 0
BBX 28 25 2 0
BITMAP
07F807F0
07F80FF0
07F80FF0
0FF80FF0
0FF81FE0
0FF81FE0
0FF83FE0
0FF83BE0
1F787BE0
1F7877C0
1F78F7C0
1F78F7C0
1F78E7C0
3E79EFC0
3E79CF80
3E7BCF80
3E7BCF80
3E7F8F80
7C7F9F00
7C7F1F00
7C7F1F00
7C7E1F00
FC7E1F00
F87E3E00
F87C3E00
ENDCHAR
STARTCHAR N
ENCODING 78
SWIDTH 722 0
DWIDTH 24 0
BBX 25 25 2 0
BITMAP
07E00F80
07E00F80
07E00F80
0FF01F80
0FF01F00
0FF01F00
0FF81F00
0FF81F00
1FFC3F00
1F7C3E00
1F3C3E00
1F3E3E00
1F3E3E00
3F1E7E00
3E1F7C00
3E1F7C00
3E0F7C00
3E0FFC00
7E07F800
7C07F800
7C07F800
7C03F800
FC03F800
F803F000
F801F000
ENDCHAR
STARTCHAR O
ENCODING 79
SWIDTH 778 0
DWIDTH 25 0
BBX 25 25 3 0
BITMAP
001FE000
00FFFC00
01FFFE00
03FFFE00
07F0FF00
0FC03F00
1F801F80
1F001F80
3E000F80
3E000F80
7C000F80
7C000F80
78000F80
F8001F00
F8001F00
F8003F00
F8003E00
FC007E00
FC00FC00
7E01F800
7F87F800
3FFFF000
1FFFE000
0FFF8000
03FE0000
ENDCHAR
STARTCHAR P
ENCODING 80
SWIDTH 667 0
DWIDTH 22 0
BBX 22 25 3 0
BITMAP
07FFE0
07FFF8
07FFF8
0FFFFC
0F80FC
0F807C
0F807C
0F807C
1F00F8
1F00F8
1F01F8
1F03F0
1FFFF0
3FFFE0
3FFFC0
3FFF00
3E0000
3E0000
7C0000
7C0000
7C0000
7C0000
F80000
F80000
F80000
ENDCHAR
STARTCHAR Q
ENCODING 81
SWIDTH 778 0
DWIDTH 26 0
BBX 25 26 3 -1
BITMAP
001FF000
00FFFC00
01FFFE00
03FFFE00
07F8FF00
0FC03F00
1F801F80
1F001F80
3E000F80
3E000F80
7C000F80
7C000F80
7C000F80
7C001F00
FC001F00
FC001F00
FC073E00
FC0FFE00
7C0FFC00
7E07F800
7F8FF800
3FFFF800
1FFFF800
0FFFFC00
07FC7800
00003000
ENDCHAR
STARTCHAR R
ENCODING 82
SWIDTH 722 0
DWIDTH 24 0
BBX 23 25 3 0
BITMAP
07FFF8
07FFFC
07FFFE
0FFFFE
0F807E
0F803E
0F803E
0F803E
1F007C
1F007C
1F01F8
1FFFF0
1FFFE0
3FFFE0
3FFFF0
3E03F0
3E01F0
3E01F0
7C01F0
7C03E0
7C03E0
7C03E0
F803E0
F803E0
F803E0
ENDCHAR
STARTCHAR S
ENCODING 83
SWIDTH 667 0
DWIDTH 22 0
BBX 22 25 2 0
BITMAP
003FC0
01FFF0
03FFF8
07FFFC
0FC1FC
0F807C
1F007C
1F007C
1F0000
1FC000
1FFE00
0FFFC0
07FFF0
00FFF0
000FF8
0001F8
0000F8
F800F0
F801F0
FC01F0
7E07E0
7FFFC0
3FFFC0
1FFF00
07F800
ENDCHAR
STARTCHAR T
ENCODING 84
SWIDTH 611 0
DWIDTH 20 0
BBX 20 25 5 0
BITMAP
7FFFF0
7FFFF0
FFFFE0
FFFFE0
01F000
01F000
01F000
01F000
03F000
03E000
03E000
03E000
03E000
07E000
07C000
07C000
07C000
07C000
0F8000
0F8000
0F8000
0F8000
1F8000
1F0000
1F0000
ENDCHAR
STARTCHAR U
ENCODING 85
SWIDTH 722 0
DWIDTH 24 0
BBX 22 25 5 0
BITMAP
1F007C
1F007C
1F007C
3F007C
3E00F8
3E00F8
3E00F8
3E00F8
7E01F8
7C01F0
7C01F0
7C01F0
7C01F0
F803F0
F803E0
F803E0
F803E0
F807E0
F807C0
F80FC0
FE3F80
FFFF00
7FFF00
3FFC00
1FF000
ENDCHAR
STARTCHAR V
ENCODING 86
SWIDTH 667 0
DWIDTH 22 0
BBX 20 25 6 0
BITMAP
F801F0
F801F0
F803E0
F803E0
F807C0
7807C0
7C0F80
7C0F80
7C1F00
7C1F00
7C3E00
7C3E00
7C7C00
7C7800
3CF800
3CF000
3DF000
3DE000
3FE000
3FC000
3FC000
3F8000
3F8000
1F0000
1F0000
ENDCHAR
STARTCHAR W
ENCODING 87
SWIDTH 944 0
DWIDTH 31 0
BBX 30 25 6 0
BITMAP
F80FC07C
F80FC0FC
F81FC0F8
F81FC0F8
F83FC1F0
F83FC1F0
F83FC3E0
F87BC3E0
F87BC7C0
F8F3C7C0
F8F3C780
F8F3CF80
F9E3CF00
F9E39F00
7BC39E00
7BC39E00
7B83BE00
7F83BC00
7F83FC00
7F03F800
7F03F800
7E03F000
7E03F000
7C03E000
7C03E000
ENDCHAR
STARTCHAR X
ENCODING 88
SWIDTH 667 0
DWIDTH 22 0
BBX 25 25 1 0
BITMAP
03F01F80
03F01F80
03F03F00
01F87E00
01F8FC00
01F8F800
00F9F800
00FFF000
007FE000
007FC000
007F8000
003F8000
003F0000
007F0000
00FF8000
01FF8000
01FFC000
03EFC000
07E7C000
0FC7E000
1F87E000
1F03E000
3F03F000
7E03F000
FC01F000
ENDCHAR
STARTCHAR Y
ENCODING 89
SWIDTH 667 0
DWIDTH 22 0
BBX 20 25 6 0
BITMAP
FC01F0
7C03F0
7E03E0
7E07E0
3E0FC0
3E0F80
3E1F00
3F3F00
1F3E00
1F7C00
1FFC00
0FF800
0FF000
0FF000
0FE000
07C000
07C000
0FC000
0F8000
0F8000
0F8000
0F8000
1F8000
1F0000
1F0000
ENDCHAR
STARTCHAR Z
ENCODING 90
SWIDTH 611 0
DWIDTH 20 0
BBX 23 25 1 0
BITMAP
03FFFE
03FFFE
07FFFE
07FFFE
00007E
0000FC
0001F8
0003F0
0007E0
000FC0
001F80
003F00
007E00
00FC00
01F800
03F000
07E000
0FC000
1F8000
3F0000
7E0000
7FFFE0
FFFFE0
FFFFC0
FFFFC0
ENDCHAR
STARTCHAR bracketleft
ENCODING 91
SWIDTH 333 0
DWIDTH 11 0
BBX 14 31 1 -6
BITMAP
03FC
03FC
03FC
07C0
07C0
0780
0780
0F80
0F80
0F80
0F00
0F00
1F00
1F00
1E00
1E00
1E00
3E00
3E00
3C00
3C00
7C00
7C00
7C00
7800
7800
F800
F800
FF00
FF00
FF00
ENDCHAR
STARTCHAR backslash
ENCODING 92
SWIDTH 278 0
DWIDTH 9 0
BBX 5 24 5 0
BITMAP
C0
E0
E0
E0
E0
E0
E0
60
60
60
60
70
70
70
70
70
70
30
30
30
30
38
38
38
ENDCHAR
STARTCHAR bracketright
ENCODING 93
SWIDTH 333 0
DWIDTH 11 0
BBX 14 31 -1 -6
BITMAP
03FC
03FC
03FC
007C
007C
0078
0078
00F8
00F8
00F8
00F0
00F0
01F0
01F0
01E0
01E0
01E0
03E0
03E0
03C0
03C0
07C0
07C0
07C0
0780
0780
0F80
0F80
FF80
FF00
FF00
ENDCHAR
STARTCHAR asciicircum
ENCODING 94
SWIDTH 584 0
DWIDTH 19 0
BBX 15 14 5 9
BITMAP
01F0
01F0
03F8
03F8
07F8
0F78
0F78
1E38
3C3C
3C3C
783C
783C
F01C
E01E
ENDCHAR
STARTCHAR underscore
ENCODING 95
SWIDTH 556 0
DWIDTH 18 0
BBX 18 2 0 -6
BITMAP
FFFFC0
FFFFC0
ENDCHAR
STARTCHAR grave
ENCODING 96
SWIDTH 333 0
DWIDTH 11 0
BBX 6 5 6 20
BITMAP
F0
78
38
1C
0C
ENDCHAR
STARTCHAR a
ENCODING 97
SWIDTH 556 0
DWIDTH 18 0
BBX 17 18 2 0
BITMAP
01FE00
07FF00
0FFF80
1F8F80
1E0780
1E0780
000F80
03FF80
1FFF00
3FFF00
7E1F00
781F00
F83E00
F87E00
FFFE00
FFFE00
7FBE00
3E3E00
ENDCHAR
STARTCHAR b
ENCODING 98
SWIDTH 611 0
DWIDTH 20 0
BBX 19 25 2 0
BITMAP
07C000
07C000
07C000
078000
0F8000
0F8000
0F8000
0FBF00
0F7FC0
1FFFC0
1FFFE0
1FC7E0
1F83E0
1F03E0
3E03E0
3E03E0
3E03E0
3E03C0
7E07C0
7E0F80
7F1F80
7FFF00
7FFE00
FBFC00
F9F000
ENDCHAR
STARTCHAR c
ENCODING 99
SWIDTH 556 0
DWIDTH 18 0
BBX 17 18 3 0
BITMAP
01F800
07FE00
1FFF00
1FFF00
3E1F80
7C0F80
780F80
780000
F00000
F00000
F00000
F00F00
F01F00
F83E00
FFFE00
7FFC00
7FF000
1FC000
ENDCHAR
STARTCHAR d
ENCODING 100
SWIDTH 611 0
DWIDTH 20 0
BBX 20 25 3 0
BITMAP
0000F0
0000F0
0001F0
0001E0
0001E0
0003E0
0003E0
03F3E0
0FFBC0
1FFFC0
1FFFC0
3F1FC0
7E0FC0
7C0F80
F80F80
F80F80
F80F80
F81F80
F81F00
F83F00
FC7F00
FFFF00
7FFE00
3FDE00
1F1E00
ENDCHAR
STARTCHAR e
ENCODING 101
SWIDTH 556 0
DWIDTH 18 0
BBX 17 18 3 0
BITMAP
01F800
07FE00
1FFF00
1F9F00
3E0F80
7C0780
780780
FFFF80
FFFF80
FFFF80
F00000
F80000
F80F00
7C1F00
7FFE00
3FFC00
1FF800
07E000
ENDCHAR
STARTCHAR f
ENCODING 102
SWIDTH 333 0
DWIDTH 11 0
BBX 13 25 3 0
BITMAP
01F8
03F8
07F0
07C0
0F80
0F80
0F80
3FE0
7FE0
7FC0
1F00
1F00
1F00
1E00
3E00
3E00
3E00
3E00
7C00
7C00
7C00
7C00
7800
F800
F800
ENDCHAR
STARTCHAR g
ENCODING 103
SWIDTH 611 0
DWIDTH 20 0
BBX 21 25 1 -7
BITMAP
00FC78
01FE78
07FF78
0FFFF0
0FC7F0
1F03F0
1E01F0
3E01E0
3C01E0
3C03E0
3C03E0
3C03E0
3C07C0
3E1FC0
3FFFC0
1FFFC0
1FF7C0
07C780
000F80
F00F80
F01F00
F87F00
7FFE00
7FF800
1FE000
ENDCHAR
STARTCHAR h
ENCODING 104
SWIDTH 611 0
DWIDTH 20 0
BBX 19 25 2 0
BITMAP
07C000
07C000
078000
078000
0F8000
0F8000
0F0000
0F3F80
0F7FC0
1FFFE0
1FFFE0
1FC7E0
1F03E0
1F03C0
3E07C0
3E07C0
3E07C0
3C07C0
7C0F80
7C0F80
7C0F80
7C0F80
780F00
F81F00
F81F00
ENDCHAR
STARTCHAR i
ENCODING 105
SWIDTH 278 0
DWIDTH 9 0
BBX 10 25 2 0
BITMAP
03C0
07C0
07C0
0780
0000
0000
0000
0F80
0F80
1F00
1F00
1F00
1F00
1F00
3E00
3E00
3E00
3E00
7C00
7C00
7C00
7C00
F800
F800
F800
ENDCHAR
STARTCHAR j
ENCODING 106
SWIDTH 278 0
DWIDTH 9 0
BBX 13 32 -1 -7
BITMAP
0078
00F8
00F8
00F0
0000
0000
0000
01F0
01F0
03E0
03E0
03E0
03E0
03E0
07C0
07C0
07C0
07C0
0F80
0F80
0F80
0F80
0F80
1F00
1F00
1F00
1F00
3E00
7E00
FE00
FC00
F800
ENDCHAR
STARTCHAR k
ENCODING 107
SWIDTH 556 0
DWIDTH 18 0
BBX 19 25 2 0
BITMAP
07C000
07C000
07C000
078000
0F8000
0F8000
0F8000
0F87E0
0F0FC0
1F1F80
1F3F00
1F7E00
1FFC00
1FF800
3FF000
3FF000
3FF800
3FF800
7E7C00
7C7C00
7C3E00
7C3E00
F83E00
F81F00
F81F00
ENDCHAR
STARTCHAR l
ENCODING 108
SWIDTH 278 0
DWIDTH 9 0
BBX 10 25 2 0
BITMAP
07C0
07C0
07C0
0F80
0F80
0F80
0F80
1F00
1F00
1F00
1F00
1F00
3F00
3E00
3E00
3E00
3E00
3E00
7C00
7C00
7C00
7C00
F800
F800
F800
ENDCHAR
STARTCHAR m
ENCODING 109
SWIDTH 889 0
DWIDTH 29 0
BBX 28 18 2 0
BITMAP
0F1F0FC0
0F7FBFE0
1FFFFFE0
1FFFFFF0
1F8FE3F0
1F07C1F0
1E0781E0
3E0F83E0
3E0F83E0
3E0F83E0
3C0F03E0
7C0F03C0
7C1F07C0
7C1F07C0
7C1F07C0
781E0780
F83E0F80
F83E0F80
ENDCHAR
STARTCHAR n
ENCODING 110
SWIDTH 611 0
DWIDTH 20 0
BBX 19 18 2 0
BITMAP
0F1F00
0F7FC0
1FFFC0
1FFFC0
1F87E0
1F03E0
1E03E0
3E07E0
3E07C0
3E07C0
3C07C0
7C0780
7C0F80
7C0F80
7C0F80
780F00
F81F00
F81F00
ENDCHAR
STARTCHAR o
ENCODING 111
SWIDTH 611 0
DWIDTH 20 0
BBX 18 18 3 0
BITMAP
01FC00
07FF00
0FFF80
1FFFC0
3F0FC0
7E07C0
7C07C0
7C07C0
F807C0
F807C0
F80F80
F80F80
F81F80
FC3F00
7FFE00
7FFC00
3FF800
0FE000
ENDCHAR
STARTCHAR p
ENCODING 112
SWIDTH 611 0
DWIDTH 20 0
BBX 20 25 1 -7
BITMAP
078F80
07BFC0
0FFFE0
0FFFE0
0FE3F0
0FC1F0
0F81F0
1F01F0
1F01F0
1F01F0
1F01F0
3F03E0
3F03E0
3F8FC0
3FFFC0
3FFF80
7DFE00
7CFC00
7C0000
780000
780000
F80000
F80000
F80000
F00000
ENDCHAR
STARTCHAR q
ENCODING 113
SWIDTH 611 0
DWIDTH 20 0
BBX 18 25 3 -7
BITMAP
01F3C0
07FBC0
0FFFC0
1FFFC0
3F1FC0
7E0FC0
7C0F80
7C0F80
F80F80
F80F80
F01F80
F01F00
F03F00
F87F00
FFFF00
7FFE00
7FBE00
1E3E00
003E00
003E00
003C00
007C00
007C00
007C00
007C00
ENDCHAR
STARTCHAR r
ENCODING 114
SWIDTH 389 0
DWIDTH 13 0
BBX 14 18 2 0
BITMAP
0F0C
0F3C
1F7C
1FFC
1FF8
1F80
1F00
3E00
3E00
3E00
3E00
7C00
7C00
7C00
7C00
7800
F800
F800
ENDCHAR
STARTCHAR s
ENCODING 115
SWIDTH 556 0
DWIDTH 18 0
BBX 17 18 2 0
BITMAP
01FC00
07FF00
0FFF80
1F1F80
1E0780
3E0780
3F8000
1FF000
1FFC00
07FE00
01FF00
003F00
F81F00
F81F00
FE3E00
7FFE00
7FFC00
1FF000
ENDCHAR
STARTCHAR t
ENCODING 116
SWIDTH 333 0
DWIDTH 11 0
BBX 10 22 4 0
BITMAP
1F00
1F00
1F00
1F00
7FC0
FFC0
FF80
3E00
3E00
3E00
7C00
7C00
7C00
7C00
7C00
F800
F800
F800
FE00
FE00
FE00
7C00
ENDCHAR
STARTCHAR u
ENCODING 117
SWIDTH 611 0
DWIDTH 20 0
BBX 19 18 3 0
BITMAP
1F03E0
1F03E0
1E03E0
3E07C0
3E07C0
3C07C0
3C0780
7C0F80
7C0F80
7C0F80
780F80
F81F00
F81F00
FC3F00
FFFF00
FFFE00
7FDE00
1F1E00
ENDCHAR
STARTCHAR v
ENCODING 118
SWIDTH 556 0
DWIDTH 18 0
BBX 17 18 4 0
BITMAP
F80F80
F81F00
F81F00
F83E00
F83E00
F87C00
F87800
78F800
78F000
79F000
79E000
7BE000
7FC000
7FC000
3F8000
3F0000
3F0000
3E0000
ENDCHAR
STARTCHAR w
ENCODING 119
SWIDTH 778 0
DWIDTH 25 0
BBX 25 18 3 0
BITMAP
F83E0F80
F83E0F80
F87E1F00
F87E1F00
F8FE3E00
F8FE3E00
F9EE3C00
F9EE7C00
79CE7800
7BCEF800
7B8EF000
7F8FF000
7F8FE000
7F0FE000
7F0FC000
7E0FC000
7E0F8000
7C0F8000
ENDCHAR
STARTCHAR x
ENCODING 120
SWIDTH 556 0
DWIDTH 18 0
BBX 20 18 1 0
BITMAP
0F83F0
0FC3E0
07C7C0
07CFC0
07FF80
03FF00
03FE00
01FC00
01F800
01F800
03FC00
07FC00
0FFC00
1FBE00
1F3E00
3E3F00
7E1F00
FC1F00
ENDCHAR
STARTCHAR y
ENCODING 121
SWIDTH 556 0
DWIDTH 18 0
BBX 21 25 1 -7
BITMAP
1F00F8
1F01F0
1F01E0
0F83E0
0F83C0
0F87C0
0F8780
0F8F80
0F8F00
0F9E00
079E00
07BC00
07FC00
07F800
07F800
07F000
07E000
03E000
07C000
07C000
0F8000
7F8000
7F0000
FE0000
F80000
ENDCHAR
STARTCHAR z
ENCODING 122
SWIDTH 500 0
DWIDTH 16 0
BBX 18 18 1 0
BITMAP
0FFFC0
0FFFC0
1FFFC0
1FFF80
001F80
003F00
007E00
00FC00
03F800
07E000
0FC000
1F8000
3F0000
7E0000
FFFE00
FFFE00
FFFC00
FFFC00
ENDCHAR
STARTCHAR braceleft
ENCODING 123
SWIDTH 389 0
DWIDTH 13 0
BBX 13 32 3 -7
BITMAP
00F8
01F8
03F8
03C0
0780
0780
0780
0780
0780
0F00
0F00
0F00
0F00
1E00
3E00
FC00
F000
FC00
3C00
3C00
3C00
3C00
3C00
7800
7800
7800
7800
F800
F800
FE00
7E00
3C00
ENDCHAR
STARTCHAR bar
ENCODING 124
SWIDTH 280 0
DWIDTH 9 0
BBX 9 31 2 -7
BITMAP
0380
0380
0300
0700
0700
0700
0700
0600
0E00
0E00
0E00
0E00
0C00
1C00
1C00
1C00
1C00
3800
3800
3800
3800
3000
7000
7000
7000
7000
6000
E000
E000
E000
E000
ENDCHAR
STARTCHAR braceright
ENCODING 125
SWIDTH 389 0
DWIDTH 13 0
BBX 13 32 1 -7
BITMAP
03E0
03F0
03F0
00F0
00F0
00F0
00F0
00F0
00F0
01E0
01E0
01E0
01E0
01E0
01E0
01F8
0078
03F0
03C0
0780
0780
0780
0780
0F00
0F00
0F00
0F00
1E00
1E00
FE00
FC00
F800
ENDCHAR
STARTCHAR asciitilde
ENCODING 126
SWIDTH 584 0
DWIDTH 19 0
BBX 16 6 3 5
BITMAP
0E00
3F07
7FC7
63FE
E0FC
0078
ENDCHAR
STARTCHAR space
ENCODING 160
SWIDTH 278 0
DWIDTH 9 0
BBX 1 1 0 0
BITMAP
00
ENDCHAR
STARTCHAR exclamdown
ENCODING 161
SWIDTH 333 0
DWIDTH 11 0
BBX 10 24 1 -6
BITMAP
07C0
07C0
0F80
0F80
0F80
0000
0000
0E00
0E00
0E00
1E00
1E00
1E00
3C00
3C00
3C00
7C00
7C00
7C00
7C00
FC00
F800
F800
F800
ENDCHAR
STARTCHAR cent
ENCODING 162
SWIDTH 556 0
DWIDTH 18 0
BBX 18 24 2 -3
BITMAP
000300
000600
000600
00FC00
03FF00
0FFF80
1FFF80
1F3FC0
3E37C0
7C67C0
7C6000
78C000
78C000
F98000
F98F80
FB1F80
FF3F00
7FFE00
7FFC00
3FF800
1FC000
180000
300000
300000
ENDCHAR
STARTCHAR sterling
ENCODING 163
SWIDTH 556 0
DWIDTH 18 0
BBX 19 24 2 0
BITMAP
007E00
01FF80
07FFC0
0FFFE0
0F87E0
1F03E0
1F03E0
1F03E0
1F0000
1F0000
1F0000
7FF800
7FF800
0F8000
0F8000
0F0000
0F0000
1E0000
1C0000
79C300
FFFF00
FFFF00
FFFF00
C1FC00
ENDCHAR
STARTCHAR currency
ENCODING 164
SWIDTH 556 0
DWIDTH 18 0
BBX 18 17 3 3
BITMAP
080080
1C01C0
3EFBC0
1FFF80
1FFF00
0F1E00
1E0F00
1C0F00
3C0F00
3C0E00
3C1E00
1E3C00
3FFC00
7FFE00
F7DF00
600E00
400400
ENDCHAR
STARTCHAR yen
ENCODING 165
SWIDTH 556 0
DWIDTH 18 0
BBX 20 24 3 0
BITMAP
7C00F0
3E01E0
1E03C0
1E07C0
1F0F80
0F0F00
0F1E00
07BC00
07FC00
07F800
03F000
03E000
7FFF00
7FFF00
03C000
03C000
FFFE00
FFFE00
078000
078000
078000
078000
0F0000
0F0000
ENDCHAR
STARTCHAR brokenbar
ENCODING 166
SWIDTH 280 0
DWIDTH 9 0
BBX 9 31 2 -6
BITMAP
0380
0380
0380
0300
0700
0700
0700
0700
0600
0E00
0E00
0E00
0E00
0000
0000
0000
0000
0000
0000
3800
3800
3800
3000
7000
7000
7000
7000
6000
E000
E000
E000
ENDCHAR
STARTCHAR section
ENCODING 167
SWIDTH 556 0
DWIDTH 18 0
BBX 18 32 2 -7
BITMAP
00FF00
01FF80
03FFC0
07FFC0
07C7C0
0F87C0
0F8000
0FE000
0FF000
07FC00
0FFE00
1FFF00
3CFF00
3C3F80
781F80
7C0F80
7E0780
7F0F00
3F9F00
3FFE00
1FF800
07FC00
03FC00
00FC00
007C00
F07C00
F07C00
F8F800
FFF800
FFF000
7FE000
1F8000
ENDCHAR
STARTCHAR dieresis
ENCODING 168
SWIDTH 333 0
DWIDTH 11 0
BBX 11 4 5 21
BITMAP
F1E0
F1E0
F1E0
F1E0
ENDCHAR
STARTCHAR copyright
ENCODING 169
SWIDTH 737 0
DWIDTH 24 0
BBX 35 29 2 -4
BITMAP
000FE00000
007FFC0000
00F83E0000
03E00F0000
0780070000
0F00038000
1E0FC38000
1C3FE1C000
3878F1C000
30E071C000
71E071C000
71C001C000
E3C001C000
E38001C000
E380038000
E3C0E38000
E3C0E38000
E1E3C70000
E0FF8E0000
707E1E0000
78003C0000
3C00F80000
1F03E00000
0FFF800000
03FE000000
0000000000
0000000800
0000000100
0000000020
ENDCHAR
STARTCHAR ordfeminine
ENCODING 170
SWIDTH 370 0
DWIDTH 12 0
BBX 11 16 4 9
BITMAP
0FC0
1FE0
3CE0
38E0
07E0
3FE0
78E0
F1E0
F3C0
FFC0
7DC0
0000
0000
7FE0
FFC0
FFC0
ENDCHAR
STARTCHAR guillemotleft
ENCODING 171
SWIDTH 556 0
DWIDTH 18 0
BBX 15 13 3 3
BITMAP
0100
0384
078E
0E1E
1E3C
3C78
78F0
F1E0
78F0
3C78
1E3C
0E1C
0408
ENDCHAR
STARTCHAR logicalnot
ENCODING 172
SWIDTH 584 0
DWIDTH 19 0
BBX 18 10 3 4
BITMAP
7FFFC0
7FFFC0
FFFF80
FFFF80
000780
000780
000780
000F00
000F00
000F00
ENDCHAR
STARTCHAR hyphen
ENCODING 173
SWIDTH 333 0
DWIDTH 11 0
BBX 9 5 3 7
BITMAP
FF80
FF80
FF80
FF80
FF80
ENDCHAR
STARTCHAR registered
ENCODING 174
SWIDTH 737 0
DWIDTH 24 0
BBX 27 25 2 0
BITMAP
000FE000
007FFC00
00F83F00
03C00700
07800380
0E3FE1C0
1C3FF1C0
1C3879C0
387038E0
307038E0
707070C0
707FF1C0
E07FC1C0
E0E381C0
E0E38380
E0E38380
E0C1C380
E1C1C700
E1C1CE00
70001E00
78003C00
3C00F800
1E03E000
0FFF8000
03FE0000
ENDCHAR
STARTCHAR macron
ENCODING 175
SWIDTH 333 0
DWIDTH 11 0
BBX 10 3 5 21
BITMAP
FFC0
FFC0
FFC0
ENDCHAR
STARTCHAR degree
ENCODING 176
SWIDTH 400 0
DWIDTH 13 0
BBX 10 10 6 14
BITMAP
0F00
3F80
71C0
60C0
C0C0
C0C0
C1C0
E380
7F00
3C00
ENDCHAR
STARTCHAR plusminus
ENCODING 177
SWIDTH 584 0
DWIDTH 19 0
BBX 19 22 2 0
BITMAP
003C00
003C00
003C00
007800
007800
007800
1FFFE0
1FFFE0
3FFFC0
3FFFC0
00F000
00F000
00F000
01E000
01E000
01E000
000000
000000
7FFF80
7FFF80
FFFF00
FFFF00
ENDCHAR
STARTCHAR twosuperior
ENCODING 178
SWIDTH 333 0
DWIDTH 11 0
BBX 13 16 2 9
BITMAP
01C0
07F0
0FF8
1E78
1C38
3838
0078
0070
01E0
07C0
0F00
3E00
7800
7FE0
FFE0
FFE0
ENDCHAR
STARTCHAR threesuperior
ENCODING 179
SWIDTH 333 0
DWIDTH 11 0
BBX 11 15 3 9
BITMAP
0FC0
1FE0
3DE0
78E0
70E0
01E0
07C0
07C0
01E0
00E0
E0E0
E1E0
F3C0
FF80
7F00
ENDCHAR
STARTCHAR acute
ENCODING 180
SWIDTH 333 0
DWIDTH 11 0
BBX 7 5 7 21
BITMAP
1E
3C
38
70
E0
ENDCHAR
STARTCHAR mu
ENCODING 181
SWIDTH 611 0
DWIDTH 20 0
BBX 21 25 1 -7
BITMAP
0780F8
0780F8
0F81F0
0F81F0
0F81F0
0F01F0
0F01E0
1F03E0
1F03E0
1F03E0
1E03E0
3E03C0
3E07C0
3F0FC0
3FFFC0
3FFF80
7FFF80
7FCF80
7C0000
7C0000
780000
F80000
F80000
F80000
F00000
ENDCHAR
STARTCHAR paragraph
ENCODING 182
SWIDTH 556 0
DWIDTH 18 0
BBX 18 31 5 -6
BITMAP
07FFC0
1FFFC0
3FC600
7FCE00
7FCE00
FF8C00
FF8C00
FF9C00
FF9C00
FF9C00
FF1800
FF1800
FF3800
7F3800
3E3800
063000
063000
0E7000
0E7000
0C6000
0C6000
0C6000
1CE000
1CE000
18C000
18C000
18C000
38C000
31C000
318000
318000
ENDCHAR
STARTCHAR periodcentered
ENCODING 183
SWIDTH 278 0
DWIDTH 9 0
BBX 4 4 5 11
BITMAP
70
F0
F0
E0
ENDCHAR
STARTCHAR cedilla
ENCODING 184
SWIDTH 333 0
DWIDTH 11 0
BBX 8 7 1 -7
BITMAP
18
18
1E
07
07
FE
FC
ENDCHAR
STARTCHAR onesuperior
ENCODING 185
SWIDTH 333 0
DWIDTH 11 0
BBX 8 15 5 9
BITMAP
07
1F
FE
FE
0E
0E
1E
1C
1C
1C
1C
3C
38
38
38
ENDCHAR
STARTCHAR ordmasculine
ENCODING 186
SWIDTH 365 0
DWIDTH 12 0
BBX 12 16 4 9
BITMAP
07E0
1FF0
3CF0
3870
7870
7070
7070
70E0
79E0
3FC0
1F80
0000
0000
7FC0
FFC0
FF80
ENDCHAR
STARTCHAR guillemotright
ENCODING 187
SWIDTH 556 0
DWIDTH 18 0
BBX 15 12 2 3
BITMAP
2040
70E0
78F0
3C78
1E3C
0F1E
1E3C
3C78
78F0
F1E0
E1C0
4080
ENDCHAR
STARTCHAR onequarter
ENCODING 188
SWIDTH 834 0
DWIDTH 27 0
BBX 23 24 5 0
BITMAP
00000E
07001C
1F0038
FE0070
FE00E0
0E01C0
0E03C0
1E0380
1C0700
1C0E00
1C1C1E
1C3C3E
38387E
3870FC
00E0DC
01C19C
03831C
038738
070E38
0E0FFE
1C0FFE
380078
700070
E00070
ENDCHAR
STARTCHAR onehalf
ENCODING 189
SWIDTH 834 0
DWIDTH 27 0
BBX 24 24 4 0
BITMAP
00003C
070038
1F0070
FE00E0
FE01C0
0E0380
0E0780
1E0700
1C0E00
1C1C00
1C387E
1C79FF
3C73CF
38E787
01C707
03800F
07001E
07007C
0E01F0
1C03C0
380780
700FFC
701FFC
E01FFC
ENDCHAR
STARTCHAR threequarters
ENCODING 190
SWIDTH 834 0
DWIDTH 27 0
BBX 26 24 4 0
BITMAP
07C003C0
1FE00380
38E00700
78E00E00
70E01C00
01E03800
07C07000
07C0F000
03E0E000
00E1C000
E0E38F00
E1E71F00
F3CE3F00
7F8E3E00
3F1C6E00
0038CE00
0071CE00
00E39C00
01C71C00
01C7FF00
0387FE00
07001C00
0E003800
1C003800
ENDCHAR
STARTCHAR questiondown
ENCODING 191
SWIDTH 611 0
DWIDTH 20 0
BBX 17 24 2 -6
BITMAP
007C00
007C00
00F800
00F800
000000
000000
00F000
00F000
01F000
03E000
07C000
0F8000
1F0000
3E0000
7C0000
7C0F80
F80F80
F81F00
F81F00
FE7F00
FFFE00
7FFC00
7FF800
1FE000
ENDCHAR
STARTCHAR Agrave
ENCODING 192
SWIDTH 722 0
DWIDTH 24 0
BBX 22 31 1 0
BITMAP
000F00
000780
000380
0001C0
0000E0
000000
0003E0
0007E0
000FE0
000FE0
001FF0
003FF0
003FF0
007DF0
007DF0
00F9F0
00F9F0
01F0F8
03F0F8
03E0F8
07E0F8
07C0F8
0FFFF8
0FFFF8
1FFFF8
1FFFFC
3E00FC
3E007C
7C007C
FC007C
F8007C
ENDCHAR
STARTCHAR Aacute
ENCODING 193
SWIDTH 722 0
DWIDTH 24 0
BBX 22 31 1 0
BITMAP
000078
0000F0
0000E0
0001C0
000380
000000
0003E0
0007E0
000FE0
000FE0
001FF0
003FF0
003FF0
007DF0
007DF0
00F9F0
00F9F0
01F0F8
03F0F8
03E0F8
07E0F8
07C0F8
0FFFF8
0FFFF8
1FFFF8
1FFFFC
3E00FC
3E007C
7C007C
FC007C
F8007C
ENDCHAR
STARTCHAR Acircumflex
ENCODING 194
SWIDTH 722 0
DWIDTH 24 0
BBX 22 31 1 0
BITMAP
0001E0
0003F0
000770
000E38
001C1C
000000
0003E0
0007E0
000FE0
000FE0
001FF0
003FF0
003FF0
007DF0
007DF0
00F9F0
00F9F0
01F0F8
03F0F8
03E0F8
07E0F8
07C0F8
0FFFF8
0FFFF8
1FFFF8
1FFFFC
3E00FC
3E007C
7C007C
FC007C
F8007C
ENDCHAR
STARTCHAR Atilde
ENCODING 195
SWIDTH 722 0
DWIDTH 24 0
BBX 23 31 1 0
BITMAP
000382
0007C6
000FFC
0018F8
001070
000000
0003E0
0007E0
000FE0
000FE0
001FF0
003FF0
003FF0
007DF0
007DF0
00F9F0
00F9F0
01F0F8
03F0F8
03E0F8
07E0F8
07C0F8
0FFFF8
0FFFF8
1FFFF8
1FFFFC
3E00FC
3E007C
7C007C
FC007C
F8007C
ENDCHAR
STARTCHAR Adieresis
ENCODING 196
SWIDTH 722 0
DWIDTH 24 0
BBX 22 31 1 0
BITMAP
003C3C
003C3C
003C3C
003C3C
000000
000000
0003E0
0007E0
000FE0
000FE0
001FF0
003FF0
003FF0
007DF0
007DF0
00F9F0
00F9F0
01F0F8
03F0F8
03E0F8
07E0F8
07C0F8
0FFFF8
0FFFF8
1FFFF8
1FFFFC
3E00FC
3E007C
7C007C
FC007C
F8007C
ENDCHAR
STARTCHAR Aring
ENCODING 197
SWIDTH 722 0
DWIDTH 24 0
BBX 22 31 1 0
BITMAP
0001E0
000370
000630
000630
000760
0003C0
000000
0007E0
000FE0
000FE0
001FF0
003FF0
003FF0
007DF0
007DF0
00F9F0
00F9F0
01F0F8
03F0F8
03E0F8
07E0F8
07C0F8
0FFFF8
0FFFF8
1FFFF8
1FFFFC
3E00FC
3E007C
7C007C
FC007C
F8007C
ENDCHAR
STARTCHAR AE
ENCODING 198
SWIDTH 1000 0
DWIDTH 32 0
BBX 34 25 0 0
BITMAP
000FFFFFC0
001FFFFFC0
001FFFFF80
003FFFFF80
003DF00000
007DF00000
0079F00000
00F9F00000
00F3E00000
01F3E00000
01E3FFFE00
03E3FFFE00
03C3FFFC00
07C7FFFC00
0787C00000
0F87C00000
0FFFC00000
1FFFC00000
1FFF800000
3FFF800000
3C0F800000
7C0FFFFC00
7C1FFFFC00
F81FFFF800
F81FFFF800
ENDCHAR
STARTCHAR Ccedilla
ENCODING 199
SWIDTH 722 0
DWIDTH 23 0
BBX 23 32 2 -7
BITMAP
003FE0
00FFF8
01FFFC
07FFFC
0FF0FE
0FC07E
1F803E
3F003E
3E003E
3E0000
7C0000
7C0000
7C0000
FC0000
F80000
F80000
F8007C
FC00FC
7C00F8
7E03F0
7F0FF0
3FFFE0
3FFFC0
1FFF00
07F800
00C000
00C000
00F000
003800
003800
07F000
07E000
ENDCHAR
STARTCHAR Egrave
ENCODING 200
SWIDTH 667 0
DWIDTH 22 0
BBX 23 31 3 0
BITMAP
003C00
001E00
000E00
000700
000380
000000
07FFFE
07FFFE
07FFFC
0FFFFC
0F8000
0F8000
0F8000
0F8000
1F0000
1F0000
1FFFF0
1FFFF0
1FFFE0
3FFFE0
3E0000
3E0000
3E0000
3E0000
7C0000
7C0000
7C0000
7FFFE0
FFFFE0
FFFFC0
FFFFC0
ENDCHAR
STARTCHAR Eacute
ENCODING 201
SWIDTH 667 0
DWIDTH 22 0
BBX 23 31 3 0
BITMAP
0001E0
0003C0
000380
000700
000E00
000000
07FFFE
07FFFE
07FFFC
0FFFFC
0F8000
0F8000
0F8000
0F8000
1F0000
1F0000
1FFFF0
1FFFF0
1FFFE0
3FFFE0
3E0000
3E0000
3E0000
3E0000
7C0000
7C0000
7C0000
7FFFE0
FFFFE0
FFFFC0
FFFFC0
ENDCHAR
STARTCHAR Ecircumflex
ENCODING 202
SWIDTH 667 0
DWIDTH 22 0
BBX 23 31 3 0
BITMAP
000780
000FC0
001DC0
0038E0
007070
000000
07FFFE
07FFFE
07FFFC
0FFFFC
0F8000
0F8000
0F8000
0F8000
1F0000
1F0000
1FFFF0
1FFFF0
1FFFE0
3FFFE0
3E0000
3E0000
3E0000
3E0000
7C0000
7C0000
7C0000
7FFFE0
FFFFE0
FFFFC0
FFFFC0
ENDCHAR
STARTCHAR Edieresis
ENCODING 203
SWIDTH 667 0
DWIDTH 22 0
BBX 23 31 3 0
BITMAP
0078F0
0078F0
0078F0
0078F0
000000
000000
07FFFE
07FFFE
07FFFC
0FFFFC
0F8000
0F8000
0F8000
0F8000
1F0000
1F0000
1FFFF0
1FFFF0
1FFFE0
3FFFE0
3E0000
3E0000
3E0000
3E0000
7C0000
7C0000
7C0000
7FFFE0
FFFFE0
FFFFC0
FFFFC0
ENDCHAR
STARTCHAR Igrave
ENCODING 204
SWIDTH 278 0
DWIDTH 9 0
BBX 11 31 2 0
BITMAP
0F00
0780
0380
01C0
00E0
0000
07C0
07C0
07C0
0FC0
0F80
0F80
0F80
0F80
1F80
1F00
1F00
1F00
1F00
3F00
3E00
3E00
3E00
3E00
7C00
7C00
7C00
7C00
FC00
F800
F800
ENDCHAR
STARTCHAR Iacute
ENCODING 205
SWIDTH 278 0
DWIDTH 9 0
BBX 12 31 2 0
BITMAP
00F0
01E0
01C0
0380
0700
0000
07C0
07C0
07C0
0FC0
0F80
0F80
0F80
0F80
1F80
1F00
1F00
1F00
1F00
3F00
3E00
3E00
3E00
3E00
7C00
7C00
7C00
7C00
FC00
F800
F800
ENDCHAR
STARTCHAR Icircumflex
ENCODING 206
SWIDTH 278 0
DWIDTH 9 0
BBX 14 31 2 0
BITMAP
01E0
03F0
0770
0E38
1C1C
0000
07C0
07C0
07C0
0FC0
0F80
0F80
0F80
0F80
1F80
1F00
1F00
1F00
1F00
3F00
3E00
3E00
3E00
3E00
7C00
7C00
7C00
7C00
FC00
F800
F800
ENDCHAR
STARTCHAR Idieresis
ENCODING 207
SWIDTH 278 0
DWIDTH 9 0
BBX 14 31 2 0
BITMAP
1E3C
1E3C
1E3C
1E3C
0000
0000
07C0
07C0
07C0
0FC0
0F80
0F80
0F80
0F80
1F80
1F00
1F00
1F00
1F00
3F00
3E00
3E00
3E00
3E00
7C00
7C00
7C00
7C00
FC00
F800
F800
ENDCHAR
STARTCHAR Eth
ENCODING 208
SWIDTH 722 0
DWIDTH 23 0
BBX 24 25 2 0
BITMAP
03FFF0
03FFFC
03FFFE
07FFFE
07C1FF
07C03F
07C03F
07C01F
0FC01F
0F801F
0F801F
7FF81F
FFF81F
FFF03E
1F003E
1F003E
1F007C
1F007C
3E00F8
3E01F8
3E07F0
3FFFE0
7FFFC0
7FFF80
7FFE00
ENDCHAR
STARTCHAR Ntilde
ENCODING 209
SWIDTH 722 0
DWIDTH 24 0
BBX 25 31 2 0
BITMAP
000E0800
001F1800
003FF000
0063E000
0041C000
00000000
07E00F80
07E00F80
07E00F80
0FF01F80
0FF01F00
0FF01F00
0FF81F00
0FF81F00
1FFC3F00
1F7C3E00
1F3C3E00
1F3E3E00
1F3E3E00
3F1E7E00
3E1F7C00
3E1F7C00
3E0F7C00
3E0FFC00
7E07F800
7C07F800
7C07F800
7C03F800
FC03F800
F803F000
F801F000
ENDCHAR
STARTCHAR Ograve
ENCODING 210
SWIDTH 778 0
DWIDTH 25 0
BBX 24 31 4 0
BITMAP
003C00
001E00
000E00
000700
000380
000000
001F80
00FFF0
03FFF8
07FFFC
0FE1FE
1F807E
3F003F
3E003F
7E001F
7C001F
7C001F
FC001F
F8001F
F8001E
F8003E
F8003E
F8007E
F8007C
FC00FC
FC01F8
7F07F0
7FFFE0
3FFFC0
1FFF00
07FC00
ENDCHAR
STARTCHAR Oacute
ENCODING 211
SWIDTH 778 0
DWIDTH 25 0
BBX 24 31 4 0
BITMAP
000078
0000F0
0000E0
0001C0
000380
000000
001F80
00FFF0
03FFF8
07FFFC
0FE1FE
1F807E
3F003F
3E003F
7E001F
7C001F
7C001F
FC001F
F8001F
F8001E
F8003E
F8003E
F8007E
F8007C
FC00FC
FC01F8
7F07F0
7FFFE0
3FFFC0
1FFF00
07FC00
ENDCHAR
STARTCHAR Ocircumflex
ENCODING 212
SWIDTH 778 0
DWIDTH 25 0
BBX 24 31 4 0
BITMAP
0003C0
0007E0
000EE0
001C70
003838
000000
001F80
00FFF0
03FFF8
07FFFC
0FE1FE
1F807E
3F003E
3E003F
7E001F
7C001F
7C001F
FC001F
F8001F
F8003F
F8003E
F8003E
F8007E
F8007C
FC00FC
FC01F8
7F07F0
7FFFE0
3FFFC0
1FFF00
07FC00
ENDCHAR
STARTCHAR Otilde
ENCODING 213
SWIDTH 778 0
DWIDTH 25 0
BBX 24 31 4 0
BITMAP
000E08
001F18
003FF0
0063E0
0041C0
000000
001F80
00FFF0
03FFF8
07FFFC
0FE1FE
1F807E
3F003E
3E003F
7E001F
7C001F
7C001F
FC001F
F8001F
F8001F
F8003E
F8003E
F8007E
F8007C
FC00FC
7C01F8
7F07F0
3FFFE0
1FFFC0
0FFF00
03FC00
ENDCHAR
STARTCHAR Odieresis
ENCODING 214
SWIDTH 778 0
DWIDTH 25 0
BBX 24 31 4 0
BITMAP
003C78
003C78
003C78
003C78
000000
000000
001F80
00FFF0
03FFF8
07FFFC
0FE1FE
1F807E
3F003E
3E003F
7E001F
7C001F
7C001F
FC001F
F8001F
F8001E
F8003E
F8003E
F8007E
F8007C
FC00FC
7C01F8
7F07F0
3FFFE0
3FFFC0
0FFF00
03FC00
ENDCHAR
STARTCHAR multiply
ENCODING 215
SWIDTH 584 0
DWIDTH 19 0
BBX 18 15 3 1
BITMAP
0C0100
1E0780
3F0FC0
3F1F80
1FBF00
0FFC00
07F800
03F000
07F000
0FF800
3FFC00
7E7E00
FC3E00
F83E00
701C00
ENDCHAR
STARTCHAR Oslash
ENCODING 216
SWIDTH 778 0
DWIDTH 25 0
BBX 30 25 1 0
BITMAP
0007FC1C
003FFF38
007FFFF0
00FFFFE0
01FE3FC0
03F00FC0
07E00FE0
07C01FE0
0F803BE0
0F8073E0
1F01E3E0
1F03C3E0
1F0783E0
3F0E07C0
3E1C07C0
3E380FC0
3F700F80
3FE01F80
1FC03F00
1F807E00
1FE1FE00
1FFFFC00
3FFFF800
73FFE000
E1FF8000
ENDCHAR
STARTCHAR Ugrave
ENCODING 217
SWIDTH 722 0
DWIDTH 24 0
BBX 22 31 5 0
BITMAP
007800
003C00
001C00
000E00
000700
000000
1F007C
1F007C
1F007C
3F007C
3E00F8
3E00F8
3E00F8
3E00F8
7E01F8
7C01F0
7C01F0
7C01F0
7C01F0
F803F0
F803E0
F803E0
F803E0
F807E0
F807C0
F80FC0
FE3F80
FFFF00
7FFF00
3FFC00
1FF000
ENDCHAR
STARTCHAR Uacute
ENCODING 218
SWIDTH 722 0
DWIDTH 24 0
BBX 22 31 5 0
BITMAP
000780
000F00
000E00
001C00
003800
000000
1F007C
1F007C
1F007C
3F007C
3E00F8
3E00F8
3E00F8
3E00F8
7E01F8
7C01F0
7C01F0
7C01F0
7C01F0
F803F0
F803E0
F803E0
F803E0
F807E0
F807C0
F80FC0
FE3F80
FFFF00
7FFF00
3FFC00
1FF000
ENDCHAR
STARTCHAR Ucircumflex
ENCODING 219
SWIDTH 722 0
DWIDTH 24 0
BBX 22 31 5 0
BITMAP
001E00
003F00
007700
00E380
01C1C0
000000
1F007C
1F007C
1F007C
3F007C
3E00F8
3E00F8
3E00F8
3E00F8
7E01F8
7C01F0
7C01F0
7C01F0
7C01F0
F803F0
F803E0
F803E0
F803E0
F807E0
F807C0
F80FC0
FE3F80
FFFF00
7FFF00
3FFC00
1FF000
ENDCHAR
STARTCHAR Udieresis
ENCODING 220
SWIDTH 722 0
DWIDTH 24 0
BBX 22 31 5 0
BITMAP
01E3C0
01E3C0
01E3C0
01E3C0
000000
000000
1F007C
1F007C
1F007C
3F007C
3E00F8
3E00F8
3E00F8
3E00F8
7E01F8
7C01F0
7C01F0
7C01F0
7C01F0
F803F0
F803E0
F803E0
F803E0
F807E0
F807C0
F80FC0
FE3F80
FFFF00
7FFF00
3FFC00
1FF000
ENDCHAR
STARTCHAR Yacute
ENCODING 221
SWIDTH 667 0
DWIDTH 22 0
BBX 21 31 6 0
BITMAP
001E00
003C00
003800
007000
00E000
000000
FC01F8
7C03F0
7E03E0
7E07E0
3E0FC0
3E0F80
3E1F00
3F3F00
1F3E00
1F7C00
1FFC00
0FF800
0FF000
0FF000
0FE000
07C000
07C000
0FC000
0F8000
0F8000
0F8000
0F8000
1F8000
1F0000
1F0000
ENDCHAR
STARTCHAR Thorn
ENCODING 222
SWIDTH 667 0
DWIDTH 22 0
BBX 21 25 3 0
BITMAP
07C000
07C000
07C000
0FFFC0
0FFFF0
0FFFF0
0FFFF8
0F81F8
1F00F8
1F00F8
1F00F8
1F00F8
1F01F8
3E01F0
3E07F0
3FFFE0
3FFFC0
3FFF80
7FFE00
7C0000
7C0000
7C0000
F80000
F80000
F80000
ENDCHAR
STARTCHAR germandbls
ENCODING 223
SWIDTH 611 0
DWIDTH 20 0
BBX 20 25 2 0
BITMAP
003F00
00FFC0
03FFE0
07FFE0
07C3F0
0F81F0
0F81F0
0F81E0
0F03E0
1F0FC0
1F3F80
1F3F80
1F3FC0
1E0FE0
3E07E0
3E03E0
3E03E0
3C03E0
7C07C0
7C0FC0
7C1F80
7CFF00
78FF00
F9FC00
F9F000
ENDCHAR
STARTCHAR agrave
ENCODING 224
SWIDTH 556 0
DWIDTH 18 0
BBX 17 25 2 0
BITMAP
03C000
01E000
00E000
007000
003800
000000
000000
01FC00
07FF00
0FFF80
1F8F80
1E0780
1E0F80
001F80
07FF80
1FFF00
3FFF00
7E1F00
7C1F00
F83E00
F87E00
FFFE00
FFFE00
7FBE00
3E3E00
ENDCHAR
STARTCHAR aacute
ENCODING 225
SWIDTH 556 0
DWIDTH 18 0
BBX 17 25 2 0
BITMAP
000F00
001E00
001C00
003800
007000
000000
000000
01FC00
07FF00
0FFF80
1F8F80
1E0780
1E0F80
001F80
07FF80
1FFF00
3FFF00
7E1F00
7C1F00
F83E00
F87E00
FFFE00
FFFE00
7FBE00
3E3E00
ENDCHAR
STARTCHAR acircumflex
ENCODING 226
SWIDTH 556 0
DWIDTH 18 0
BBX 17 25 2 0
BITMAP
003C00
007E00
00EE00
01C700
038380
000000
000000
01FE00
07FF00
0FFF80
1F8F80
1E0780
1E0F80
001F80
07FF80
1FFF00
3FFF00
7E1F00
781F00
F83E00
F87E00
FFFE00
FFFE00
7FBE00
3E3E00
ENDCHAR
STARTCHAR atilde
ENCODING 227
SWIDTH 556 0
DWIDTH 18 0
BBX 18 24 2 0
BITMAP
007040
00F8C0
01FF80
031F00
020E00
000000
01FE00
07FF00
0FFF80
1F8F80
1E0780
1E0F80
001F80
07FF80
1FFF00
3FFF00
7E1F00
781F00
F83E00
F87E00
FFFE00
FFFE00
7FBE00
3E3E00
ENDCHAR
STARTCHAR adieresis
ENCODING 228
SWIDTH 556 0
DWIDTH 18 0
BBX 17 24 2 0
BITMAP
03C780
03C780
03C780
03C780
000000
000000
01FE00
07FF00
0FFF80
1F8F80
1E0780
1E0F80
001F80
07FF80
1FFF00
3FFF00
7E1F00
781F00
F83E00
F87E00
FFFE00
FFFE00
7FBE00
3E3E00
ENDCHAR
STARTCHAR aring
ENCODING 229
SWIDTH 556 0
DWIDTH 18 0
BBX 17 25 2 0
BITMAP
001E00
003700
006300
006300
007600
003C00
000000
01FE00
07FF00
0FFF00
1F8F80
1E0780
1E0F80
001F80
07FF80
1FFF00
3FFF00
7E1F00
781F00
F83E00
F87E00
FFFE00
FFFE00
7FBE00
3E3E00
ENDCHAR
STARTCHAR ae
ENCODING 230
SWIDTH 889 0
DWIDTH 29 0
BBX 29 19 1 0
BITMAP
00FC1F80
03FF7FE0
07FFFFF0
0FFFFFF0
0F0FE1F8
1F07C0F8
1E0F80F8
001F80F8
03FFFFF8
1FFFFFF8
3FFFFFF8
7E1F0000
781F0000
F83F01F0
FC7F83F0
FFFFFFE0
FFF7FFC0
7FC7FF00
1F01FC00
ENDCHAR
STARTCHAR ccedilla
ENCODING 231
SWIDTH 556 0
DWIDTH 18 0
BBX 17 25 3 -7
BITMAP
01FC00
07FE00
1FFF00
1FFF00
3E1F80
7C0F80
7C0F80
F80000
F80000
F80000
F80000
F81E00
F83E00
F87E00
FFFC00
7FF800
7FF000
1FC000
060000
060000
078000
01C000
01C000
3F8000
3F0000
ENDCHAR
STARTCHAR egrave
ENCODING 232
SWIDTH 556 0
DWIDTH 18 0
BBX 17 25 3 0
BITMAP
078000
03C000
01C000
00E000
007000
000000
000000
01F800
07FE00
1FFF00
1FFF00
3E0F80
7C0F80
7C0F80
FFFF80
FFFF80
FFFF80
F80000
F00000
F01F00
F83E00
FFFC00
7FF800
3FF000
0F8000
ENDCHAR
STARTCHAR eacute
ENCODING 233
SWIDTH 556 0
DWIDTH 18 0
BBX 17 25 3 0
BITMAP
003C00
007800
007000
00E000
01C000
000000
000000
01F800
07FE00
1FFF00
1FFF80
3E0F80
7C0F80
7C0F80
FFFF80
FFFF80
FFFF80
F80000
F00000
F01F00
F83E00
FFFC00
7FF800
3FF000
0F8000
ENDCHAR
STARTCHAR ecircumflex
ENCODING 234
SWIDTH 556 0
DWIDTH 18 0
BBX 17 25 3 0
BITMAP
007800
00FC00
01DC00
038E00
070700
000000
000000
01F800
07FE00
1FFF00
1FFF80
3E0F80
7C0F80
7C0F80
FFFF80
FFFF80
FFFF80
F80000
F00000
F01F00
F83E00
FFFC00
7FF800
3FF000
0F8000
ENDCHAR
STARTCHAR edieresis
ENCODING 235
SWIDTH 556 0
DWIDTH 18 0
BBX 17 24 3 0
BITMAP
078F00
078F00
078F00
078F00
000000
000000
01F800
07FE00
1FFF00
1FFF00
3E0F80
7C0F80
7C0F80
FFFF80
FFFF80
FFFF80
F80000
F00000
F01F00
F83E00
FFFC00
7FF800
3FF000
0F8000
ENDCHAR
STARTCHAR igrave
ENCODING 236
SWIDTH 278 0
DWIDTH 9 0
BBX 9 25 2 0
BITMAP
7800
3C00
1C00
0E00
0700
0000
0000
0F80
0F80
1F00
1F00
1F00
1F00
1E00
3E00
3E00
3E00
3E00
7C00
7C00
7C00
7C00
7800
F800
F800
ENDCHAR
STARTCHAR iacute
ENCODING 237
SWIDTH 278 0
DWIDTH 9 0
BBX 12 25 2 0
BITMAP
00F0
01E0
01C0
0380
0700
0000
0000
0F80
0F80
1F00
1F00
1F00
1F00
1E00
3E00
3E00
3E00
3E00
7C00
7C00
7C00
7C00
7800
F800
F800
ENDCHAR
STARTCHAR icircumflex
ENCODING 238
SWIDTH 278 0
DWIDTH 9 0
BBX 13 25 2 0
BITMAP
03C0
07E0
0EE0
1C70
3838
0000
0000
0F80
0F80
1F00
1F00
1F00
1F00
1E00
3E00
3E00
3E00
3E00
7C00
7C00
7C00
7C00
7800
F800
F800
ENDCHAR
STARTCHAR idieresis
ENCODING 239
SWIDTH 278 0
DWIDTH 9 0
BBX 13 24 2 0
BITMAP
3C78
3C78
3C78
3C78
0000
0000
0F80
0F80
1F00
1F00
1F00
1F00
1E00
3E00
3E00
3E00
3E00
7C00
7C00
7C00
7C00
7800
F800
F800
ENDCHAR
STARTCHAR eth
ENCODING 240
SWIDTH 611 0
DWIDTH 20 0
BBX 18 25 3 0
BITMAP
030600
07DE00
07FE00
03F800
0FF800
1FFC00
0C7E00
01FF00
07FF80
0FFF80
1FFFC0
3F0FC0
7E07C0
7C07C0
7807C0
F807C0
F807C0
F80F80
F80F80
F81F80
FC3F00
FFFE00
7FFC00
3FF800
0FE000
ENDCHAR
STARTCHAR ntilde
ENCODING 241
SWIDTH 611 0
DWIDTH 20 0
BBX 19 24 2 0
BITMAP
007040
00F8C0
01FF80
031F00
020E00
000000
0F1F00
0F7FC0
1FFFC0
1FFFC0
1F87E0
1F03E0
1E03E0
3E07E0
3E07C0
3E07C0
3C07C0
7C0780
7C0F80
7C0F80
7C0F80
780F00
F81F00
F81F00
ENDCHAR
STARTCHAR ograve
ENCODING 242
SWIDTH 611 0
DWIDTH 20 0
BBX 18 25 3 0
BITMAP
03C000
01E000
00E000
007000
003800
000000
000000
01FC00
07FF00
0FFF80
1FFFC0
3F0FC0
7E07C0
7C07C0
7807C0
F807C0
F807C0
F80F80
F80F80
F81F80
FC3F00
FFFE00
7FFC00
3FF800
0FE000
ENDCHAR
STARTCHAR oacute
ENCODING 243
SWIDTH 611 0
DWIDTH 20 0
BBX 18 25 3 0
BITMAP
001E00
003C00
003800
007000
00E000
000000
000000
01FC00
07FF00
0FFF80
1FFFC0
3F0FC0
7E07C0
7C07C0
7807C0
F807C0
F807C0
F80F80
F80F80
F81F80
FC3F00
FFFE00
7FFC00
3FF800
0FE000
ENDCHAR
STARTCHAR ocircumflex
ENCODING 244
SWIDTH 611 0
DWIDTH 20 0
BBX 18 25 3 0
BITMAP
003C00
007E00
00EE00
01C700
038380
000000
000000
01FC00
07FF00
0FFF80
1FFFC0
3F0FC0
7E07C0
7C07C0
7807C0
F807C0
F807C0
F80F80
F80F80
F81F80
FC3F00
FFFE00
7FFC00
3FF800
0FE000
ENDCHAR
STARTCHAR otilde
ENCODING 245
SWIDTH 611 0
DWIDTH 20 0
BBX 18 24 3 0
BITMAP
007040
00F8C0
01FF80
031F00
020E00
000000
01FC00
07FF00
0FFF80
1FFFC0
3F0FC0
7E07C0
7C07C0
7807C0
F807C0
F807C0
F80F80
F80F80
F81F80
FC3F00
FFFE00
7FFC00
3FF800
0FE000
ENDCHAR
STARTCHAR odieresis
ENCODING 246
SWIDTH 611 0
DWIDTH 20 0
BBX 18 24 3 0
BITMAP
03C780
03C780
03C780
03C780
000000
000000
01FC00
07FF00
0FFF80
1FFFC0
3F0FC0
7E07C0
7C07C0
7807C0
F807C0
F807C0
F80F80
F80F80
F81F80
FC3F00
FFFE00
7FFC00
3FF800
0FE000
ENDCHAR
STARTCHAR divide
ENCODING 247
SWIDTH 584 0
DWIDTH 19 0
BBX 17 16 3 0
BITMAP
007000
00F000
00F000
00E000
000000
000000
7FFF80
7FFF80
FFFF00
FFFF00
000000
000000
03C000
07C000
07C000
078000
ENDCHAR
STARTCHAR oslash
ENCODING 248
SWIDTH 611 0
DWIDTH 20 0
BBX 23 18 1 0
BITMAP
007F0E
01FFDC
03FFF8
07FFF0
0FC3F0
1F83F0
1F07F0
1E1DF0
3E39F0
3E71F0
3EE3E0
3F83E0
3F07E0
3F0FC0
3FFF80
7FFF00
EFFE00
C3F800
ENDCHAR
STARTCHAR ugrave
ENCODING 249
SWIDTH 611 0
DWIDTH 20 0
BBX 19 25 3 0
BITMAP
03C000
01E000
00E000
007000
003800
000000
000000
1F03E0
1F03E0
1E03E0
3E07C0
3E07C0
3C07C0
3C0780
7C0F80
7C0F80
7C0F80
780F80
F81F00
F81F00
FC3F00
FFFF00
FFFE00
7FDE00
1F1E00
ENDCHAR
STARTCHAR uacute
ENCODING 250
SWIDTH 611 0
DWIDTH 20 0
BBX 19 25 3 0
BITMAP
000F00
001E00
001C00
003800
007000
000000
000000
1F03E0
1F03E0
1E03E0
3E07C0
3E07C0
3C07C0
3C0780
7C0F80
7C0F80
7C0F80
780F80
F81F00
F81F00
FC3F00
FFFF00
FFFE00
7FDE00
1F1E00
ENDCHAR
STARTCHAR ucircumflex
ENCODING 251
SWIDTH 611 0
DWIDTH 20 0
BBX 19 25 3 0
BITMAP
003C00
007E00
00EE00
01C700
038380
000000
000000
1F03E0
1F03E0
1E03E0
3E07C0
3E07C0
3C07C0
3C0780
7C0F80
7C0F80
7C0F80
780F80
F81F00
F81F00
FC3F00
FFFF00
FFFE00
7FDE00
1F1E00
ENDCHAR
STARTCHAR udieresis
ENCODING 252
SWIDTH 611 0
DWIDTH 20 0
BBX 19 24 3 0
BITMAP
03C780
03C780
03C780
03C780
000000
000000
1F03E0
1F03E0
1E03E0
3E07C0
3E07C0
3C07C0
3C0780
7C0F80
7C0F80
7C0F80
780F80
F81F00
F81F00
FC3F00
FFFF00
FFFE00
7FDE00
1F1E00
ENDCHAR
STARTCHAR yacute
ENCODING 253
SWIDTH 556 0
DWIDTH 19 0
BBX 21 31 1 -7
BITMAP
000780
000F00
000E00
001C00
003800
000000
1F00F8
1F01F0
1F01E0
1F83E0
0F83C0
0F87C0
0F8780
0F8F80
0F8F00
0F9E00
079E00
07BC00
07FC00
07F800
07F800
07F000
07E000
03E000
07C000
07C000
0F8000
7F8000
7F0000
FE0000
F80000
ENDCHAR
STARTCHAR thorn
ENCODING 254
SWIDTH 611 0
DWIDTH 20 0
BBX 20 32 1 -7
BITMAP
03E000
03E000
03E000
03C000
07C000
07C000
07C000
079F80
07BFE0
0FFFE0
0FFFF0
0FE3F0
0FC1F0
0F81F0
1F01F0
1F01F0
1F01F0
1F01E0
3F03E0
3F07C0
3F8FC0
3FFF80
3FFF00
7DFE00
7CF800
7C0000
7C0000
780000
F80000
F80000
F80000
F00000
ENDCHAR
STARTCHAR ydieresis
ENCODING 255
SWIDTH 556 0
DWIDTH 18 0
BBX 21 32 1 -7
BITMAP
01E1E0
01E1E0
01E1E0
01E1E0
000000
000000
000000
1F00F8
1F01F0
1F01E0
0F83E0
0F83C0
0F87C0
0F8780
0F8F80
0F8F00
0F9E00
079E00
07BC00
07FC00
07F800
07F800
07F000
07E000
03E000
07C000
07C000
0F8000
7F8000
7F0000
FE0000
F80000
ENDCHAR
STARTCHAR Amacron
ENCODING 256
SWIDTH 722 0
DWIDTH 24 0
BBX 22 29 1 0
BITMAP
007FE0
007FE0
007FE0
000000
0003E0
0007E0
000FE0
001FE0
001FF0
003FF0
003FF0
007DF0
007DF0
00F9F0
00F9F0
01F0F8
03F0F8
03E0F8
07E0F8
07C0F8
0FFFF8
0FFFF8
1FFFF8
1FFFFC
3E00FC
3E007C
7C007C
FC007C
F8007C
ENDCHAR
STARTCHAR amacron
ENCODING 257
SWIDTH 556 0
DWIDTH 18 0
BBX 17 22 2 0
BITMAP
07FE00
07FE00
07FE00
000000
01FE00
07FF00
0FFF80
1F8F80
1E0780
1E0780
000F80
03FF80
1FFF00
3FFF00
7E1F00
781F00
F83E00
F87E00
FFFE00
FFFE00
7FBE00
3E3E00
ENDCHAR
STARTCHAR Abreve
ENCODING 258
SWIDTH 722 0
DWIDTH 24 0
BBX 22 31 1 0
BITMAP
002020
003060
003FC0
001F80
000F00
000000
0003E0
0007E0
000FE0
001FE0
001FF0
003FF0
003FF0
007DF0
007DF0
00F9F0
00F9F0
01F0F8
03F0F8
03E0F8
07E0F8
07C0F8
0FFFF8
0FFFF8
1FFFF8
1FFFFC
3E00FC
3E007C
7C007C
FC007C
F8007C
ENDCHAR
STARTCHAR abreve
ENCODING 259
SWIDTH 556 0
DWIDTH 18 0
BBX 17 24 2 0
BITMAP
020200
030600
03FC00
01F800
00F000
000000
01FE00
07FF00
0FFF80
1F8F80
1E0780
1E0780
000F80
03FF80
1FFF00
3FFF00
7E1F00
781F00
F83E00
F87E00
FFFE00
FFFE00
7FBE00
3E3E00
ENDCHAR
STARTCHAR Aogonek
ENCODING 260
SWIDTH 722 0
DWIDTH 24 0
BBX 22 32 1 -7
BITMAP
0003E0
0007E0
000FE0
001FE0
001FF0
003FF0
003FF0
007DF0
007DF0
00F9F0
00F9F0
01F0F8
03F0F8
03E0F8
07E0F8
07C0F8
0FFFF8
0FFFF8
1FFFF8
1FFFFC
3E00FC
3E007C
7C007C
FC007C
F8387C
007000
007000
007000
00F000
00FF00
007E00
003C00
ENDCHAR
STARTCHAR aogonek
ENCODING 261
SWIDTH 556 0
DWIDTH 18 0
BBX 17 25 2 -7
BITMAP
01FE00
07FF00
0FFF80
1F8F80
1E0780
1E0780
000F80
03FF80
1FFF00
3FFF00
7E1F00
781F00
F83E00
F87E00
FFFE00
FFFE00
7FBE00
3FFE00
038000
038000
038000
078000
07F800
03F000
01E000
ENDCHAR
STARTCHAR Cacute
ENCODING 262
SWIDTH 722 0
DWIDTH 24 0
BBX 23 31 3 0
BITMAP
000780
000F00
000E00
001C00
003800
000000
003FE0
00FFF8
01FFFC
07FFFC
0FF0FE
0FC03E
1F803E
3F003E
3E003E
7E0000
7C0000
7C0000
F80000
F80000
F80000
F80000
F8007C
FC00FC
7C00F8
7E03F0
7F0FF0
3FFFE0
3FFFC0
1FFF00
07F800
ENDCHAR
STARTCHAR cacute
ENCODING 263
SWIDTH 556 0
DWIDTH 18 0
BBX 17 24 3 0
BITMAP
003C00
007800
007000
00E000
01C000
000000
01F800
07FE00
1FFF00
1FFF00
3E1F80
7C0F80
780F80
780000
F00000
F00000
F00000
F00F00
F01F00
F83E00
FFFE00
7FFC00
7FF000
1FC000
ENDCHAR
STARTCHAR Ccircumflex
ENCODING 264
SWIDTH 722 0
DWIDTH 24 0
BBX 23 31 3 0
BITMAP
001E00
003F00
007700
00E380
00C180
000000
003FE0
00FFF8
01FFFC
07FFFC
0FF0FE
0FC03E
1F803E
3F003E
3E003E
7E0000
7C0000
7C0000
F80000
F80000
F80000
F80000
F8007C
FC00FC
7C00F8
7E03F0
7F0FF0
3FFFE0
3FFFC0
1FFF00
07F800
ENDCHAR
STARTCHAR ccircumflex
ENCODING 265
SWIDTH 556 0
DWIDTH 18 0
BBX 17 24 3 0
BITMAP
00F000
01F800
03B800
071C00
060C00
000000
01F800
07FE00
1FFF00
1FFF00
3E1F80
7C0F80
780F80
780000
F00000
F00000
F00000
F00F00
F01F00
F83E00
FFFE00
7FFC00
7FF000
1FC000
ENDCHAR
STARTCHAR Cdotaccent
ENCODING 266
SWIDTH 722 0
DWIDTH 24 0
BBX 23 30 3 0
BITMAP
001E00
001E00
001E00
001E00
000000
003FE0
00FFF8
01FFFC
07FFFC
0FF0FE
0FC03E
1F803E
3F003E
3E003E
7E0000
7C0000
7C0000
F80000
F80000
F80000
F80000
F8007C
FC00FC
7C00F8
7E03F0
7F0FF0
3FFFE0
3FFFC0
1FFF00
07F800
ENDCHAR
STARTCHAR cdotaccent
ENCODING 267
SWIDTH 556 0
DWIDTH 18 0
BBX 17 23 3 0
BITMAP
01E000
01E000
01E000
01E000
000000
01F800
07FE00
1FFF00
1FFF00
3E1F80
7C0F80
780F80
780000
F00000
F00000
F00000
F00F00
F01F00
F83E00
FFFE00
7FFC00
7FF000
1FC000
ENDCHAR
STARTCHAR Ccaron
ENCODING 268
SWIDTH 722 0
DWIDTH 24 0
BBX 23 31 3 0
BITMAP
00E1C0
007380
007700
003E00
003E00
000000
003FE0
00FFF8
01FFFC
07FFFC
0FF0FE
0FC03E
1F803E
3F003E
3E003E
7E0000
7C0000
7C0000
F80000
F80000
F80000
F80000
F8007C
FC00FC
7C00F8
7E03F0
7F0FF0
3FFFE0
3FFFC0
1FFF00
07F800
ENDCHAR
STARTCHAR ccaron
ENCODING 269
SWIDTH 556 0
DWIDTH 18 0
BBX 17 24 3 0
BITMAP
070E00
039C00
03B800
01F000
01F000
000000
01F800
07FE00
1FFF00
1FFF00
3E1F80
7C0F80
780F80
780000
F00000
F00000
F00000
F00F00
F01F00
F83E00
FFFE00
7FFC00
7FF000
1FC000
ENDCHAR
STARTCHAR Dcaron
ENCODING 270
SWIDTH 722 0
DWIDTH 24 0
BBX 23 31 3 0
BITMAP
00E1C0
007380
007700
003E00
003E00
000000
07FFE0
07FFF8
07FFFC
0FFFFC
0F81FE
0F807E
0F803E
0F803E
1F803E
1F003E
1F003E
1F003E
1F003E
3F007E
3E007C
3E007C
3E00F8
3E00F8
7C01F0
7C03F0
7C0FE0
7FFFC0
FFFF80
FFFF00
FFFC00
ENDCHAR
STARTCHAR dcaron
ENCODING 271
SWIDTH 858 0
DWIDTH 28 0
BBX 28 25 3 0
BITMAP
0000F1F0
0000F1F0
0001F1F0
0001E1F0
0001E070
0003E0E0
0003E1C0
03F3E380
0FFBC000
1FFFC000
1FFFC000
3F1FC000
7E0FC000
7C0F8000
F80F8000
F80F8000
F80F8000
F81F8000
F81F0000
F83F0000
FC7F0000
FFFF0000
7FFE0000
3FDE0000
1F1E0000
ENDCHAR
STARTCHAR Dcroat
ENCODING 272
SWIDTH 722 0
DWIDTH 23 0
BBX 24 25 2 0
BITMAP
03FFF0
03FFFC
03FFFE
07FFFE
07C1FF
07C03F
07C03F
07C01F
0FC01F
0F801F
0F801F
7FF81F
FFF81F
FFF03E
1F003E
1F003E
1F007C
1F007C
3E00F8
3E01F8
3E07F0
3FFFE0
7FFFC0
7FFF80
7FFE00
ENDCHAR
STARTCHAR dcroat
ENCODING 273
SWIDTH 611 0
DWIDTH 20 0
BBX 20 25 3 0
BITMAP
0000F0
0000F0
0001F0
0001E0
0001E0
003FF0
003FF0
03F3E0
0FFBC0
1FFFC0
1FFFC0
3F1FC0
7E0FC0
7C0F80
F80F80
F80F80
F80F80
F81F80
F81F00
F83F00
FC7F00
FFFF00
7FFE00
3FDE00
1F1E00
ENDCHAR
STARTCHAR Emacron
ENCODING 274
SWIDTH 667 0
DWIDTH 22 0
BBX 23 29 3 0
BITMAP
01FF80
01FF80
01FF80
000000
07FFFE
07FFFE
07FFFC
0FFFFC
0F8000
0F8000
0F8000
0F8000
1F0000
1F0000
1FFFF0
1FFFF0
1FFFE0
3FFFE0
3E0000
3E0000
3E0000
3E0000
7C0000
7C0000
7C0000
7FFFE0
FFFFE0
FFFFC0
FFFFC0
ENDCHAR
STARTCHAR emacron
ENCODING 275
SWIDTH 556 0
DWIDTH 18 0
BBX 17 22 3 0
BITMAP
0FFC00
0FFC00
0FFC00
000000
01F800
07FE00
1FFF00
1F9F00
3E0F80
7C0780
780780
FFFF80
FFFF80
FFFF80
F00000
F80000
F80F00
7C1F00
7FFE00
3FFC00
1FF800
07E000
ENDCHAR
STARTCHAR Ebreve
ENCODING 276
SWIDTH 667 0
DWIDTH 22 0
BBX 23 31 3 0
BITMAP
008080
00C180
00FF00
007E00
003C00
000000
07FFFE
07FFFE
07FFFC
0FFFFC
0F8000
0F8000
0F8000
0F8000
1F0000
1F0000
1FFFF0
1FFFF0
1FFFE0
3FFFE0
3E0000
3E0000
3E0000
3E0000
7C0000
7C0000
7C0000
7FFFE0
FFFFE0
FFFFC0
FFFFC0
ENDCHAR
STARTCHAR ebreve
ENCODING 277
SWIDTH 556 0
DWIDTH 18 0
BBX 17 24 3 0
BITMAP
040400
060C00
07F800
03F000
01E000
000000
01F800
07FE00
1FFF00
1F9F00
3E0F80
7C0780
780780
FFFF80
FFFF80
FFFF80
F00000
F80000
F80F00
7C1F00
7FFE00
3FFC00
1FF800
07E000
ENDCHAR
STARTCHAR Edotaccent
ENCODING 278
SWIDTH 667 0
DWIDTH 22 0
BBX 23 30 3 0
BITMAP
003C00
003C00
003C00
003C00
000000
07FFFE
07FFFE
07FFFC
0FFFFC
0F8000
0F8000
0F8000
0F8000
1F0000
1F0000
1FFFF0
1FFFF0
1FFFE0
3FFFE0
3E0000
3E0000
3E0000
3E0000
7C0000
7C0000
7C0000
7FFFE0
FFFFE0
FFFFC0
FFFFC0
ENDCHAR
STARTCHAR edotaccent
ENCODING 279
SWIDTH 556 0
DWIDTH 18 0
BBX 17 23 3 0
BITMAP
01E000
01E000
01E000
01E000
000000
01F800
07FE00
1FFF00
1F9F00
3E0F80
7C0780
780780
FFFF80
FFFF80
FFFF80
F00000
F80000
F80F00
7C1F00
7FFE00
3FFC00
1FF800
07E000
ENDCHAR
STARTCHAR Eogonek
ENCODING 280
SWIDTH 667 0
DWIDTH 22 0
BBX 23 32 3 -7
BITMAP
07FFFE
07FFFE
07FFFC
0FFFFC
0F8000
0F8000
0F8000
0F8000
1F0000
1F0000
1FFFF0
1FFFF0
1FFFE0
3FFFE0
3E0000
3E0000
3E0000
3E0000
7C0000
7C0000
7C0000
7FFFE0
FFFFE0
FFFFC0
FFFFC0
01C000
01C000
01C000
03C000
03FC00
01F800
00F000
ENDCHAR
STARTCHAR eogonek
ENCODING 281
SWIDTH 556 0
DWIDTH 18 0
BBX 17 25 3 -7
BITMAP
01F800
07FE00
1FFF00
1F9F00
3E0F80
7C0780
780780
FFFF80
FFFF80
FFFF80
F00000
F80000
F80F00
7C1F00
7FFE00
3FFC00
1FF800
07E000
038000
038000
038000
078000
07F800
03F000
01E000
ENDCHAR
STARTCHAR Ecaron
ENCODING 282
SWIDTH 667 0
DWIDTH 22 0
BBX 23 31 3 0
BITMAP
01C380
00E700
00EE00
007C00
007C00
000000
07FFFE
07FFFE
07FFFC
0FFFFC
0F8000
0F8000
0F8000
0F8000
1F0000
1F0000
1FFFF0
1FFFF0
1FFFE0
3FFFE0
3E0000
3E0000
3E0000
3E0000
7C0000
7C0000
7C0000
7FFFE0
FFFFE0
FFFFC0
FFFFC0
ENDCHAR
STARTCHAR ecaron
ENCODING 283
SWIDTH 556 0
DWIDTH 18 0
BBX 17 24 3 0
BITMAP
070E00
039C00
03B800
01F000
01F000
000000
01F800
07FE00
1FFF00
1F9F00
3E0F80
7C0780
780780
FFFF80
FFFF80
FFFF80
F00000
F80000
F80F00
7C1F00
7FFE00
3FFC00
1FF800
07E000
ENDCHAR
STARTCHAR Gcircumflex
ENCODING 284
SWIDTH 778 0
DWIDTH 25 0
BBX 25 31 3 0
BITMAP
00078000
000FC000
001DC000
0038E000
00306000
00000000
001FF000
007FFC00
01FFFE00
03FFFF00
07F87F00
0FC01F80
1F801F80
1F000F80
3E000000
3E000000
7E000000
7C000000
7C03FF00
7C07FF00
F807FE00
F807FE00
FC003E00
FC003E00
7C007E00
7E00FC00
7F83FC00
3FFFFC00
1FFFBC00
0FFF3800
03F80000
ENDCHAR
STARTCHAR gcircumflex
ENCODING 285
SWIDTH 611 0
DWIDTH 20 0
BBX 21 31 1 -7
BITMAP
003C00
007E00
00EE00
01C700
018300
000000
00FC78
01FE78
07FF78
0FFFF0
0FC7F0
1F03F0
1E01F0
3E01E0
3C01E0
3C03E0
3C03E0
3C03E0
3C07C0
3E1FC0
3FFFC0
1FFFC0
1FF7C0
07C780
000F80
F00F80
F01F00
F87F00
7FFE00
7FF800
1FE000
ENDCHAR
STARTCHAR Gbreve
ENCODING 286
SWIDTH 778 0
DWIDTH 25 0
BBX 25 31 3 0
BITMAP
00202000
00306000
003FC000
001F8000
000F0000
00000000
001FF000
007FFC00
01FFFE00
03FFFF00
07F87F00
0FC01F80
1F801F80
1F000F80
3E000000
3E000000
7E000000
7C000000
7C03FF00
7C07FF00
F807FE00
F807FE00
FC003E00
FC003E00
7C007E00
7E00FC00
7F83FC00
3FFFFC00
1FFFBC00
0FFF3800
03F80000
ENDCHAR
STARTCHAR gbreve
ENCODING 287
SWIDTH 611 0
DWIDTH 20 0
BBX 21 31 1 -7
BITMAP
008080
00C180
00FF00
007E00
003C00
000000
00FC78
01FE78
07FF78
0FFFF0
0FC7F0
1F03F0
1E01F0
3E01E0
3C01E0
3C03E0
3C03E0
3C03E0
3C07C0
3E1FC0
3FFFC0
1FFFC0
1FF7C0
07C780
000F80
F00F80
F01F00
F87F00
7FFE00
7FF800
1FE000
ENDCHAR
STARTCHAR Gdotaccent
ENCODING 288
SWIDTH 778 0
DWIDTH 25 0
BBX 25 30 3 0
BITMAP
000F0000
000F0000
000F0000
000F0000
00000000
001FF000
007FFC00
01FFFE00
03FFFF00
07F87F00
0FC01F80
1F801F80
1F000F80
3E000000
3E000000
7E000000
7C000000
7C03FF00
7C07FF00
F807FE00
F807FE00
FC003E00
FC003E00
7C007E00
7E00FC00
7F83FC00
3FFFFC00
1FFFBC00
0FFF3800
03F80000
ENDCHAR
STARTCHAR gdotaccent
ENCODING 289
SWIDTH 611 0
DWIDTH 20 0
BBX 21 30 1 -7
BITMAP
003C00
003C00
003C00
003C00
000000
00FC78
01FE78
07FF78
0FFFF0
0FC7F0
1F03F0
1E01F0
3E01E0
3C01E0
3C03E0
3C03E0
3C03E0
3C07C0
3E1FC0
3FFFC0
1FFFC0
1FF7C0
07C780
000F80
F00F80
F01F00
F87F00
7FFE00
7FF800
1FE000
ENDCHAR
STARTCHAR Gcommaaccent
ENCODING 290
SWIDTH 778 0
DWIDTH 25 0
BBX 25 37 3 -12
BITMAP
001FF000
007FFC00
01FFFE00
03FFFF00
07F87F00
0FC01F80
1F801F80
1F000F80
3E000000
3E000000
7E000000
7C000000
7C03FF00
7C07FF00
F807FE00
F807FE00
FC003E00
FC003E00
7C007E00
7E00FC00
7F83FC00
3FFFFC00
1FFFBC00
0FFF3800
03F80000
00000000
001E0000
001E0000
003E0000
003E0000
003C0000
000C0000
001C0000
00380000
00700000
00E00000
00800000
ENDCHAR
STARTCHAR gcommaaccent
ENCODING 291
SWIDTH 611 0
DWIDTH 20 0
BBX 21 34 1 -7
BITMAP
000E00
001C00
003800
007000
007C00
007C00
007C00
007C00
000000
00FC78
01FE78
07FF78
0FFFF0
0FC7F0
1F03F0
1E01F0
3E01E0
3C01E0
3C03E0
3C03E0
3C03E0
3C07C0
3E1FC0
3FFFC0
1FFFC0
1FF7C0
07C780
000F80
F00F80
F01F00
F87F00
7FFE00
7FF800
1FE000
ENDCHAR
STARTCHAR Hcircumflex
ENCODING 292
SWIDTH 722 0
DWIDTH 24 0
BBX 25 31 2 0
BITMAP
000F0000
001F8000
003B8000
0071C000
0060C000
00000000
07E00F80
07C00F80
07C00F80
07C01F80
07C01F00
0FC01F00
0F801F00
0F801F00
0F803F00
0F803E00
1FFFFE00
1FFFFE00
1FFFFE00
1FFFFE00
1F007C00
3E007C00
3E007C00
3E007C00
3E00F800
7E00F800
7C00F800
7C00F800
7C01F800
7C01F000
FC01F000
ENDCHAR
STARTCHAR hcircumflex
ENCODING 293
SWIDTH 611 0
DWIDTH 20 0
BBX 19 31 2 0
BITMAP
03C000
07E000
0EE000
1C7000
183000
000000
07C000
07C000
078000
078000
0F8000
0F8000
0F0000
0F3F80
0F7FC0
1FFFE0
1FFFE0
1FC7E0
1F03E0
1F03C0
3E07C0
3E07C0
3E07C0
3C07C0
7C0F80
7C0F80
7C0F80
7C0F80
780F00
F81F00
F81F00
ENDCHAR
STARTCHAR Hbar
ENCODING 294
SWIDTH 722 0
DWIDTH 24 0
BBX 25 25 2 0
BITMAP
07E00F80
07C00F80
07C00F80
07C01F80
07C01F00
0FC01F00
FFFFFF80
FFFFFF80
0F803F00
0F803E00
1FFFFE00
1FFFFE00
1FFFFE00
1FFFFE00
1F007C00
3E007C00
3E007C00
3E007C00
3E00F800
7E00F800
7C00F800
7C00F800
7C01F800
7C01F000
FC01F000
ENDCHAR
STARTCHAR hbar
ENCODING 295
SWIDTH 611 0
DWIDTH 20 0
BBX 19 25 2 0
BITMAP
07C000
07C000
078000
078000
0F8000
FFC000
FFC000
0F3F80
0F7FC0
1FFFE0
1FFFE0
1FC7E0
1F03E0
1F03C0
3E07C0
3E07C0
3E07C0
3C07C0
7C0F80
7C0F80
7C0F80
7C0F80
780F00
F81F00
F81F00
ENDCHAR
STARTCHAR Itilde
ENCODING 296
SWIDTH 278 0
DWIDTH 9 0
BBX 13 31 2 0
BITMAP
0E08
1F18
3FF0
63E0
41C0
0000
07C0
07C0
07C0
0FC0
0F80
0F80
0F80
0F80
1F80
1F00
1F00
1F00
1F00
3F00
3E00
3E00
3E00
3E00
7C00
7C00
7C00
7C00
FC00
F800
F800
ENDCHAR
STARTCHAR itilde
ENCODING 297
SWIDTH 278 0
DWIDTH 9 0
BBX 12 24 2 0
BITMAP
1C10
3E30
7FE0
C7C0
8380
0000
0F80
0F00
1F00
1F00
1F00
1F00
1E00
3E00
3E00
3E00
3E00
7C00
7C00
7C00
7C00
7800
F800
F800
ENDCHAR
STARTCHAR Imacron
ENCODING 298
SWIDTH 278 0
DWIDTH 9 0
BBX 11 29 2 0
BITMAP
7FE0
7FE0
7FE0
0000
07C0
07C0
07C0
0FC0
0F80
0F80
0F80
0F80
1F80
1F00
1F00
1F00
1F00
3F00
3E00
3E00
3E00
3E00
7C00
7C00
7C00
7C00
FC00
F800
F800
ENDCHAR
STARTCHAR imacron
ENCODING 299
SWIDTH 278 0
DWIDTH 9 0
BBX 10 22 2 0
BITMAP
FFC0
FFC0
FFC0
0000
0F80
0F00
1F00
1F00
1F00
1F00
1E00
3E00
3E00
3E00
3E00
7C00
7C00
7C00
7C00
7800
F800
F800
ENDCHAR
STARTCHAR Ibreve
ENCODING 300
SWIDTH 278 0
DWIDTH 9 0
BBX 11 31 2 0
BITMAP
2020
3060
3FC0
1F80
0F00
0000
07C0
07C0
07C0
0FC0
0F80
0F80
0F80
0F80
1F80
1F00
1F00
1F00
1F00
3F00
3E00
3E00
3E00
3E00
7C00
7C00
7C00
7C00
FC00
F800
F800
ENDCHAR
STARTCHAR ibreve
ENCODING 301
SWIDTH 278 0
DWIDTH 9 0
BBX 10 24 2 0
BITMAP
4040
60C0
7F80
3F00
1E00
0000
0F80
0F00
1F00
1F00
1F00
1F00
1E00
3E00
3E00
3E00
3E00
7C00
7C00
7C00
7C00
7800
F800
F800
ENDCHAR
STARTCHAR Iogonek
ENCODING 302
SWIDTH 278 0
DWIDTH 9 0
BBX 10 32 2 -7
BITMAP
07C0
07C0
07C0
0FC0
0F80
0F80
0F80
0F80
1F80
1F00
1F00
1F00
1F00
3F00
3E00
3E00
3E00
3E00
7C00
7C00
7C00
7C00
FC00
F800
FC00
3800
3800
3800
7800
7F80
3F00
1E00
ENDCHAR
STARTCHAR iogonek
ENCODING 303
SWIDTH 278 0
DWIDTH 9 0
BBX 10 32 2 -7
BITMAP
03C0
07C0
07C0
0780
0000
0000
0000
0F80
0F80
1F00
1F00
1F00
1F00
1F00
3E00
3E00
3E00
3E00
7C00
7C00
7C00
7C00
F800
F800
F800
7000
7000
7000
F000
FF00
7E00
3C00
ENDCHAR
STARTCHAR Idotaccent
ENCODING 304
SWIDTH 278 0
DWIDTH 9 0
BBX 10 30 2 0
BITMAP
0F00
0F00
0F00
0F00
0000
07C0
07C0
07C0
0FC0
0F80
0F80
0F80
0F80
1F80
1F00
1F00
1F00
1F00
3F00
3E00
3E00
3E00
3E00
7C00
7C00
7C00
7C00
FC00
F800
F800
ENDCHAR
STARTCHAR dotlessi
ENCODING 305
SWIDTH 278 0
DWIDTH 9 0
BBX 9 18 2 0
BITMAP
0F80
0F00
1F00
1F00
1F00
1F00
1E00
3E00
3E00
3E00
3E00
7C00
7C00
7C00
7C00
7800
F800
F800
ENDCHAR
STARTCHAR IJ
ENCODING 306
SWIDTH 820 0
DWIDTH 27 0
BBX 28 25 2 0
BITMAP
07C001F0
07C001F0
07C001F0
0FC001F0
0F8003E0
0F8003E0
0F8003E0
0F8003E0
1F8003E0
1F0007C0
1F0007C0
1F0007C0
1F0007C0
3F000FC0
3E000F80
3E3E0F80
3E3E0F80
3E3E0F80
7C7C1F00
7C7C1F00
7C7E3F00
7C7FFE00
FC3FFC00
F81FF800
F80FE000
ENDCHAR
STARTCHAR ij
ENCODING 307
SWIDTH 542 0
DWIDTH 18 0
BBX 19 32 2 -7
BITMAP
03C1E0
07C3E0
07C3E0
0783C0
000000
000000
000000
0F87C0
0F87C0
1F0F80
1F0F80
1F0F80
1F0F80
1F0F80
3E1F00
3E1F00
3E1F00
3E1F00
7C3E00
7C3E00
7C3E00
7C3E00
F83E00
F87C00
F87C00
007C00
007C00
00F800
01F800
03F800
03F000
03E000
ENDCHAR
STARTCHAR Jcircumflex
ENCODING 308
SWIDTH 556 0
DWIDTH 18 0
BBX 19 31 2 0
BITMAP
000F00
001F80
003B80
0071C0
0060C0
000000
0003E0
0003E0
0003E0
0003E0
0007C0
0007C0
0007C0
0007C0
0007C0
000F80
000F80
000F80
000F80
001F80
001F00
7C1F00
7C1F00
7C1F00
F83E00
F83E00
FC7E00
FFFC00
7FF800
3FF000
1FC000
ENDCHAR
STARTCHAR jcircumflex
ENCODING 309
SWIDTH 278 0
DWIDTH 9 0
BBX 13 31 -1 -7
BITMAP
01E0
03F0
0770
0E38
0C18
0000
01F0
01F0
03E0
03E0
03E0
03E0
03E0
07C0
07C0
07C0
07C0
0F80
0F80
0F80
0F80
0F80
1F00
1F00
1F00
1F00
3E00
7E00
FE00
FC00
F800
ENDCHAR
STARTCHAR Kcommaaccent
ENCODING 310
SWIDTH 722 0
DWIDTH 24 0
BBX 25 37 2 -12
BITMAP
07C01F80
07C03F00
07C07E00
0FC0FC00
0F81F800
0F83F000
0F87E000
0F8FC000
1FBF8000
1F7E0000
1FFC0000
1FF80000
1FFC0000
3FFE0000
3FBE0000
3E3F0000
3E1F0000
3E1F8000
7C0F8000
7C0FC000
7C07E000
7C07E000
FC03F000
F803F000
F801F800
00000000
003C0000
003C0000
007C0000
007C0000
00780000
00180000
00380000
00700000
00E00000
01C00000
01000000
ENDCHAR
STARTCHAR kcommaaccent
ENCODING 311
SWIDTH 556 0
DWIDTH 18 0
BBX 19 37 2 -12
BITMAP
07C000
07C000
07C000
078000
0F8000
0F8000
0F8000
0F87E0
0F0FC0
1F1F80
1F3F00
1F7E00
1FFC00
1FF800
3FF000
3FF000
3FF800
3FF800
7E7C00
7C7C00
7C3E00
7C3E00
F83E00
F81F00
F81F00
000000
01E000
01E000
03E000
03E000
03C000
00C000
01C000
038000
070000
0E0000
080000
ENDCHAR
STARTCHAR kgreenlandic
ENCODING 312
SWIDTH 556 0
DWIDTH 18 0
BBX 19 18 2 0
BITMAP
0F87E0
0F0FC0
1F1F80
1F3F00
1F7E00
1FFC00
1FF800
3FF000
3FF000
3FF800
3FF800
7E7C00
7C7C00
7C3E00
7C3E00
F83E00
F81F00
F81F00
ENDCHAR
STARTCHAR Lacute
ENCODING 313
SWIDTH 611 0
DWIDTH 20 0
BBX 17 31 3 0
BITMAP
00F000
01E000
01C000
038000
070000
000000
07C000
07C000
07C000
0FC000
0F8000
0F8000
0F8000
0F8000
1F8000
1F0000
1F0000
1F0000
1F0000
3F0000
3E0000
3E0000
3E0000
3E0000
7C0000
7C0000
7C0000
7FFF80
FFFF80
FFFF00
FFFF00
ENDCHAR
STARTCHAR lacute
ENCODING 314
SWIDTH 278 0
DWIDTH 9 0
BBX 11 31 2 0
BITMAP
01E0
03C0
0380
0700
0E00
0000
07C0
07C0
07C0
0F80
0F80
0F80
0F80
1F00
1F00
1F00
1F00
1F00
3F00
3E00
3E00
3E00
3E00
3E00
7C00
7C00
7C00
7C00
F800
F800
F800
ENDCHAR
STARTCHAR Lcommaaccent
ENCODING 315
SWIDTH 611 0
DWIDTH 20 0
BBX 17 37 3 -12
BITMAP
07C000
07C000
07C000
0FC000
0F8000
0F8000
0F8000
0F8000
1F8000
1F0000
1F0000
1F0000
1F0000
3F0000
3E0000
3E0000
3E0000
3E0000
7C0000
7C0000
7C0000
7FFF80
FFFF80
FFFF00
FFFF00
000000
03C000
03C000
07C000
07C000
078000
018000
038000
070000
0E0000
1C0000
100000
ENDCHAR
STARTCHAR lcommaaccent
ENCODING 316
SWIDTH 278 0
DWIDTH 9 0
BBX 11 37 1 -12
BITMAP
03E0
03E0
03E0
07C0
07C0
07C0
07C0
0F80
0F80
0F80
0F80
0F80
1F80
1F00
1F00
1F00
1F00
1F00
3E00
3E00
3E00
3E00
7C00
7C00
7C00
0000
1E00
1E00
3E00
3E00
3C00
0C00
1C00
3800
7000
E000
8000
ENDCHAR
STARTCHAR Lcaron
ENCODING 317
SWIDTH 858 0
DWIDTH 28 0
BBX 28 25 3 0
BITMAP
07C001F0
07C001F0
07C001F0
0FC001F0
0F800070
0F8000E0
0F8001C0
0F800380
1F800000
1F000000
1F000000
1F000000
1F000000
3F000000
3E000000
3E000000
3E000000
3E000000
7C000000
7C000000
7C000000
7FFF8000
FFFF8000
FFFF0000
FFFF0000
ENDCHAR
STARTCHAR lcaron
ENCODING 318
SWIDTH 542 0
DWIDTH 18 0
BBX 19 25 2 0
BITMAP
07C3E0
07C3E0
07C3E0
0F83E0
0F80E0
0F81C0
0F8380
1F0700
1F0000
1F0000
1F0000
1F0000
3F0000
3E0000
3E0000
3E0000
3E0000
3E0000
7C0000
7C0000
7C0000
7C0000
F80000
F80000
F80000
ENDCHAR
STARTCHAR Ldot
ENCODING 319
SWIDTH 858 0
DWIDTH 28 0
BBX 25 25 3 0
BITMAP
07C00000
07C00000
07C00000
0FC00000
0F800000
0F800000
0F800000
0F800000
1F800000
1F000000
1F000380
1F000780
1F000780
3F000700
3E000000
3E000000
3E000000
3E000000
7C000000
7C000000
7C000000
7FFF8000
FFFF8000
FFFF0000
FFFF0000
ENDCHAR
STARTCHAR ldot
ENCODING 320
SWIDTH 542 0
DWIDTH 18 0
BBX 16 25 2 0
BITMAP
07C0
07C0
07C0
0F80
0F80
0F80
0F80
1F00
1F00
1F00
1F07
1F0F
3F0F
3E0E
3E00
3E00
3E00
3E00
7C00
7C00
7C00
7C00
F800
F800
F800
ENDCHAR
STARTCHAR Lslash
ENCODING 321
SWIDTH 611 0
DWIDTH 20 0
BBX 19 25 2 0
BITMAP
03E000
03E000
03E000
07E000
07C000
07C000
07C000
07C800
0FF800
0FF800
0FE000
0F8000
3F8000
7F8000
FF0000
DF0000
1F0000
1F0000
3E0000
3E0000
3E0000
3FFFE0
7FFFE0
7FFFC0
7FFFC0
ENDCHAR
STARTCHAR lslash
ENCODING 322
SWIDTH 278 0
DWIDTH 9 0
BBX 10 25 2 0
BITMAP
0780
0780
0780
0F80
0F80
0F00
0F40
1FC0
1FC0
1F80
1E00
1E00
3E00
7E00
FC00
BC00
3C00
7C00
7C00
7800
7800
F800
F800
F800
F000
ENDCHAR
STARTCHAR Nacute
ENCODING 323
SWIDTH 722 0
DWIDTH 24 0
BBX 25 31 2 0
BITMAP
0003C000
00078000
00070000
000E0000
001C0000
00000000
07E00F80
07E00F80
07E00F80
0FF01F80
0FF01F00
0FF01F00
0FF81F00
0FF81F00
1FFC3F00
1F7C3E00
1F3C3E00
1F3E3E00
1F3E3E00
3F1E7E00
3E1F7C00
3E1F7C00
3E0F7C00
3E0FFC00
7E07F800
7C07F800
7C07F800
7C03F800
FC03F800
F803F000
F801F000
ENDCHAR
STARTCHAR nacute
ENCODING 324
SWIDTH 611 0
DWIDTH 20 0
BBX 19 24 2 0
BITMAP
001E00
003C00
003800
007000
00E000
000000
0F1F00
0F7FC0
1FFFC0
1FFFC0
1F87E0
1F03E0
1E03E0
3E07E0
3E07C0
3E07C0
3C07C0
7C0780
7C0F80
7C0F80
7C0F80
780F00
F81F00
F81F00
ENDCHAR
STARTCHAR Ncommaaccent
ENCODING 325
SWIDTH 722 0
DWIDTH 24 0
BBX 25 37 2 -12
BITMAP
07E00F80
07E00F80
07E00F80
0FF01F80
0FF01F00
0FF01F00
0FF81F00
0FF81F00
1FFC3F00
1F7C3E00
1F3C3E00
1F3E3E00
1F3E3E00
3F1E7E00
3E1F7C00
3E1F7C00
3E0F7C00
3E0FFC00
7E07F800
7C07F800
7C07F800
7C03F800
FC03F800
F803F000
F801F000
00000000
003C0000
003C0000
007C0000
007C0000
00780000
00180000
00380000
00700000
00E00000
01C00000
01000000
ENDCHAR
STARTCHAR ncommaaccent
ENCODING 326
SWIDTH 611 0
DWIDTH 20 0
BBX 19 30 2 -12
BITMAP
0F1F00
0F7FC0
1FFFC0
1FFFC0
1F87E0
1F03E0
1E03E0
3E07E0
3E07C0
3E07C0
3C07C0
7C0780
7C0F80
7C0F80
7C0F80
780F00
F81F00
F81F00
000000
01E000
01E000
03E000
03E000
03C000
00C000
01C000
038000
070000
0E0000
080000
ENDCHAR
STARTCHAR Ncaron
ENCODING 327
SWIDTH 722 0
DWIDTH 24 0
BBX 25 31 2 0
BITMAP
0070E000
0039C000
003B8000
001F0000
001F0000
00000000
07E00F80
07E00F80
07E00F80
0FF01F80
0FF01F00
0FF01F00
0FF81F00
0FF81F00
1FFC3F00
1F7C3E00
1F3C3E00
1F3E3E00
1F3E3E00
3F1E7E00
3E1F7C00
3E1F7C00
3E0F7C00
3E0FFC00
7E07F800
7C07F800
7C07F800
7C03F800
FC03F800
F803F000
F801F000
ENDCHAR
STARTCHAR ncaron
ENCODING 328
SWIDTH 611 0
DWIDTH 20 0
BBX 19 24 2 0
BITMAP
038700
01CE00
01DC00
00F800
00F800
000000
0F1F00
0F7FC0
1FFFC0
1FFFC0
1F87E0
1F03E0
1E03E0
3E07E0
3E07C0
3E07C0
3C07C0
7C0780
7C0F80
7C0F80
7C0F80
780F00
F81F00
F81F00
ENDCHAR
STARTCHAR napostrophe
ENCODING 329
SWIDTH 875 0
DWIDTH 29 0
BBX 24 25 6 0
BITMAP
7C0000
7C0000
7C0000
7C0000
1C0000
380000
700000
E078F8
007BFE
00FFFE
00FFFE
00FC3F
00F81F
00F01F
01F03F
01F03E
01F03E
01E03E
03E03C
03E07C
03E07C
03E07C
03C078
07C0F8
07C0F8
ENDCHAR
STARTCHAR Eng
ENCODING 330
SWIDTH 722 0
DWIDTH 24 0
BBX 25 32 2 -7
BITMAP
07E00F80
07E00F80
07E00F80
0FF01F80
0FF01F00
0FF01F00
0FF81F00
0FF81F00
1FFC3F00
1F7C3E00
1F3C3E00
1F3E3E00
1F3E3E00
3F1E7E00
3E1F7C00
3E1F7C00
3E0F7C00
3E0FFC00
7E07F800
7C07F800
7C07F800
7C03F800
FC03F800
F803F000
F801F000
0001F000
0001F000
0003E000
0007E000
000FE000
000FC000
000F8000
ENDCHAR
STARTCHAR eng
ENCODING 331
SWIDTH 611 0
DWIDTH 20 0
BBX 19 25 2 -7
BITMAP
0F1F00
0F7FC0
1FFFC0
1FFFC0
1F87E0
1F03E0
1E03E0
3E07E0
3E07C0
3E07C0
3C07C0
7C0F80
7C0F80
7C0F80
7C0F80
780F80
F81F00
F81F00
001F00
001F00
003E00
007E00
00FE00
00FC00
00F800
ENDCHAR
STARTCHAR Omacron
ENCODING 332
SWIDTH 778 0
DWIDTH 25 0
BBX 25 29 3 0
BITMAP
007FE000
007FE000
007FE000
00000000
001FE000
00FFFC00
01FFFE00
03FFFE00
07F0FF00
0FC03F00
1F801F80
1F001F80
3E000F80
3E000F80
7C000F80
7C000F80
78000F80
F8001F00
F8001F00
F8003F00
F8003E00
FC007E00
FC00FC00
7E01F800
7F87F800
3FFFF000
1FFFE000
0FFF8000
03FE0000
ENDCHAR
STARTCHAR omacron
ENCODING 333
SWIDTH 611 0
DWIDTH 20 0
BBX 18 22 3 0
BITMAP
07FE00
07FE00
07FE00
000000
01FC00
07FF00
0FFF80
1FFFC0
3F0FC0
7E07C0
7C07C0
7C07C0
F807C0
F807C0
F80F80
F80F80
F81F80
FC3F00
7FFE00
7FFC00
3FF800
0FE000
ENDCHAR
STARTCHAR Obreve
ENCODING 334
SWIDTH 778 0
DWIDTH 25 0
BBX 25 31 3 0
BITMAP
00202000
00306000
003FC000
001F8000
000F0000
00000000
001FE000
00FFFC00
01FFFE00
03FFFE00
07F0FF00
0FC03F00
1F801F80
1F001F80
3E000F80
3E000F80
7C000F80
7C000F80
78000F80
F8001F00
F8001F00
F8003F00
F8003E00
FC007E00
FC00FC00
7E01F800
7F87F800
3FFFF000
1FFFE000
0FFF8000
03FE0000
ENDCHAR
STARTCHAR obreve
ENCODING 335
SWIDTH 611 0
DWIDTH 20 0
BBX 18 24 3 0
BITMAP
020200
030600
03FC00
01F800
00F000
000000
01FC00
07FF00
0FFF80
1FFFC0
3F0FC0
7E07C0
7C07C0
7C07C0
F807C0
F807C0
F80F80
F80F80
F81F80
FC3F00
7FFE00
7FFC00
3FF800
0FE000
ENDCHAR
STARTCHAR Ohungarumlaut
ENCODING 336
SWIDTH 778 0
DWIDTH 25 0
BBX 25 31 3 0
BITMAP
001E7800
003CF000
0038E000
0071C000
00618000
00000000
001FE000
00FFFC00
01FFFE00
03FFFE00
07F0FF00
0FC03F00
1F801F80
1F001F80
3E000F80
3E000F80
7C000F80
7C000F80
78000F80
F8001F00
F8001F00
F8003F00
F8003E00
FC007E00
FC00FC00
7E01F800
7F87F800
3FFFF000
1FFFE000
0FFF8000
03FE0000
ENDCHAR
STARTCHAR ohungarumlaut
ENCODING 337
SWIDTH 611 0
DWIDTH 20 0
BBX 18 24 3 0
BITMAP
01E780
03CF00
038E00
071C00
061800
000000
01FC00
07FF00
0FFF80
1FFFC0
3F0FC0
7E07C0
7C07C0
7C07C0
F807C0
F807C0
F80F80
F80F80
F81F80
FC3F00
7FFE00
7FFC00
3FF800
0FE000
ENDCHAR
STARTCHAR OE
ENCODING 338
SWIDTH 1000 0
DWIDTH 32 0
BBX 34 25 3 0
BITMAP
003FBFFFC0
00FFFFFFC0
03FFFFFFC0
07FFFFFFC0
0FF1FFFF80
0FC0FC0000
1F807C0000
1F007C0000
3E00FC0000
3E00F80000
7E00F80000
7C00FFFE00
7C00FFFE00
FC01FFFE00
F801FFFC00
F801F00000
F801F00000
F803F00000
FC03E00000
FC07E00000
7F0FFFFC00
7FFFFFFC00
3FFFFFFC00
1FFBFFFC00
07E3FFFC00
ENDCHAR
STARTCHAR oe
ENCODING 339
SWIDTH 944 0
DWIDTH 31 0
BBX 30 19 3 0
BITMAP
01F80FC0
07FE3FE0
0FFFFFF0
1FFFFFF8
3F3FF0F8
7E1FE07C
7C0FC07C
F80FC07C
F80FFFFC
F00FFFF8
F00FFFF8
F01F8000
F01F8000
F03F81F0
F87FC3F0
FFFFFFE0
7FFFFFC0
3FF3FF00
0F80FC00
ENDCHAR
STARTCHAR Racute
ENCODING 340
SWIDTH 722 0
DWIDTH 24 0
BBX 23 31 3 0
BITMAP
000780
000F00
000E00
001C00
003800
000000
07FFF8
07FFFC
07FFFE
0FFFFE
0F807E
0F803E
0F803E
0F803E
1F007C
1F007C
1F01F8
1FFFF0
1FFFE0
3FFFE0
3FFFF0
3E03F0
3E01F0
3E01F0
7C01F0
7C03E0
7C03E0
7C03E0
F803E0
F803E0
F803E0
ENDCHAR
STARTCHAR racute
ENCODING 341
SWIDTH 389 0
DWIDTH 13 0
BBX 14 24 2 0
BITMAP
00F0
01E0
01C0
0380
0700
0000
0F0C
0F3C
1F7C
1FFC
1FF8
1F80
1F00
3E00
3E00
3E00
3E00
7C00
7C00
7C00
7C00
7800
F800
F800
ENDCHAR
STARTCHAR Rcommaaccent
ENCODING 342
SWIDTH 722 0
DWIDTH 24 0
BBX 23 37 3 -12
BITMAP
07FFF8
07FFFC
07FFFE
0FFFFE
0F807E
0F803E
0F803E
0F803E
1F007C
1F007C
1F01F8
1FFFF0
1FFFE0
3FFFE0
3FFFF0
3E03F0
3E01F0
3E01F0
7C01F0
7C03E0
7C03E0
7C03E0
F803E0
F803E0
F803E0
000000
007800
007800
00F800
00F800
00F000
003000
007000
00E000
01C000
038000
020000
ENDCHAR
STARTCHAR rcommaaccent
ENCODING 343
SWIDTH 389 0
DWIDTH 13 0
BBX 14 30 2 -12
BITMAP
0F0C
0F3C
1F7C
1FFC
1FF8
1F80
1F00
3E00
3E00
3E00
3E00
7C00
7C00
7C00
7C00
7800
F800
F800
0000
1E00
1E00
3E00
3E00
3C00
0C00
1C00
3800
7000
E000
8000
ENDCHAR
STARTCHAR Rcaron
ENCODING 344
SWIDTH 722 0
DWIDTH 24 0
BBX 23 31 3 0
BITMAP
00E1C0
007380
007700
003E00
003E00
000000
07FFF8
07FFFC
07FFFE
0FFFFE
0F807E
0F803E
0F803E
0F803E
1F007C
1F007C
1F01F8
1FFFF0
1FFFE0
3FFFE0
3FFFF0
3E03F0
3E01F0
3E01F0
7C01F0
7C03E0
7C03E0
7C03E0
F803E0
F803E0
F803E0
ENDCHAR
STARTCHAR rcaron
ENCODING 345
SWIDTH 389 0
DWIDTH 13 0
BBX 14 24 2 0
BITMAP
1C38
0E70
0EE0
07C0
07C0
0000
0F0C
0F3C
1F7C
1FFC
1FF8
1F80
1F00
3E00
3E00
3E00
3E00
7C00
7C00
7C00
7C00
7800
F800
F800
ENDCHAR
STARTCHAR Sacute
ENCODING 346
SWIDTH 667 0
DWIDTH 22 0
BBX 22 31 2 0
BITMAP
000780
000F00
000E00
001C00
003800
000000
003FC0
01FFF0
03FFF8
07FFFC
0FC1FC
0F807C
1F007C
1F007C
1F0000
1FC000
1FFE00
0FFFC0
07FFF0
00FFF0
000FF8
0001F8
0000F8
F800F0
F801F0
FC01F0
7E07E0
7FFFC0
3FFFC0
1FFF00
07F800
ENDCHAR
STARTCHAR sacute
ENCODING 347
SWIDTH 556 0
DWIDTH 18 0
BBX 17 24 2 0
BITMAP
003C00
007800
007000
00E000
01C000
000000
01FC00
07FF00
0FFF80
1F1F80
1E0780
3E0780
3F8000
1FF000
1FFC00
07FE00
01FF00
003F00
F81F00
F81F00
FE3E00
7FFE00
7FFC00
1FF000
ENDCHAR
STARTCHAR Scircumflex
ENCODING 348
SWIDTH 667 0
DWIDTH 22 0
BBX 22 31 2 0
BITMAP
001E00
003F00
007700
00E380
00C180
000000
003FC0
01FFF0
03FFF8
07FFFC
0FC1FC
0F807C
1F007C
1F007C
1F0000
1FC000
1FFE00
0FFFC0
07FFF0
00FFF0
000FF8
0001F8
0000F8
F800F0
F801F0
FC01F0
7E07E0
7FFFC0
3FFFC0
1FFF00
07F800
ENDCHAR
STARTCHAR scircumflex
ENCODING 349
SWIDTH 556 0
DWIDTH 18 0
BBX 17 24 2 0
BITMAP
00F000
01F800
03B800
071C00
060C00
000000
01FC00
07FF00
0FFF80
1F1F80
1E0780
3E0780
3F8000
1FF000
1FFC00
07FE00
01FF00
003F00
F81F00
F81F00
FE3E00
7FFE00
7FFC00
1FF000
ENDCHAR
STARTCHAR Scedilla
ENCODING 350
SWIDTH 667 0
DWIDTH 22 0
BBX 22 32 2 -7
BITMAP
003FC0
01FFF0
03FFF8
07FFFC
0FC1FC
0F807C
1F007C
1F007C
1F0000
1FC000
1FFE00
0FFFC0
07FFF0
00FFF0
000FF8
0001F8
0000F8
F800F0
F801F0
FC01F0
7E07E0
7FFFC0
3FFFC0
1FFF00
07F800
006000
006000
007800
001C00
001C00
03F800
03F000
ENDCHAR
STARTCHAR scedilla
ENCODING 351
SWIDTH 556 0
DWIDTH 18 0
BBX 17 25 2 -7
BITMAP
01FC00
07FF00
0FFF80
1F1F80
1E0780
3E0780
3F8000
1FF000
1FFC00
07FE00
01FF00
003F00
F81F00
F81F00
FE3E00
7FFE00
7FFC00
1FF000
018000
018000
01E000
007000
007000
0FE000
0FC000
ENDCHAR
STARTCHAR Scaron
ENCODING 352
SWIDTH 667 0
DWIDTH 22 0
BBX 22 27 2 0
BITMAP
003870
001CE0
001DC0
000F80
000F80
000000
000000
003FC0
01FFF0
03FFF8
07FFFC
0FC1FC
1F007C
1F807C
0FF800
0FFFC0
03FFF0
007FF8
0003F8
F800F8
F800F0
FC01F0
7E07E0
7FFFC0
3FFFC0
1FFF00
07F800
ENDCHAR
STARTCHAR scaron
ENCODING 353
SWIDTH 556 0
DWIDTH 18 0
BBX 17 25 2 0
BITMAP
01C380
00E700
00EE00
007C00
007C00
000000
000000
01FC00
07FF00
0FFF80
1F9F80
1E0780
3E0780
3F8000
3FF800
1FFE00
0FFF00
01FF00
003F00
F81F00
F81F00
FE3E00
7FFE00
7FFC00
1FF000
ENDCHAR
STARTCHAR Tcommaaccent
ENCODING 354
SWIDTH 611 0
DWIDTH 20 0
BBX 20 32 5 -7
BITMAP
7FFFF0
7FFFF0
FFFFE0
FFFFE0
01F000
01F000
01F000
01F000
03F000
03E000
03E000
03E000
03E000
07E000
07C000
07C000
07C000
07C000
0F8000
0F8000
0F8000
0F8000
1F8000
1F0000
1F0000
030000
030000
03C000
00E000
00E000
1FC000
1F8000
ENDCHAR
STARTCHAR tcommaaccent
ENCODING 355
SWIDTH 333 0
DWIDTH 11 0
BBX 10 29 4 -7
BITMAP
1F00
1F00
1F00
1F00
7FC0
FFC0
FF80
3E00
3E00
3E00
7C00
7C00
7C00
7C00
7C00
F800
F800
F800
FE00
FE00
FE00
7C00
1800
1800
1E00
0700
0700
FE00
FC00
ENDCHAR
STARTCHAR Tcaron
ENCODING 356
SWIDTH 611 0
DWIDTH 20 0
BBX 20 31 5 0
BITMAP
070E00
039C00
03B800
01F000
01F000
000000
7FFFF0
7FFFF0
FFFFE0
FFFFE0
01F000
01F000
01F000
01F000
03F000
03E000
03E000
03E000
03E000
07E000
07C000
07C000
07C000
07C000
0F8000
0F8000
0F8000
0F8000
1F8000
1F0000
1F0000
ENDCHAR
STARTCHAR tcaron
ENCODING 357
SWIDTH 594 0
DWIDTH 19 0
BBX 18 25 4 0
BITMAP
0007C0
0007C0
0007C0
1F07C0
1F01C0
1F0380
1F0700
7FCE00
FFC000
FF8000
3E0000
3E0000
3E0000
7C0000
7C0000
7C0000
7C0000
7C0000
F80000
F80000
F80000
FE0000
FE0000
FE0000
7C0000
ENDCHAR
STARTCHAR Tbar
ENCODING 358
SWIDTH 611 0
DWIDTH 20 0
BBX 20 25 5 0
BITMAP
7FFFF0
7FFFF0
FFFFE0
FFFFE0
01F000
01F000
01F000
01F000
03F000
03E000
03E000
07FE00
07FE00
07E000
07C000
07C000
07C000
07C000
0F8000
0F8000
0F8000
0F8000
1F8000
1F0000
1F0000
ENDCHAR
STARTCHAR tbar
ENCODING 359
SWIDTH 333 0
DWIDTH 11 0
BBX 10 22 4 0
BITMAP
1F00
1F00
1F00
1F00
7FC0
FFC0
FF80
3E00
3E00
3E00
7C00
7C00
FFC0
FFC0
7C00
F800
F800
F800
FE00
FE00
FE00
7C00
ENDCHAR
STARTCHAR Utilde
ENCODING 360
SWIDTH 722 0
DWIDTH 24 0
BBX 22 31 5 0
BITMAP
007040
00F8C0
01FF80
031F00
020E00
000000
1F007C
1F007C
1F007C
3F007C
3E00F8
3E00F8
3E00F8
3E00F8
7E01F8
7C01F0
7C01F0
7C01F0
7C01F0
F803F0
F803E0
F803E0
F803E0
F807E0
F807C0
F80FC0
FE3F80
FFFF00
7FFF00
3FFC00
1FF000
ENDCHAR
STARTCHAR utilde
ENCODING 361
SWIDTH 611 0
DWIDTH 20 0
BBX 19 24 3 0
BITMAP
01C100
03E300
07FE00
0C7C00
083800
000000
1F03E0
1F03E0
1E03E0
3E07C0
3E07C0
3C07C0
3C0780
7C0F80
7C0F80
7C0F80
780F80
F81F00
F81F00
FC3F00
FFFF00
FFFE00
7FDE00
1F1E00
ENDCHAR
STARTCHAR Umacron
ENCODING 362
SWIDTH 722 0
DWIDTH 24 0
BBX 22 29 5 0
BITMAP
01FF80
01FF80
01FF80
000000
1F007C
1F007C
1F007C
3F007C
3E00F8
3E00F8
3E00F8
3E00F8
7E01F8
7C01F0
7C01F0
7C01F0
7C01F0
F803F0
F803E0
F803E0
F803E0
F807E0
F807C0
F80FC0
FE3F80
FFFF00
7FFF00
3FFC00
1FF000
ENDCHAR
STARTCHAR umacron
ENCODING 363
SWIDTH 611 0
DWIDTH 20 0
BBX 19 22 3 0
BITMAP
07FE00
07FE00
07FE00
000000
1F03E0
1F03E0
1E03E0
3E07C0
3E07C0
3C07C0
3C0780
7C0F80
7C0F80
7C0F80
780F80
F81F00
F81F00
FC3F00
FFFF00
FFFE00
7FDE00
1F1E00
ENDCHAR
STARTCHAR Ubreve
ENCODING 364
SWIDTH 722 0
DWIDTH 24 0
BBX 22 31 5 0
BITMAP
010100
018300
01FE00
00FC00
007800
000000
1F007C
1F007C
1F007C
3F007C
3E00F8
3E00F8
3E00F8
3E00F8
7E01F8
7C01F0
7C01F0
7C01F0
7C01F0
F803F0
F803E0
F803E0
F803E0
F807E0
F807C0
F80FC0
FE3F80
FFFF00
7FFF00
3FFC00
1FF000
ENDCHAR
STARTCHAR ubreve
ENCODING 365
SWIDTH 611 0
DWIDTH 20 0
BBX 19 24 3 0
BITMAP
020200
030600
03FC00
01F800
00F000
000000
1F03E0
1F03E0
1E03E0
3E07C0
3E07C0
3C07C0
3C0780
7C0F80
7C0F80
7C0F80
780F80
F81F00
F81F00
FC3F00
FFFF00
FFFE00
7FDE00
1F1E00
ENDCHAR
STARTCHAR Uring
ENCODING 366
SWIDTH 722 0
DWIDTH 24 0
BBX 22 32 5 0
BITMAP
001C00
003600
002600
006600
006C00
003800
000000
1F007C
1F007C
1F007C
3F007C
3E00F8
3E00F8
3E00F8
3E00F8
7E01F8
7C01F0
7C01F0
7C01F0
7C01F0
F803F0
F803E0
F803E0
F803E0
F807E0
F807C0
F80FC0
FE3F80
FFFF00
7FFF00
3FFC00
1FF000
ENDCHAR
STARTCHAR uring
ENCODING 367
SWIDTH 611 0
DWIDTH 20 0
BBX 19 25 3 0
BITMAP
003800
006C00
004C00
00CC00
00D800
007000
000000
1F03E0
1F03E0
1E03E0
3E07C0
3E07C0
3C07C0
3C0780
7C0F80
7C0F80
7C0F80
780F80
F81F00
F81F00
FC3F00
FFFF00
FFFE00
7FDE00
1F1E00
ENDCHAR
STARTCHAR Uhungarumlaut
ENCODING 368
SWIDTH 722 0
DWIDTH 24 0
BBX 22 31 5 0
BITMAP
0079E0
00F3C0
00E380
01C700
018600
000000
1F007C
1F007C
1F007C
3F007C
3E00F8
3E00F8
3E00F8
3E00F8
7E01F8
7C01F0
7C01F0
7C01F0
7C01F0
F803F0
F803E0
F803E0
F803E0
F807E0
F807C0
F80FC0
FE3F80
FFFF00
7FFF00
3FFC00
1FF000
ENDCHAR
STARTCHAR uhungarumlaut
ENCODING 369
SWIDTH 611 0
DWIDTH 20 0
BBX 19 24 3 0
BITMAP
01E780
03CF00
038E00
071C00
061800
000000
1F03E0
1F03E0
1E03E0
3E07C0
3E07C0
3C07C0
3C0780
7C0F80
7C0F80
7C0F80
780F80
F81F00
F81F00
FC3F00
FFFF00
FFFE00
7FDE00
1F1E00
ENDCHAR
STARTCHAR Uogonek
ENCODING 370
SWIDTH 722 0
DWIDTH 24 0
BBX 22 32 5 -7
BITMAP
1F007C
1F007C
1F007C
3F007C
3E00F8
3E00F8
3E00F8
3E00F8
7E01F8
7C01F0
7C01F0
7C01F0
7C01F0
F803F0
F803E0
F803E0
F803E0
F807E0
F807C0
F80FC0
FE3F80
FFFF00
7FFF00
3FFC00
1FF000
01C000
01C000
01C000
03C000
03FC00
01F800
00F000
ENDCHAR
STARTCHAR uogonek
ENCODING 371
SWIDTH 611 0
DWIDTH 20 0
BBX 19 25 3 -7
BITMAP
1F03E0
1F03E0
1E03E0
3E07C0
3E07C0
3C07C0
3C0780
7C0F80
7C0F80
7C0F80
780F80
F81F00
F81F00
FC3F00
FFFF00
FFFE00
7FDE00
1FDE00
038000
038000
038000
078000
07F800
03F000
01E000
ENDCHAR
STARTCHAR Wcircumflex
ENCODING 372
SWIDTH 944 0
DWIDTH 31 0
BBX 30 31 6 0
BITMAP
00078000
000FC000
001DC000
0038E000
00306000
00000000
F80FC07C
F80FC0FC
F81FC0F8
F81FC0F8
F83FC1F0
F83FC1F0
F83FC3E0
F87BC3E0
F87BC7C0
F8F3C7C0
F8F3C780
F8F3CF80
F9E3CF00
F9E39F00
7BC39E00
7BC39E00
7B83BE00
7F83BC00
7F83FC00
7F03F800
7F03F800
7E03F000
7E03F000
7C03E000
7C03E000
ENDCHAR
STARTCHAR wcircumflex
ENCODING 373
SWIDTH 778 0
DWIDTH 25 0
BBX 25 24 3 0
BITMAP
001E0000
003F0000
00770000
00E38000
00C18000
00000000
F83E0F80
F83E0F80
F87E1F00
F87E1F00
F8FE3E00
F8FE3E00
F9EE3C00
F9EE7C00
79CE7800
7BCEF800
7B8EF000
7F8FF000
7F8FE000
7F0FE000
7F0FC000
7E0FC000
7E0F8000
7C0F8000
ENDCHAR
STARTCHAR Ycircumflex
ENCODING 374
SWIDTH 667 0
DWIDTH 22 0
BBX 20 31 6 0
BITMAP
00F000
01F800
03B800
071C00
060C00
000000
FC01F0
7C03F0
7E03E0
7E07E0
3E0FC0
3E0F80
3E1F00
3F3F00
1F3E00
1F7C00
1FFC00
0FF800
0FF000
0FF000
0FE000
07C000
07C000
0FC000
0F8000
0F8000
0F8000
0F8000
1F8000
1F0000
1F0000
ENDCHAR
STARTCHAR ycircumflex
ENCODING 375
SWIDTH 556 0
DWIDTH 18 0
BBX 21 31 1 -7
BITMAP
007800
00FC00
01DC00
038E00
030600
000000
1F00F8
1F01F0
1F01E0
0F83E0
0F83C0
0F87C0
0F8780
0F8F80
0F8F00
0F9E00
079E00
07BC00
07FC00
07F800
07F800
07F000
07E000
03E000
07C000
07C000
0F8000
7F8000
7F0000
FE0000
F80000
ENDCHAR
STARTCHAR Ydieresis
ENCODING 376
SWIDTH 667 0
DWIDTH 22 0
BBX 20 27 6 0
BITMAP
03C780
03C780
03C780
03C780
000000
000000
000000
FC01F0
7C01F0
7E03E0
7E07C0
3E0F80
3E0F80
3E1F00
3F3E00
1F7C00
1FF800
0FF000
0FE000
0FC000
0FC000
0F8000
0F8000
0F8000
1F8000
1F0000
1F0000
ENDCHAR
STARTCHAR Zacute
ENCODING 377
SWIDTH 611 0
DWIDTH 20 0
BBX 23 31 1 0
BITMAP
0003C0
000780
000700
000E00
001C00
000000
03FFFE
03FFFE
07FFFE
07FFFE
00007E
0000FC
0001F8
0003F0
0007E0
000FC0
001F80
003F00
007E00
00FC00
01F800
03F000
07E000
0FC000
1F8000
3F0000
7E0000
7FFFE0
FFFFE0
FFFFC0
FFFFC0
ENDCHAR
STARTCHAR zacute
ENCODING 378
SWIDTH 500 0
DWIDTH 16 0
BBX 18 24 1 0
BITMAP
001E00
003C00
003800
007000
00E000
000000
0FFFC0
0FFFC0
1FFFC0
1FFF80
001F80
003F00
007E00
00FC00
03F800
07E000
0FC000
1F8000
3F0000
7E0000
FFFE00
FFFE00
FFFC00
FFFC00
ENDCHAR
STARTCHAR Zdotaccent
ENCODING 379
SWIDTH 611 0
DWIDTH 20 0
BBX 23 30 1 0
BITMAP
000F00
000F00
000F00
000F00
000000
03FFFE
03FFFE
07FFFE
07FFFE
00007E
0000FC
0001F8
0003F0
0007E0
000FC0
001F80
003F00
007E00
00FC00
01F800
03F000
07E000
0FC000
1F8000
3F0000
7E0000
7FFFE0
FFFFE0
FFFFC0
FFFFC0
ENDCHAR
STARTCHAR zdotaccent
ENCODING 380
SWIDTH 500 0
DWIDTH 16 0
BBX 18 23 1 0
BITMAP
00F000
00F000
00F000
00F000
000000
0FFFC0
0FFFC0
1FFFC0
1FFF80
001F80
003F00
007E00
00FC00
03F800
07E000
0FC000
1F8000
3F0000
7E0000
FFFE00
FFFE00
FFFC00
FFFC00
ENDCHAR
STARTCHAR Zcaron
ENCODING 381
SWIDTH 611 0
DWIDTH 20 0
BBX 23 27 1 0
BITMAP
003870
001CE0
001DC0
000F80
000F80
000000
000000
07FFFE
07FFFE
07FFFE
07FFFE
0000FC
0001F8
0003F0
000FC0
001F80
003F00
007E00
00FC00
03F800
07E000
0FC000
3F0000
7FFFE0
FFFFE0
FFFFE0
FFFFC0
ENDCHAR
STARTCHAR zcaron
ENCODING 382
SWIDTH 500 0
DWIDTH 16 0
BBX 18 25 1 0
BITMAP
01C380
00E700
00EE00
007C00
007C00
000000
000000
0FFFC0
0FFFC0
1FFFC0
1FFF80
001F80
003F00
007E00
00FC00
03F800
07E000
0FC000
1F8000
3F0000
7E0000
FFFE00
FFFE00
FFFC00
FFFC00
ENDCHAR
STARTCHAR uni0186
ENCODING 390
SWIDTH 722 0
DWIDTH 24 0
BBX 23 25 3 0
BITMAP
003FC0
01FFF0
07FFF8
0FFFF8
1FE1FC
1F80FC
3E007C
7E007E
7C003E
00003E
00003E
00003E
00003E
00007C
00007C
0000FC
F800F8
F801F8
F803F0
F807E0
FE1FE0
7FFFC0
7FFF00
3FFE00
0FF800
ENDCHAR
STARTCHAR uni0189
ENCODING 393
SWIDTH 722 0
DWIDTH 23 0
BBX 24 25 2 0
BITMAP
03FFF0
03FFFC
03FFFE
07FFFE
07C1FF
07C03F
07C03F
07C01F
0FC01F
0F801F
0F801F
7FF81F
FFF81F
FFF03E
1F003E
1F003E
1F007C
1F007C
3E00F8
3E01F8
3E07F0
3FFFE0
7FFFC0
7FFF80
7FFE00
ENDCHAR
STARTCHAR uni018E
ENCODING 398
SWIDTH 667 0
DWIDTH 22 0
BBX 23 25 3 0
BITMAP
07FFFE
07FFFE
0FFFFE
0FFFFC
00007C
00007C
00007C
0000F8
0000F8
0000F8
0000F8
0FFFF8
0FFFF0
1FFFF0
1FFFF0
0001F0
0001F0
0003E0
0003E0
0003E0
0003E0
7FFFE0
7FFFC0
FFFFC0
FFFFC0
ENDCHAR
STARTCHAR florin
ENCODING 402
SWIDTH 556 0
DWIDTH 18 0
BBX 23 32 0 -7
BITMAP
00007E
0000FE
0001FC
0003FC
0007C0
0007C0
000F80
000F80
000F00
01FFF0
01FFF0
03FFF0
003E00
007C00
007C00
007C00
00F800
00F800
00F800
01F000
01F000
01E000
03E000
03E000
07C000
07C000
0F8000
0F8000
FF0000
FF0000
FE0000
F80000
ENDCHAR
STARTCHAR uni0197
ENCODING 407
SWIDTH 278 0
DWIDTH 9 0
BBX 10 25 2 0
BITMAP
07C0
07C0
07C0
0FC0
0F80
0F80
0F80
0F80
1F80
1F00
1F00
FFC0
FFC0
3F00
3E00
3E00
3E00
3E00
7C00
7C00
7C00
7C00
FC00
F800
F800
ENDCHAR
STARTCHAR uni019A
ENCODING 410
SWIDTH 278 0
DWIDTH 9 0
BBX 10 25 2 0
BITMAP
07C0
07C0
07C0
0F80
0F80
0F80
0F80
1F00
1F00
1F00
1F00
FFC0
FFC0
3E00
3E00
3E00
3E00
3E00
7C00
7C00
7C00
7C00
F800
F800
F800
ENDCHAR
STARTCHAR uni019D
ENCODING 413
SWIDTH 722 0
DWIDTH 24 0
BBX 28 32 -1 -7
BITMAP
00FC01F0
00FC01F0
00FC01F0
01FE03F0
01FE03E0
01FE03E0
01FF03E0
01FF03E0
03FF87E0
03EF87C0
03E787C0
03E7C7C0
03E7C7C0
07E3CFC0
07C3EF80
07C3EF80
07C1EF80
07C1FF80
0F80FF00
0F80FF00
0F80FF00
0F807F00
0F807F00
1F007E00
1F003E00
1F000000
1F000000
3E000000
7E000000
FE000000
FC000000
F8000000
ENDCHAR
STARTCHAR uni019F
ENCODING 415
SWIDTH 778 0
DWIDTH 25 0
BBX 25 25 3 0
BITMAP
001FE000
00FFFC00
01FFFE00
03FFFE00
07F0FF00
0FC03F00
1F801F80
1F001F80
3E000F80
3E000F80
7C000F80
FFFFFF80
FFFFFF80
F8001F00
F8001F00
F8003F00
F8003E00
FC007E00
FC00FC00
7E01F800
7F87F800
3FFFF000
1FFFE000
0FFF8000
03FE0000
ENDCHAR
STARTCHAR Ohorn
ENCODING 416
SWIDTH 778 0
DWIDTH 25 0
BBX 28 25 3 0
BITMAP
001FE1F0
00FFFDF0
01FFFFF0
03FFFFF0
07F0FF70
0FC03FE0
1F801FC0
1F001F80
3E000F80
3E000F80
7C000F80
7C000F80
78000F80
F8001F00
F8001F00
F8003F00
F8003E00
FC007E00
FC00FC00
7E01F800
7F87F800
3FFFF000
1FFFE000
0FFF8000
03FE0000
ENDCHAR
STARTCHAR ohorn
ENCODING 417
SWIDTH 611 0
DWIDTH 20 0
BBX 22 18 3 0
BITMAP
01FC7C
07FF7C
0FFFFC
1FFFFC
3F0FDC
7E07F8
7C07F0
7C07E0
F807C0
F807C0
F80F80
F80F80
F81F80
FC3F00
7FFE00
7FFC00
3FF800
0FE000
ENDCHAR
STARTCHAR Uhorn
ENCODING 431
SWIDTH 722 0
DWIDTH 24 0
BBX 26 25 5 0
BITMAP
1F007FC0
1F007FC0
1F007FC0
3F007FC0
3E00F9C0
3E00FB80
3E00FF00
3E00FE00
7E01F800
7C01F000
7C01F000
7C01F000
7C01F000
F803F000
F803E000
F803E000
F803E000
F807E000
F807C000
F80FC000
FE3F8000
FFFF0000
7FFF0000
3FFC0000
1FF00000
ENDCHAR
STARTCHAR uhorn
ENCODING 432
SWIDTH 611 0
DWIDTH 20 0
BBX 23 18 3 0
BITMAP
1F03FE
1F03FE
1E03FE
3E07FE
3E07CE
3C07DC
3C07B8
7C0FF0
7C0F80
7C0F80
780F80
F81F00
F81F00
FC3F00
FFFF00
FFFE00
7FDE00
1F1E00
ENDCHAR
STARTCHAR uni01B5
ENCODING 437
SWIDTH 611 0
DWIDTH 20 0
BBX 23 25 1 0
BITMAP
03FFFE
03FFFE
07FFFE
07FFFE
00007E
0000FC
0001F8
0003F0
0007E0
000FC0
001F80
01FF80
01FF80
00FC00
01F800
03F000
07E000
0FC000
1F8000
3F0000
7E0000
7FFFE0
FFFFE0
FFFFC0
FFFFC0
ENDCHAR
STARTCHAR uni01B6
ENCODING 438
SWIDTH 500 0
DWIDTH 16 0
BBX 18 18 1 0
BITMAP
0FFFC0
0FFFC0
1FFFC0
1FFF80
001F80
003F00
007E00
00FC00
0FFC00
0FFC00
0FC000
1F8000
3F0000
7E0000
FFFE00
FFFE00
FFFC00
FFFC00
ENDCHAR
STARTCHAR uni01BB
ENCODING 443
SWIDTH 556 0
DWIDTH 18 0
BBX 19 24 2 0
BITMAP
007E00
01FF80
03FFC0
07FFC0
0FC7E0
0F83E0
1F03E0
1E03E0
1E07C0
0007C0
000F80
FFFFE0
FFFFE0
00FC00
01F800
07F000
0FC000
1F8000
3F0000
7E0000
7FFE00
FFFE00
FFFE00
FFFE00
ENDCHAR
STARTCHAR uni01BC
ENCODING 444
SWIDTH 556 0
DWIDTH 18 0
BBX 18 24 3 0
BITMAP
03FFC0
03FFC0
07FF80
07FF80
0F0000
0F0000
0E0000
1E0000
1CF800
3FFE00
3FFE00
3FFF00
7C3F00
001F00
001F00
001F00
001F00
F03E00
F03E00
F8FC00
FFF800
7FF000
7FE000
1F8000
ENDCHAR
STARTCHAR uni01C0
ENCODING 448
SWIDTH 280 0
DWIDTH 9 0
BBX 9 31 2 -7
BITMAP
0380
0380
0300
0700
0700
0700
0700
0600
0E00
0E00
0E00
0E00
0C00
1C00
1C00
1C00
1C00
3800
3800
3800
3800
3000
7000
7000
7000
7000
6000
E000
E000
E000
E000
ENDCHAR
STARTCHAR uni01C2
ENCODING 450
SWIDTH 584 0
DWIDTH 19 0
BBX 19 31 2 -7
BITMAP
001C00
001C00
001800
003800
003800
003800
003800
003000
007000
007000
1FFFE0
1FFFE0
3FFFC0
3FFFC0
00E000
00E000
00E000
01C000
7FFF80
7FFF80
FFFF00
FFFF00
038000
038000
038000
038000
030000
070000
070000
070000
070000
ENDCHAR
STARTCHAR uni01C3
ENCODING 451
SWIDTH 333 0
DWIDTH 11 0
BBX 10 25 4 0
BITMAP
07C0
07C0
07C0
0FC0
0F80
0F80
0F80
0F80
0F00
0F00
1F00
1E00
1E00
1E00
1C00
1C00
1C00
1800
0000
0000
7C00
7C00
FC00
F800
F800
ENDCHAR
STARTCHAR uni01CD
ENCODING 461
SWIDTH 722 0
DWIDTH 24 0
BBX 22 31 1 0
BITMAP
0070E0
0039C0
003B80
001F00
001F00
000000
0003E0
0007E0
000FE0
001FE0
001FF0
003FF0
003FF0
007DF0
007DF0
00F9F0
00F9F0
01F0F8
03F0F8
03E0F8
07E0F8
07C0F8
0FFFF8
0FFFF8
1FFFF8
1FFFFC
3E00FC
3E007C
7C007C
FC007C
F8007C
ENDCHAR
STARTCHAR uni01CE
ENCODING 462
SWIDTH 556 0
DWIDTH 18 0
BBX 17 24 2 0
BITMAP
070E00
039C00
03B800
01F000
01F000
000000
01FE00
07FF00
0FFF80
1F8F80
1E0780
1E0780
000F80
03FF80
1FFF00
3FFF00
7E1F00
781F00
F83E00
F87E00
FFFE00
FFFE00
7FBE00
3E3E00
ENDCHAR
STARTCHAR uni01CF
ENCODING 463
SWIDTH 278 0
DWIDTH 9 0
BBX 12 31 2 0
BITMAP
3870
1CE0
1DC0
0F80
0F80
0000
07C0
07C0
07C0
0FC0
0F80
0F80
0F80
0F80
1F80
1F00
1F00
1F00
1F00
3F00
3E00
3E00
3E00
3E00
7C00
7C00
7C00
7C00
FC00
F800
F800
ENDCHAR
STARTCHAR uni01D0
ENCODING 464
SWIDTH 278 0
DWIDTH 9 0
BBX 11 24 2 0
BITMAP
70E0
39C0
3B80
1F00
1F00
0000
0F80
0F00
1F00
1F00
1F00
1F00
1E00
3E00
3E00
3E00
3E00
7C00
7C00
7C00
7C00
7800
F800
F800
ENDCHAR
STARTCHAR uni01D1
ENCODING 465
SWIDTH 778 0
DWIDTH 25 0
BBX 25 31 3 0
BITMAP
0070E000
0039C000
003B8000
001F0000
001F0000
00000000
001FE000
00FFFC00
01FFFE00
03FFFE00
07F0FF00
0FC03F00
1F801F80
1F001F80
3E000F80
3E000F80
7C000F80
7C000F80
78000F80
F8001F00
F8001F00
F8003F00
F8003E00
FC007E00
FC00FC00
7E01F800
7F87F800
3FFFF000
1FFFE000
0FFF8000
03FE0000
ENDCHAR
STARTCHAR uni01D2
ENCODING 466
SWIDTH 611 0
DWIDTH 20 0
BBX 18 24 3 0
BITMAP
070E00
039C00
03B800
01F000
01F000
000000
01FC00
07FF00
0FFF80
1FFFC0
3F0FC0
7E07C0
7C07C0
7C07C0
F807C0
F807C0
F80F80
F80F80
F81F80
FC3F00
7FFE00
7FFC00
3FF800
0FE000
ENDCHAR
STARTCHAR uni01D3
ENCODING 467
SWIDTH 722 0
DWIDTH 24 0
BBX 22 31 5 0
BITMAP
01C380
00E700
00EE00
007C00
007C00
000000
1F007C
1F007C
1F007C
3F007C
3E00F8
3E00F8
3E00F8
3E00F8
7E01F8
7C01F0
7C01F0
7C01F0
7C01F0
F803F0
F803E0
F803E0
F803E0
F807E0
F807C0
F80FC0
FE3F80
FFFF00
7FFF00
3FFC00
1FF000
ENDCHAR
STARTCHAR uni01D4
ENCODING 468
SWIDTH 611 0
DWIDTH 20 0
BBX 19 24 3 0
BITMAP
038700
01CE00
01DC00
00F800
00F800
000000
1F03E0
1F03E0
1E03E0
3E07C0
3E07C0
3C07C0
3C0780
7C0F80
7C0F80
7C0F80
780F80
F81F00
F81F00
FC3F00
FFFF00
FFFE00
7FDE00
1F1E00
ENDCHAR
STARTCHAR uni01D5
ENCODING 469
SWIDTH 722 0
DWIDTH 24 0
BBX 22 35 5 0
BITMAP
01FF80
01FF80
01FF80
000000
01E3C0
01E3C0
01E3C0
01E3C0
000000
000000
1F007C
1F007C
1F007C
3F007C
3E00F8
3E00F8
3E00F8
3E00F8
7E01F8
7C01F0
7C01F0
7C01F0
7C01F0
F803F0
F803E0
F803E0
F803E0
F807E0
F807C0
F80FC0
FE3F80
FFFF00
7FFF00
3FFC00
1FF000
ENDCHAR
STARTCHAR uni01D6
ENCODING 470
SWIDTH 611 0
DWIDTH 20 0
BBX 19 28 3 0
BITMAP
03FF00
03FF00
03FF00
000000
03C780
03C780
03C780
03C780
000000
000000
1F03E0
1F03E0
1E03E0
3E07C0
3E07C0
3C07C0
3C0780
7C0F80
7C0F80
7C0F80
780F80
F81F00
F81F00
FC3F00
FFFF00
FFFE00
7FDE00
1F1E00
ENDCHAR
STARTCHAR uni01D7
ENCODING 471
SWIDTH 722 0
DWIDTH 24 0
BBX 22 37 5 0
BITMAP
000780
000F00
000E00
001C00
003800
000000
01E3C0
01E3C0
01E3C0
01E3C0
000000
000000
1F007C
1F007C
1F007C
3F007C
3E00F8
3E00F8
3E00F8
3E00F8
7E01F8
7C01F0
7C01F0
7C01F0
7C01F0
F803F0
F803E0
F803E0
F803E0
F807E0
F807C0
F80FC0
FE3F80
FFFF00
7FFF00
3FFC00
1FF000
ENDCHAR
STARTCHAR uni01D8
ENCODING 472
SWIDTH 611 0
DWIDTH 20 0
BBX 19 30 3 0
BITMAP
001E00
003C00
003800
007000
00E000
000000
03C780
03C780
03C780
03C780
000000
000000
1F03E0
1F03E0
1E03E0
3E07C0
3E07C0
3C07C0
3C0780
7C0F80
7C0F80
7C0F80
780F80
F81F00
F81F00
FC3F00
FFFF00
FFFE00
7FDE00
1F1E00
ENDCHAR
STARTCHAR uni01D9
ENCODING 473
SWIDTH 722 0
DWIDTH 24 0
BBX 22 37 5 0
BITMAP
01C380
00E700
00EE00
007C00
007C00
000000
01E3C0
01E3C0
01E3C0
01E3C0
000000
000000
1F007C
1F007C
1F007C
3F007C
3E00F8
3E00F8
3E00F8
3E00F8
7E01F8
7C01F0
7C01F0
7C01F0
7C01F0
F803F0
F803E0
F803E0
F803E0
F807E0
F807C0
F80FC0
FE3F80
FFFF00
7FFF00
3FFC00
1FF000
ENDCHAR
STARTCHAR uni01DA
ENCODING 474
SWIDTH 611 0
DWIDTH 20 0
BBX 19 30 3 0
BITMAP
038700
01CE00
01DC00
00F800
00F800
000000
03C780
03C780
03C780
03C780
000000
000000
1F03E0
1F03E0
1E03E0
3E07C0
3E07C0
3C07C0
3C0780
7C0F80
7C0F80
7C0F80
780F80
F81F00
F81F00
FC3F00
FFFF00
FFFE00
7FDE00
1F1E00
ENDCHAR
STARTCHAR uni01DB
ENCODING 475
SWIDTH 722 0
DWIDTH 24 0
BBX 22 37 5 0
BITMAP
00F000
007800
003800
001C00
000C00
000000
01E3C0
01E3C0
01E3C0
01E3C0
000000
000000
1F007C
1F007C
1F007C
3F007C
3E00F8
3E00F8
3E00F8
3E00F8
7E01F8
7C01F0
7C01F0
7C01F0
7C01F0
F803F0
F803E0
F803E0
F803E0
F807E0
F807C0
F80FC0
FE3F80
FFFF00
7FFF00
3FFC00
1FF000
ENDCHAR
STARTCHAR uni01DC
ENCODING 476
SWIDTH 611 0
DWIDTH 20 0
BBX 19 30 3 0
BITMAP
01E000
00F000
007000
003800
001800
000000
03C780
03C780
03C780
03C780
000000
000000
1F03E0
1F03E0
1E03E0
3E07C0
3E07C0
3C07C0
3C0780
7C0F80
7C0F80
7C0F80
780F80
F81F00
F81F00
FC3F00
FFFF00
FFFE00
7FDE00
1F1E00
ENDCHAR
STARTCHAR uni01DD
ENCODING 477
SWIDTH 556 0
DWIDTH 18 0
BBX 17 18 3 0
BITMAP
03F000
0FFC00
1FFE00
3FFF00
7C1F00
780F80
000F80
000780
FFFF80
FFFF80
FFFF80
F00F00
F01F00
F83E00
7CFC00
7FFC00
3FF000
0FC000
ENDCHAR
STARTCHAR uni01DE
ENCODING 478
SWIDTH 722 0
DWIDTH 24 0
BBX 22 35 1 0
BITMAP
007FE0
007FE0
007FE0
000000
003C3C
003C3C
003C3C
003C3C
000000
000000
0003E0
0007E0
000FE0
000FE0
001FF0
003FF0
003FF0
007DF0
007DF0
00F9F0
00F9F0
01F0F8
03F0F8
03E0F8
07E0F8
07C0F8
0FFFF8
0FFFF8
1FFFF8
1FFFFC
3E00FC
3E007C
7C007C
FC007C
F8007C
ENDCHAR
STARTCHAR uni01DF
ENCODING 479
SWIDTH 556 0
DWIDTH 18 0
BBX 17 28 2 0
BITMAP
07FE00
07FE00
07FE00
000000
03C780
03C780
03C780
03C780
000000
000000
01FE00
07FF00
0FFF80
1F8F80
1E0780
1E0F80
001F80
07FF80
1FFF00
3FFF00
7E1F00
781F00
F83E00
F87E00
FFFE00
FFFE00
7FBE00
3E3E00
ENDCHAR
STARTCHAR uni01E0
ENCODING 480
SWIDTH 722 0
DWIDTH 24 0
BBX 22 34 1 0
BITMAP
007FE0
007FE0
007FE0
000000
000F00
000F00
000F00
000F00
000000
0003E0
0007E0
000FE0
001FE0
001FF0
003FF0
003FF0
007DF0
007DF0
00F9F0
00F9F0
01F0F8
03F0F8
03E0F8
07E0F8
07C0F8
0FFFF8
0FFFF8
1FFFF8
1FFFFC
3E00FC
3E007C
7C007C
FC007C
F8007C
ENDCHAR
STARTCHAR uni01E1
ENCODING 481
SWIDTH 556 0
DWIDTH 18 0
BBX 17 27 2 0
BITMAP
07FE00
07FE00
07FE00
000000
00F000
00F000
00F000
00F000
000000
01FE00
07FF00
0FFF80
1F8F80
1E0780
1E0780
000F80
03FF80
1FFF00
3FFF00
7E1F00
781F00
F83E00
F87E00
FFFE00
FFFE00
7FBE00
3E3E00
ENDCHAR
STARTCHAR uni01E2
ENCODING 482
SWIDTH 1000 0
DWIDTH 32 0
BBX 34 29 0 0
BITMAP
0003FF0000
0003FF0000
0003FF0000
0000000000
000FFFFFC0
001FFFFFC0
001FFFFF80
003FFFFF80
003DF00000
007DF00000
0079F00000
00F9F00000
00F3E00000
01F3E00000
01E3FFFE00
03E3FFFE00
03C3FFFC00
07C7FFFC00
0787C00000
0F87C00000
0FFFC00000
1FFFC00000
1FFF800000
3FFF800000
3C0F800000
7C0FFFFC00
7C1FFFFC00
F81FFFF800
F81FFFF800
ENDCHAR
STARTCHAR uni01E3
ENCODING 483
SWIDTH 889 0
DWIDTH 29 0
BBX 29 23 1 0
BITMAP
001FF800
001FF800
001FF800
00000000
00FC1F80
03FF7FE0
07FFFFF0
0FFFFFF0
0F0FE1F8
1F07C0F8
1E0F80F8
001F80F8
03FFFFF8
1FFFFFF8
3FFFFFF8
7E1F0000
781F0000
F83F01F0
FC7F83F0
FFFFFFE0
FFF7FFC0
7FC7FF00
1F01FC00
ENDCHAR
STARTCHAR uni01E4
ENCODING 484
SWIDTH 778 0
DWIDTH 25 0
BBX 27 25 3 0
BITMAP
001FF000
007FFC00
01FFFE00
03FFFF00
07F87F00
0FC01F80
1F801F80
1F000F80
3E000000
3E000000
7E000000
7C000000
7C03FF00
7C07FF00
F807FE00
F807FE00
FC003E00
FC003E00
7C007FE0
7E00FFE0
7F83FC00
3FFFFC00
1FFFBC00
0FFF3800
03F80000
ENDCHAR
STARTCHAR uni01E5
ENCODING 485
SWIDTH 611 0
DWIDTH 20 0
BBX 21 25 1 -7
BITMAP
00FC78
01FE78
07FF78
0FFFF0
0FC7F0
1F03F0
1E01F0
3E01E0
3C01E0
3C03E0
3C03E0
3C03E0
3C07C0
3E1FC0
3FFFC0
1FFFC0
1FF7C0
07C780
FFFFF8
FFFFF8
F01F00
F87F00
7FFE00
7FF800
1FE000
ENDCHAR
STARTCHAR Gcaron
ENCODING 486
SWIDTH 778 0
DWIDTH 25 0
BBX 25 31 3 0
BITMAP
0070E000
0039C000
003B8000
001F0000
001F0000
00000000
001FF000
007FFC00
01FFFE00
03FFFF00
07F87F00
0FC01F80
1F801F80
1F000F80
3E000000
3E000000
7E000000
7C000000
7C03FF00
7C07FF00
F807FE00
F807FE00
FC003E00
FC003E00
7C007E00
7E00FC00
7F83FC00
3FFFFC00
1FFFBC00
0FFF3800
03F80000
ENDCHAR
STARTCHAR gcaron
ENCODING 487
SWIDTH 611 0
DWIDTH 20 0
BBX 21 31 1 -7
BITMAP
01C380
00E700
00EE00
007C00
007C00
000000
00FC78
01FE78
07FF78
0FFFF0
0FC7F0
1F03F0
1E01F0
3E01E0
3C01E0
3C03E0
3C03E0
3C03E0
3C07C0
3E1FC0
3FFFC0
1FFFC0
1FF7C0
07C780
000F80
F00F80
F01F00
F87F00
7FFE00
7FF800
1FE000
ENDCHAR
STARTCHAR uni01E8
ENCODING 488
SWIDTH 722 0
DWIDTH 24 0
BBX 25 31 2 0
BITMAP
00E1C000
00738000
00770000
003E0000
003E0000
00000000
07C01F80
07C03F00
07C07E00
0FC0FC00
0F81F800
0F83F000
0F87E000
0F8FC000
1FBF8000
1F7E0000
1FFC0000
1FF80000
1FFC0000
3FFE0000
3FBE0000
3E3F0000
3E1F0000
3E1F8000
7C0F8000
7C0FC000
7C07E000
7C07E000
FC03F000
F803F000
F801F800
ENDCHAR
STARTCHAR uni01E9
ENCODING 489
SWIDTH 556 0
DWIDTH 18 0
BBX 19 31 2 0
BITMAP
1C3800
0E7000
0EE000
07C000
07C000
000000
07C000
07C000
07C000
078000
0F8000
0F8000
0F8000
0F87E0
0F0FC0
1F1F80
1F3F00
1F7E00
1FFC00
1FF800
3FF000
3FF000
3FF800
3FF800
7E7C00
7C7C00
7C3E00
7C3E00
F83E00
F81F00
F81F00
ENDCHAR
STARTCHAR uni01EA
ENCODING 490
SWIDTH 778 0
DWIDTH 25 0
BBX 25 32 3 -7
BITMAP
001FE000
00FFFC00
01FFFE00
03FFFE00
07F0FF00
0FC03F00
1F801F80
1F001F80
3E000F80
3E000F80
7C000F80
7C000F80
78000F80
F8001F00
F8001F00
F8003F00
F8003E00
FC007E00
FC00FC00
7E01F800
7F87F800
3FFFF000
1FFFE000
0FFF8000
03FE0000
00700000
00700000
00700000
00F00000
00FF0000
007E0000
003C0000
ENDCHAR
STARTCHAR uni01EB
ENCODING 491
SWIDTH 611 0
DWIDTH 20 0
BBX 18 25 3 -7
BITMAP
01FC00
07FF00
0FFF80
1FFFC0
3F0FC0
7E07C0
7C07C0
7C07C0
F807C0
F807C0
F80F80
F80F80
F81F80
FC3F00
7FFE00
7FFC00
3FF800
0FE000
038000
038000
038000
078000
07F800
03F000
01E000
ENDCHAR
STARTCHAR uni01EC
ENCODING 492
SWIDTH 778 0
DWIDTH 25 0
BBX 25 36 3 -7
BITMAP
007FE000
007FE000
007FE000
00000000
001FE000
00FFFC00
01FFFE00
03FFFE00
07F0FF00
0FC03F00
1F801F80
1F001F80
3E000F80
3E000F80
7C000F80
7C000F80
78000F80
F8001F00
F8001F00
F8003F00
F8003E00
FC007E00
FC00FC00
7E01F800
7F87F800
3FFFF000
1FFFE000
0FFF8000
03FE0000
00700000
00700000
00700000
00F00000
00FF0000
007E0000
003C0000
ENDCHAR
STARTCHAR uni01ED
ENCODING 493
SWIDTH 611 0
DWIDTH 20 0
BBX 18 29 3 -7
BITMAP
07FE00
07FE00
07FE00
000000
01FC00
07FF00
0FFF80
1FFFC0
3F0FC0
7E07C0
7C07C0
7C07C0
F807C0
F807C0
F80F80
F80F80
F81F80
FC3F00
7FFE00
7FFC00
3FF800
0FE000
038000
038000
038000
078000
07F800
03F000
01E000
ENDCHAR
STARTCHAR uni01F0
ENCODING 496
SWIDTH 278 0
DWIDTH 9 0
BBX 13 31 -1 -7
BITMAP
1C38
0E70
0EE0
07C0
07C0
0000
01F0
01F0
03E0
03E0
03E0
03E0
03E0
07C0
07C0
07C0
07C0
0F80
0F80
0F80
0F80
0F80
1F00
1F00
1F00
1F00
3E00
7E00
FE00
FC00
F800
ENDCHAR
STARTCHAR uni01F4
ENCODING 500
SWIDTH 778 0
DWIDTH 25 0
BBX 25 31 3 0
BITMAP
0001E000
0003C000
00038000
00070000
000E0000
00000000
001FF000
007FFC00
01FFFE00
03FFFF00
07F87F00
0FC01F80
1F801F80
1F000F80
3E000000
3E000000
7E000000
7C000000
7C03FF00
7C07FF00
F807FE00
F807FE00
FC003E00
FC003E00
7C007E00
7E00FC00
7F83FC00
3FFFFC00
1FFFBC00
0FFF3800
03F80000
ENDCHAR
STARTCHAR uni01F5
ENCODING 501
SWIDTH 611 0
DWIDTH 20 0
BBX 21 31 1 -7
BITMAP
000F00
001E00
001C00
003800
007000
000000
00FC78
01FE78
07FF78
0FFFF0
0FC7F0
1F03F0
1E01F0
3E01E0
3C01E0
3C03E0
3C03E0
3C03E0
3C07C0
3E1FC0
3FFFC0
1FFFC0
1FF7C0
07C780
000F80
F00F80
F01F00
F87F00
7FFE00
7FF800
1FE000
ENDCHAR
STARTCHAR uni01F8
ENCODING 504
SWIDTH 722 0
DWIDTH 24 0
BBX 25 31 2 0
BITMAP
00780000
003C0000
001C0000
000E0000
00060000
00000000
07E00F80
07E00F80
07E00F80
0FF01F80
0FF01F00
0FF01F00
0FF81F00
0FF81F00
1FFC3F00
1F7C3E00
1F3C3E00
1F3E3E00
1F3E3E00
3F1E7E00
3E1F7C00
3E1F7C00
3E0F7C00
3E0FFC00
7E07F800
7C07F800
7C07F800
7C03F800
FC03F800
F803F000
F801F000
ENDCHAR
STARTCHAR uni01F9
ENCODING 505
SWIDTH 611 0
DWIDTH 20 0
BBX 19 24 2 0
BITMAP
03C000
01E000
00E000
007000
003000
000000
0F1F00
0F7FC0
1FFFC0
1FFFC0
1F87E0
1F03E0
1E03E0
3E07E0
3E07C0
3E07C0
3C07C0
7C0780
7C0F80
7C0F80
7C0F80
780F00
F81F00
F81F00
ENDCHAR
STARTCHAR Aringacute
ENCODING 506
SWIDTH 722 0
DWIDTH 24 0
BBX 22 37 1 0
BITMAP
0001E0
0003C0
000380
000700
000E00
000000
0001E0
000370
000630
000630
000760
0003C0
000000
0007E0
000FE0
000FE0
001FF0
003FF0
003FF0
007DF0
007DF0
00F9F0
00F9F0
01F0F8
03F0F8
03E0F8
07E0F8
07C0F8
0FFFF8
0FFFF8
1FFFF8
1FFFFC
3E00FC
3E007C
7C007C
FC007C
F8007C
ENDCHAR
STARTCHAR aringacute
ENCODING 507
SWIDTH 556 0
DWIDTH 18 0
BBX 17 31 2 0
BITMAP
000F00
001E00
001C00
003800
007000
000000
001E00
003700
006300
006300
007600
003C00
000000
01FE00
07FF00
0FFF00
1F8F80
1E0780
1E0F80
001F80
07FF80
1FFF00
3FFF00
7E1F00
781F00
F83E00
F87E00
FFFE00
FFFE00
7FBE00
3E3E00
ENDCHAR
STARTCHAR AEacute
ENCODING 508
SWIDTH 1000 0
DWIDTH 32 0
BBX 34 31 0 0
BITMAP
00000F0000
00001E0000
00001C0000
0000380000
0000700000
0000000000
000FFFFFC0
001FFFFFC0
001FFFFF80
003FFFFF80
003DF00000
007DF00000
0079F00000
00F9F00000
00F3E00000
01F3E00000
01E3FFFE00
03E3FFFE00
03C3FFFC00
07C7FFFC00
0787C00000
0F87C00000
0FFFC00000
1FFFC00000
1FFF800000
3FFF800000
3C0F800000
7C0FFFFC00
7C1FFFFC00
F81FFFF800
F81FFFF800
ENDCHAR
STARTCHAR aeacute
ENCODING 509
SWIDTH 889 0
DWIDTH 29 0
BBX 29 25 1 0
BITMAP
0000F000
0001E000
0001C000
00038000
00070000
00000000
00FC1F80
03FF7FE0
07FFFFF0
0FFFFFF0
0F0FE1F8
1F07C0F8
1E0F80F8
001F80F8
03FFFFF8
1FFFFFF8
3FFFFFF8
7E1F0000
781F0000
F83F01F0
FC7F83F0
FFFFFFE0
FFF7FFC0
7FC7FF00
1F01FC00
ENDCHAR
STARTCHAR Oslashacute
ENCODING 510
SWIDTH 778 0
DWIDTH 25 0
BBX 30 31 1 0
BITMAP
00007800
0000F000
0000E000
0001C000
00038000
00000000
0007FC1C
003FFF38
007FFFF0
00FFFFE0
01FE3FC0
03F00FC0
07E00FE0
07C01FE0
0F803BE0
0F8073E0
1F01E3E0
1F03C3E0
1F0783E0
3F0E07C0
3E1C07C0
3E380FC0
3F700F80
3FE01F80
1FC03F00
1F807E00
1FE1FE00
1FFFFC00
3FFFF800
73FFE000
E1FF8000
ENDCHAR
STARTCHAR oslashacute
ENCODING 511
SWIDTH 611 0
DWIDTH 20 0
BBX 23 24 1 0
BITMAP
000780
000F00
000E00
001C00
003800
000000
007F0E
01FFDC
03FFF8
07FFF0
0FC3F0
1F83F0
1F07F0
1E1DF0
3E39F0
3E71F0
3EE3E0
3F83E0
3F07E0
3F0FC0
3FFF80
7FFF00
EFFE00
C3F800
ENDCHAR
STARTCHAR Scommaaccent
ENCODING 536
SWIDTH 667 0
DWIDTH 22 0
BBX 22 37 2 -12
BITMAP
003FC0
01FFF0
03FFF8
07FFFC
0FC1FC
0F807C
1F007C
1F007C
1F0000
1FC000
1FFE00
0FFFC0
07FFF0
00FFF0
000FF8
0001F8
0000F8
F800F0
F801F0
FC01F0
7E07E0
7FFFC0
3FFFC0
1FFF00
07F800
000000
007800
007800
00F800
00F800
00F000
003000
007000
00E000
01C000
038000
020000
ENDCHAR
STARTCHAR scommaaccent
ENCODING 537
SWIDTH 556 0
DWIDTH 18 0
BBX 17 30 2 -12
BITMAP
01FC00
07FF00
0FFF80
1F1F80
1E0780
3E0780
3F8000
1FF000
1FFC00
07FE00
01FF00
003F00
F81F00
F81F00
FE3E00
7FFE00
7FFC00
1FF000
000000
01E000
01E000
03E000
03E000
03C000
00C000
01C000
038000
070000
0E0000
080000
ENDCHAR
STARTCHAR Tcommaaccent
ENCODING 538
SWIDTH 611 0
DWIDTH 20 0
BBX 20 37 5 -12
BITMAP
7FFFF0
7FFFF0
FFFFE0
FFFFE0
01F000
01F000
01F000
01F000
03F000
03E000
03E000
03E000
03E000
07E000
07C000
07C000
07C000
07C000
0F8000
0F8000
0F8000
0F8000
1F8000
1F0000
1F0000
000000
03C000
03C000
07C000
07C000
078000
018000
038000
070000
0E0000
1C0000
100000
ENDCHAR
STARTCHAR tcommaaccent
ENCODING 539
SWIDTH 333 0
DWIDTH 11 0
BBX 11 34 3 -12
BITMAP
0F80
0F80
0F80
0F80
3FE0
7FE0
7FC0
1F00
1F00
1F00
3E00
3E00
3E00
3E00
3E00
7C00
7C00
7C00
7F00
7F00
7F00
3E00
0000
1E00
1E00
3E00
3E00
3C00
0C00
1C00
3800
7000
E000
8000
ENDCHAR
STARTCHAR uni021E
ENCODING 542
SWIDTH 722 0
DWIDTH 24 0
BBX 25 31 2 0
BITMAP
0070E000
0039C000
003B8000
001F0000
001F0000
00000000
07E00F80
07C00F80
07C00F80
07C01F80
07C01F00
0FC01F00
0F801F00
0F801F00
0F803F00
0F803E00
1FFFFE00
1FFFFE00
1FFFFE00
1FFFFE00
1F007C00
3E007C00
3E007C00
3E007C00
3E00F800
7E00F800
7C00F800
7C00F800
7C01F800
7C01F000
FC01F000
ENDCHAR
STARTCHAR uni021F
ENCODING 543
SWIDTH 611 0
DWIDTH 20 0
BBX 19 31 2 0
BITMAP
1C3800
0E7000
0EE000
07C000
07C000
000000
07C000
07C000
078000
078000
0F8000
0F8000
0F0000
0F3F80
0F7FC0
1FFFE0
1FFFE0
1FC7E0
1F03E0
1F03C0
3E07C0
3E07C0
3E07C0
3C07C0
7C0F80
7C0F80
7C0F80
7C0F80
780F00
F81F00
F81F00
ENDCHAR
STARTCHAR uni0226
ENCODING 550
SWIDTH 722 0
DWIDTH 24 0
BBX 22 30 1 0
BITMAP
000F00
000F00
000F00
000F00
000000
0003E0
0007E0
000FE0
001FE0
001FF0
003FF0
003FF0
007DF0
007DF0
00F9F0
00F9F0
01F0F8
03F0F8
03E0F8
07E0F8
07C0F8
0FFFF8
0FFFF8
1FFFF8
1FFFFC
3E00FC
3E007C
7C007C
FC007C
F8007C
ENDCHAR
STARTCHAR uni0227
ENCODING 551
SWIDTH 556 0
DWIDTH 18 0
BBX 17 23 2 0
BITMAP
00F000
00F000
00F000
00F000
000000
01FE00
07FF00
0FFF80
1F8F80
1E0780
1E0780
000F80
03FF80
1FFF00
3FFF00
7E1F00
781F00
F83E00
F87E00
FFFE00
FFFE00
7FBE00
3E3E00
ENDCHAR
STARTCHAR uni0228
ENCODING 552
SWIDTH 667 0
DWIDTH 22 0
BBX 23 32 3 -7
BITMAP
07FFFE
07FFFE
07FFFC
0FFFFC
0F8000
0F8000
0F8000
0F8000
1F0000
1F0000
1FFFF0
1FFFF0
1FFFE0
3FFFE0
3E0000
3E0000
3E0000
3E0000
7C0000
7C0000
7C0000
7FFFE0
FFFFE0
FFFFC0
FFFFC0
00C000
00C000
00F000
003800
003800
07F000
07E000
ENDCHAR
STARTCHAR uni0229
ENCODING 553
SWIDTH 556 0
DWIDTH 18 0
BBX 17 25 3 -7
BITMAP
01F800
07FE00
1FFF00
1F9F00
3E0F80
7C0780
780780
FFFF80
FFFF80
FFFF80
F00000
F80000
F80F00
7C1F00
7FFE00
3FFC00
1FF800
07E000
018000
018000
01E000
007000
007000
0FE000
0FC000
ENDCHAR
STARTCHAR uni022A
ENCODING 554
SWIDTH 778 0
DWIDTH 25 0
BBX 24 35 4 0
BITMAP
007FE0
007FE0
007FE0
000000
003C78
003C78
003C78
003C78
000000
000000
001F80
00FFF0
03FFF8
07FFFC
0FE1FE
1F807E
3F003E
3E003F
7E001F
7C001F
7C001F
FC001F
F8001F
F8001E
F8003E
F8003E
F8007E
F8007C
FC00FC
7C01F8
7F07F0
3FFFE0
3FFFC0
0FFF00
03FC00
ENDCHAR
STARTCHAR uni022B
ENCODING 555
SWIDTH 611 0
DWIDTH 20 0
BBX 18 28 3 0
BITMAP
03FF00
03FF00
03FF00
000000
03C780
03C780
03C780
03C780
000000
000000
01FC00
07FF00
0FFF80
1FFFC0
3F0FC0
7E07C0
7C07C0
7807C0
F807C0
F807C0
F80F80
F80F80
F81F80
FC3F00
FFFE00
7FFC00
3FF800
0FE000
ENDCHAR
STARTCHAR uni022C
ENCODING 556
SWIDTH 778 0
DWIDTH 25 0
BBX 24 35 4 0
BITMAP
007FE0
007FE0
007FE0
000000
000E08
001F18
003FF0
0063E0
0041C0
000000
001F80
00FFF0
03FFF8
07FFFC
0FE1FE
1F807E
3F003E
3E003F
7E001F
7C001F
7C001F
FC001F
F8001F
F8001F
F8003E
F8003E
F8007E
F8007C
FC00FC
7C01F8
7F07F0
3FFFE0
1FFFC0
0FFF00
03FC00
ENDCHAR
STARTCHAR uni022D
ENCODING 557
SWIDTH 611 0
DWIDTH 20 0
BBX 18 28 3 0
BITMAP
03FF00
03FF00
03FF00
000000
007040
00F8C0
01FF80
031F00
020E00
000000
01FC00
07FF00
0FFF80
1FFFC0
3F0FC0
7E07C0
7C07C0
7807C0
F807C0
F807C0
F80F80
F80F80
F81F80
FC3F00
FFFE00
7FFC00
3FF800
0FE000
ENDCHAR
STARTCHAR uni022E
ENCODING 558
SWIDTH 778 0
DWIDTH 25 0
BBX 25 30 3 0
BITMAP
000F0000
000F0000
000F0000
000F0000
00000000
001FE000
00FFFC00
01FFFE00
03FFFE00
07F0FF00
0FC03F00
1F801F80
1F001F80
3E000F80
3E000F80
7C000F80
7C000F80
78000F80
F8001F00
F8001F00
F8003F00
F8003E00
FC007E00
FC00FC00
7E01F800
7F87F800
3FFFF000
1FFFE000
0FFF8000
03FE0000
ENDCHAR
STARTCHAR uni022F
ENCODING 559
SWIDTH 611 0
DWIDTH 20 0
BBX 18 23 3 0
BITMAP
00F000
00F000
00F000
00F000
000000
01FC00
07FF00
0FFF80
1FFFC0
3F0FC0
7E07C0
7C07C0
7C07C0
F807C0
F807C0
F80F80
F80F80
F81F80
FC3F00
7FFE00
7FFC00
3FF800
0FE000
ENDCHAR
STARTCHAR uni0230
ENCODING 560
SWIDTH 778 0
DWIDTH 25 0
BBX 25 34 3 0
BITMAP
007FE000
007FE000
007FE000
00000000
000F0000
000F0000
000F0000
000F0000
00000000
001FE000
00FFFC00
01FFFE00
03FFFE00
07F0FF00
0FC03F00
1F801F80
1F001F80
3E000F80
3E000F80
7C000F80
7C000F80
78000F80
F8001F00
F8001F00
F8003F00
F8003E00
FC007E00
FC00FC00
7E01F800
7F87F800
3FFFF000
1FFFE000
0FFF8000
03FE0000
ENDCHAR
STARTCHAR uni0231
ENCODING 561
SWIDTH 611 0
DWIDTH 20 0
BBX 18 27 3 0
BITMAP
07FE00
07FE00
07FE00
000000
00F000
00F000
00F000
00F000
000000
01FC00
07FF00
0FFF80
1FFFC0
3F0FC0
7E07C0
7C07C0
7C07C0
F807C0
F807C0
F80F80
F80F80
F81F80
FC3F00
7FFE00
7FFC00
3FF800
0FE000
ENDCHAR
STARTCHAR uni0232
ENCODING 562
SWIDTH 667 0
DWIDTH 22 0
BBX 20 29 6 0
BITMAP
07FE00
07FE00
07FE00
000000
FC01F0
7C03F0
7E03E0
7E07E0
3E0FC0
3E0F80
3E1F00
3F3F00
1F3E00
1F7C00
1FFC00
0FF800
0FF000
0FF000
0FE000
07C000
07C000
0FC000
0F8000
0F8000
0F8000
0F8000
1F8000
1F0000
1F0000
ENDCHAR
STARTCHAR uni0233
ENCODING 563
SWIDTH 556 0
DWIDTH 18 0
BBX 21 29 1 -7
BITMAP
03FF00
03FF00
03FF00
000000
1F00F8
1F01F0
1F01E0
0F83E0
0F83C0
0F87C0
0F8780
0F8F80
0F8F00
0F9E00
079E00
07BC00
07FC00
07F800
07F800
07F000
07E000
03E000
07C000
07C000
0F8000
7F8000
7F0000
FE0000
F80000
ENDCHAR
STARTCHAR uni0250
ENCODING 592
SWIDTH 556 0
DWIDTH 18 0
BBX 17 18 2 0
BITMAP
3E3E00
3EFF00
3FFF80
3FFF80
3F0F80
3E0F80
7C0F00
7C3F00
7FFE00
7FFC00
FFE000
F80000
F03C00
F03C00
F8FC00
FFF800
7FF000
3FC000
ENDCHAR
STARTCHAR uni0259
ENCODING 601
SWIDTH 556 0
DWIDTH 18 0
BBX 17 18 3 0
BITMAP
03F000
0FFC00
1FFE00
3FFF00
7C1F00
780F80
000F80
000780
FFFF80
FFFF80
FFFF80
F00F00
F01F00
F83E00
7CFC00
7FFC00
3FF000
0FC000
ENDCHAR
STARTCHAR uni025F
ENCODING 607
SWIDTH 333 0
DWIDTH 11 0
BBX 13 25 3 -7
BITMAP
00F8
00F8
00F0
01F0
01F0
01F0
01F0
03E0
03E0
03E0
03E0
03C0
07C0
07C0
07C0
1FF0
3FF0
3FE0
0F80
0F80
0F80
1F00
7F00
FE00
FC00
ENDCHAR
STARTCHAR uni0265
ENCODING 613
SWIDTH 611 0
DWIDTH 20 0
BBX 19 25 2 -7
BITMAP
1F03E0
1F03E0
1E03C0
3E07C0
3E07C0
3E07C0
3E07C0
7C0780
7C0F80
7C0F80
7C0F80
781F00
F81F00
FC7F00
FFFF00
FFFF00
7FDE00
3F9E00
001E00
003E00
003E00
003C00
003C00
007C00
007C00
ENDCHAR
STARTCHAR uni0275
ENCODING 629
SWIDTH 611 0
DWIDTH 20 0
BBX 18 18 3 0
BITMAP
01FC00
07FF00
0FFF80
1FFFC0
3F0FC0
7E07C0
7C07C0
7C07C0
FFFFC0
FFFFC0
F80F80
F80F80
F81F80
FC3F00
7FFE00
7FFC00
3FF800
0FE000
ENDCHAR
STARTCHAR uni0279
ENCODING 633
SWIDTH 389 0
DWIDTH 13 0
BBX 14 18 2 0
BITMAP
007C
007C
0078
00F8
00F8
00F8
00F8
01F0
01F0
01F0
01F0
03E0
07E0
7FE0
FFE0
FBE0
F3C0
C3C0
ENDCHAR
STARTCHAR uni0287
ENCODING 647
SWIDTH 333 0
DWIDTH 11 0
BBX 10 22 4 0
BITMAP
0F80
1FC0
1FC0
1FC0
07C0
07C0
07C0
0F80
0F80
0F80
0F80
0F80
1F00
1F00
1F00
7FC0
FFC0
FF80
3E00
3E00
3E00
3E00
ENDCHAR
STARTCHAR uni0289
ENCODING 649
SWIDTH 611 0
DWIDTH 20 0
BBX 19 18 3 0
BITMAP
1F03E0
1F03E0
1E03E0
3E07C0
3E07C0
3C07C0
3C0780
7C0F80
FFFFE0
FFFFE0
780F80
F81F00
F81F00
FC3F00
FFFF00
FFFE00
7FDE00
1F1E00
ENDCHAR
STARTCHAR uni028C
ENCODING 652
SWIDTH 556 0
DWIDTH 18 0
BBX 17 18 4 0
BITMAP
003E00
007E00
007E00
00FE00
01FF00
01FF00
03EF00
03CF00
07CF00
078F00
0F8F00
0F0F80
1F0F80
3E0F80
3E0F80
7C0F80
7C0F80
F80F80
ENDCHAR
STARTCHAR uni028D
ENCODING 653
SWIDTH 778 0
DWIDTH 25 0
BBX 25 18 3 0
BITMAP
00F81F00
00F83F00
01F83F00
01F87F00
03F87F00
03F8FF00
07F8FF00
07B8EF00
0FB9EF00
0F39CF00
1F3BCF80
1E3BCF80
3E3F8F80
3E3F8F80
7C3F0F80
7C3F0F80
F83E0F80
F83E0F80
ENDCHAR
STARTCHAR uni028E
ENCODING 654
SWIDTH 556 0
DWIDTH 18 0
BBX 21 25 1 0
BITMAP
0000F8
0003F8
0007F0
000FF0
000F80
001F00
001F00
003E00
003F00
007F00
00FF00
00FF00
01FF00
01EF00
03CF00
03CF80
078F80
0F8F80
0F0F80
1F0F80
1E0F80
3E0F80
3C07C0
7C07C0
F807C0
ENDCHAR
STARTCHAR uni029E
ENCODING 670
SWIDTH 556 0
DWIDTH 18 0
BBX 19 25 2 -7
BITMAP
1F03E0
1F03E0
0F83E0
0F87C0
0F87C0
07C7C0
07CFC0
03FF80
03FF80
01FF80
01FF80
03FF00
07FF00
0FDF00
1F9F00
3F1F00
7E1E00
FC3E00
003E00
003E00
003E00
003C00
007C00
007C00
007C00
ENDCHAR
STARTCHAR uni02BB
ENCODING 699
SWIDTH 278 0
DWIDTH 9 0
BBX 6 8 5 17
BITMAP
1C
38
70
E0
F8
F8
F8
F8
ENDCHAR
STARTCHAR afii57929
ENCODING 700
SWIDTH 278 0
DWIDTH 9 0
BBX 6 8 6 17
BITMAP
7C
7C
7C
7C
1C
38
70
E0
ENDCHAR
STARTCHAR afii64937
ENCODING 701
SWIDTH 278 0
DWIDTH 9 0
BBX 6 8 6 17
BITMAP
F8
F8
F8
F8
E0
70
38
1C
ENDCHAR
STARTCHAR circumflex
ENCODING 710
SWIDTH 333 0
DWIDTH 11 0
BBX 9 5 6 20
BITMAP
1E00
3F00
7700
E380
C180
ENDCHAR
STARTCHAR caron
ENCODING 711
SWIDTH 333 0
DWIDTH 11 0
BBX 10 5 6 20
BITMAP
E1C0
7380
7700
3E00
3E00
ENDCHAR
STARTCHAR uni02C8
ENCODING 712
SWIDTH 238 0
DWIDTH 8 0
BBX 5 9 6 16
BITMAP
F8
F8
F8
F0
F0
F0
E0
E0
C0
ENDCHAR
STARTCHAR macron
ENCODING 713
SWIDTH 333 0
DWIDTH 11 0
BBX 10 3 5 21
BITMAP
FFC0
FFC0
FFC0
ENDCHAR
STARTCHAR uni02CA
ENCODING 714
SWIDTH 333 0
DWIDTH 11 0
BBX 7 5 7 21
BITMAP
1E
3C
38
70
E0
ENDCHAR
STARTCHAR uni02CB
ENCODING 715
SWIDTH 333 0
DWIDTH 11 0
BBX 6 5 6 20
BITMAP
F0
78
38
1C
0C
ENDCHAR
STARTCHAR uni02CD
ENCODING 717
SWIDTH 333 0
DWIDTH 11 0
BBX 10 3 5 -4
BITMAP
FFC0
FFC0
FFC0
ENDCHAR
STARTCHAR uni02CE
ENCODING 718
SWIDTH 333 0
DWIDTH 11 0
BBX 6 5 6 -6
BITMAP
F0
78
38
1C
0C
ENDCHAR
STARTCHAR uni02CF
ENCODING 719
SWIDTH 333 0
DWIDTH 11 0
BBX 7 5 7 -6
BITMAP
1E
3C
38
70
E0
ENDCHAR
STARTCHAR breve
ENCODING 728
SWIDTH 333 0
DWIDTH 11 0
BBX 9 5 6 20
BITMAP
8080
C180
FF00
7E00
3C00
ENDCHAR
STARTCHAR dotaccent
ENCODING 729
SWIDTH 333 0
DWIDTH 11 0
BBX 4 4 9 21
BITMAP
F0
F0
F0
F0
ENDCHAR
STARTCHAR ring
ENCODING 730
SWIDTH 333 0
DWIDTH 11 0
BBX 6 6 7 19
BITMAP
38
6C
4C
CC
D8
70
ENDCHAR
STARTCHAR ogonek
ENCODING 731
SWIDTH 333 0
DWIDTH 11 0
BBX 8 8 1 -7
BITMAP
38
70
70
70
F0
FF
7E
3C
ENDCHAR
STARTCHAR tilde
ENCODING 732
SWIDTH 333 0
DWIDTH 11 0
BBX 12 5 4 19
BITMAP
1C10
3E30
7FE0
C7C0
8380
ENDCHAR
STARTCHAR hungarumlaut
ENCODING 733
SWIDTH 333 0
DWIDTH 11 0
BBX 12 5 4 20
BITMAP
3CF0
79E0
71C0
E380
C300
ENDCHAR
STARTCHAR uni02EE
ENCODING 750
SWIDTH 500 0
DWIDTH 16 0
BBX 14 8 6 17
BITMAP
3C7C
3C7C
7C78
7C78
0C18
1830
3870
E0E0
ENDCHAR
STARTCHAR uni037E
ENCODING 894
SWIDTH 333 0
DWIDTH 11 0
BBX 9 23 3 -6
BITMAP
0780
0780
0F80
0F00
0F00
0000
0000
0000
0000
0000
0000
0000
3E00
3E00
7E00
7C00
7C00
0C00
1800
3800
7000
E000
8000
ENDCHAR
STARTCHAR tonos
ENCODING 900
SWIDTH 333 0
DWIDTH 11 0
BBX 7 5 7 21
BITMAP
1E
3C
38
70
E0
ENDCHAR
STARTCHAR dieresistonos
ENCODING 901
SWIDTH 333 0
DWIDTH 11 0
BBX 11 10 5 21
BITMAP
03C0
0780
0700
0E00
1C00
0000
F1E0
F1E0
F1E0
F1E0
ENDCHAR
STARTCHAR anoteleia
ENCODING 903
SWIDTH 278 0
DWIDTH 9 0
BBX 4 4 5 11
BITMAP
70
F0
F0
E0
ENDCHAR
STARTCHAR mu
ENCODING 956
SWIDTH 611 0
DWIDTH 20 0
BBX 21 25 1 -7
BITMAP
0780F8
0780F8
0F81F0
0F81F0
0F81F0
0F01F0
0F01E0
1F03E0
1F03E0
1F03E0
1E03E0
3E03C0
3E07C0
3F0FC0
3FFFC0
3FFF80
7FFF80
7FCF80
7C0000
7C0000
780000
F80000
F80000
F80000
F00000
ENDCHAR
STARTCHAR uni1E00
ENCODING 7680
SWIDTH 722 0
DWIDTH 24 0
BBX 22 32 1 -7
BITMAP
0003E0
0007E0
000FE0
001FE0
001FF0
003FF0
003FF0
007DF0
007DF0
00F9F0
00F9F0
01F0F8
03F0F8
03E0F8
07E0F8
07C0F8
0FFFF8
0FFFF8
1FFFF8
1FFFFC
3E00FC
3E007C
7C007C
FC007C
F8007C
000000
003800
006C00
004C00
00CC00
00D800
007000
ENDCHAR
STARTCHAR uni1E01
ENCODING 7681
SWIDTH 556 0
DWIDTH 18 0
BBX 17 25 2 -7
BITMAP
01FE00
07FF00
0FFF80
1F8F80
1E0780
1E0780
000F80
03FF80
1FFF00
3FFF00
7E1F00
781F00
F83E00
F87E00
FFFE00
FFFE00
7FBE00
3E3E00
000000
01C000
036000
026000
066000
06C000
038000
ENDCHAR
STARTCHAR uni1E02
ENCODING 7682
SWIDTH 722 0
DWIDTH 24 0
BBX 23 30 3 0
BITMAP
001E00
001E00
001E00
001E00
000000
07FFE0
07FFF8
07FFFC
0FFFFE
0F807E
0F803E
0F803E
0F803C
1F807C
1F01F8
1FFFF0
1FFFE0
1FFFF0
3FFFF0
3E01F8
3E00F8
3E00F8
3E00F8
7C00F8
7C01F0
7C07F0
7FFFE0
FFFFC0
FFFF80
FFFE00
ENDCHAR
STARTCHAR uni1E03
ENCODING 7683
SWIDTH 611 0
DWIDTH 20 0
BBX 19 30 2 0
BITMAP
03C000
03C000
03C000
03C000
000000
07C000
07C000
07C000
078000
0F8000
0F8000
0F8000
0FBF00
0F7FC0
1FFFC0
1FFFE0
1FC7E0
1F83E0
1F03E0
3E03E0
3E03E0
3E03E0
3E03C0
7E07C0
7E0F80
7F1F80
7FFF00
7FFE00
FBFC00
F9F000
ENDCHAR
STARTCHAR uni1E04
ENCODING 7684
SWIDTH 722 0
DWIDTH 24 0
BBX 23 30 3 -5
BITMAP
07FFE0
07FFF8
07FFFC
0FFFFE
0F807E
0F803E
0F803E
0F803C
1F807C
1F01F8
1FFFF0
1FFFE0
1FFFF0
3FFFF0
3E01F8
3E00F8
3E00F8
3E00F8
7C00F8
7C01F0
7C07F0
7FFFE0
FFFFC0
FFFF80
FFFE00
000000
00F000
00F000
00F000
00F000
ENDCHAR
STARTCHAR uni1E05
ENCODING 7685
SWIDTH 611 0
DWIDTH 20 0
BBX 19 30 2 -5
BITMAP
07C000
07C000
07C000
078000
0F8000
0F8000
0F8000
0FBF00
0F7FC0
1FFFC0
1FFFE0
1FC7E0
1F83E0
1F03E0
3E03E0
3E03E0
3E03E0
3E03C0
7E07C0
7E0F80
7F1F80
7FFF00
7FFE00
FBFC00
F9F000
000000
01E000
01E000
01E000
01E000
ENDCHAR
STARTCHAR uni1E06
ENCODING 7686
SWIDTH 722 0
DWIDTH 24 0
BBX 23 29 3 -4
BITMAP
07FFE0
07FFF8
07FFFC
0FFFFE
0F807E
0F803E
0F803E
0F803C
1F807C
1F01F8
1FFFF0
1FFFE0
1FFFF0
3FFFF0
3E01F8
3E00F8
3E00F8
3E00F8
7C00F8
7C01F0
7C07F0
7FFFE0
FFFFC0
FFFF80
FFFE00
000000
07FE00
07FE00
07FE00
ENDCHAR
STARTCHAR uni1E07
ENCODING 7687
SWIDTH 611 0
DWIDTH 20 0
BBX 19 29 2 -4
BITMAP
07C000
07C000
07C000
078000
0F8000
0F8000
0F8000
0FBF00
0F7FC0
1FFFC0
1FFFE0
1FC7E0
1F83E0
1F03E0
3E03E0
3E03E0
3E03E0
3E03C0
7E07C0
7E0F80
7F1F80
7FFF00
7FFE00
FBFC00
F9F000
000000
0FFC00
0FFC00
0FFC00
ENDCHAR
STARTCHAR uni1E08
ENCODING 7688
SWIDTH 722 0
DWIDTH 23 0
BBX 23 38 2 -7
BITMAP
000780
000F00
000E00
001C00
003800
000000
003FE0
00FFF8
01FFFC
07FFFC
0FF0FE
0FC07E
1F803E
3F003E
3E003E
3E0000
7C0000
7C0000
7C0000
FC0000
F80000
F80000
F8007C
FC00FC
7C00F8
7E03F0
7F0FF0
3FFFE0
3FFFC0
1FFF00
07F800
00C000
00C000
00F000
003800
003800
07F000
07E000
ENDCHAR
STARTCHAR uni1E09
ENCODING 7689
SWIDTH 556 0
DWIDTH 18 0
BBX 17 31 3 -7
BITMAP
003C00
007800
007000
00E000
01C000
000000
01FC00
07FE00
1FFF00
1FFF00
3E1F80
7C0F80
7C0F80
F80000
F80000
F80000
F80000
F81E00
F83E00
F87E00
FFFC00
7FF800
7FF000
1FC000
060000
060000
078000
01C000
01C000
3F8000
3F0000
ENDCHAR
STARTCHAR uni1E0A
ENCODING 7690
SWIDTH 722 0
DWIDTH 24 0
BBX 23 30 3 0
BITMAP
001E00
001E00
001E00
001E00
000000
07FFE0
07FFF8
07FFFC
0FFFFC
0F81FE
0F807E
0F803E
0F803E
1F803E
1F003E
1F003E
1F003E
1F003E
3F007E
3E007C
3E007C
3E00F8
3E00F8
7C01F0
7C03F0
7C0FE0
7FFFC0
FFFF80
FFFF00
FFFC00
ENDCHAR
STARTCHAR uni1E0B
ENCODING 7691
SWIDTH 611 0
DWIDTH 20 0
BBX 20 30 3 0
BITMAP
000780
000780
000780
000780
000000
0000F0
0000F0
0001F0
0001E0
0001E0
0003E0
0003E0
03F3E0
0FFBC0
1FFFC0
1FFFC0
3F1FC0
7E0FC0
7C0F80
F80F80
F80F80
F80F80
F81F80
F81F00
F83F00
FC7F00
FFFF00
7FFE00
3FDE00
1F1E00
ENDCHAR
STARTCHAR uni1E0C
ENCODING 7692
SWIDTH 722 0
DWIDTH 24 0
BBX 23 30 3 -5
BITMAP
07FFE0
07FFF8
07FFFC
0FFFFC
0F81FE
0F807E
0F803E
0F803E
1F803E
1F003E
1F003E
1F003E
1F003E
3F007E
3E007C
3E007C
3E00F8
3E00F8
7C01F0
7C03F0
7C0FE0
7FFFC0
FFFF80
FFFF00
FFFC00
000000
00F000
00F000
00F000
00F000
ENDCHAR
STARTCHAR uni1E0D
ENCODING 7693
SWIDTH 611 0
DWIDTH 20 0
BBX 20 30 3 -5
BITMAP
0000F0
0000F0
0001F0
0001E0
0001E0
0003E0
0003E0
03F3E0
0FFBC0
1FFFC0
1FFFC0
3F1FC0
7E0FC0
7C0F80
F80F80
F80F80
F80F80
F81F80
F81F00
F83F00
FC7F00
FFFF00
7FFE00
3FDE00
1F1E00
000000
01E000
01E000
01E000
01E000
ENDCHAR
STARTCHAR uni1E0E
ENCODING 7694
SWIDTH 722 0
DWIDTH 24 0
BBX 23 29 3 -4
BITMAP
07FFE0
07FFF8
07FFFC
0FFFFC
0F81FE
0F807E
0F803E
0F803E
1F803E
1F003E
1F003E
1F003E
1F003E
3F007E
3E007C
3E007C
3E00F8
3E00F8
7C01F0
7C03F0
7C0FE0
7FFFC0
FFFF80
FFFF00
FFFC00
000000
07FE00
07FE00
07FE00
ENDCHAR
STARTCHAR uni1E0F
ENCODING 7695
SWIDTH 611 0
DWIDTH 20 0
BBX 20 29 3 -4
BITMAP
0000F0
0000F0
0001F0
0001E0
0001E0
0003E0
0003E0
03F3E0
0FFBC0
1FFFC0
1FFFC0
3F1FC0
7E0FC0
7C0F80
F80F80
F80F80
F80F80
F81F80
F81F00
F83F00
FC7F00
FFFF00
7FFE00
3FDE00
1F1E00
000000
0FFC00
0FFC00
0FFC00
ENDCHAR
STARTCHAR uni1E10
ENCODING 7696
SWIDTH 722 0
DWIDTH 24 0
BBX 23 32 3 -7
BITMAP
07FFE0
07FFF8
07FFFC
0FFFFC
0F81FE
0F807E
0F803E
0F803E
1F803E
1F003E
1F003E
1F003E
1F003E
3F007E
3E007C
3E007C
3E00F8
3E00F8
7C01F0
7C03F0
7C0FE0
7FFFC0
FFFF80
FFFF00
FFFC00
006000
006000
007800
001C00
001C00
03F800
03F000
ENDCHAR
STARTCHAR uni1E11
ENCODING 7697
SWIDTH 611 0
DWIDTH 20 0
BBX 20 32 3 -7
BITMAP
0000F0
0000F0
0001F0
0001E0
0001E0
0003E0
0003E0
03F3E0
0FFBC0
1FFFC0
1FFFC0
3F1FC0
7E0FC0
7C0F80
F80F80
F80F80
F80F80
F81F80
F81F00
F83F00
FC7F00
FFFF00
7FFE00
3FDE00
1F1E00
00C000
00C000
00F000
003800
003800
07F000
07E000
ENDCHAR
STARTCHAR uni1E12
ENCODING 7698
SWIDTH 722 0
DWIDTH 24 0
BBX 23 31 3 -6
BITMAP
07FFE0
07FFF8
07FFFC
0FFFFC
0F81FE
0F807E
0F803E
0F803E
1F803E
1F003E
1F003E
1F003E
1F003E
3F007E
3E007C
3E007C
3E00F8
3E00F8
7C01F0
7C03F0
7C0FE0
7FFFC0
FFFF80
FFFF00
FFFC00
000000
00F000
01F800
03B800
071C00
060C00
ENDCHAR
STARTCHAR uni1E13
ENCODING 7699
SWIDTH 611 0
DWIDTH 20 0
BBX 20 31 3 -6
BITMAP
0000F0
0000F0
0001F0
0001E0
0001E0
0003E0
0003E0
03F3E0
0FFBC0
1FFFC0
1FFFC0
3F1FC0
7E0FC0
7C0F80
F80F80
F80F80
F80F80
F81F80
F81F00
F83F00
FC7F00
FFFF00
7FFE00
3FDE00
1F1E00
000000
01E000
03F000
077000
0E3800
0C1800
ENDCHAR
STARTCHAR uni1E14
ENCODING 7700
SWIDTH 667 0
DWIDTH 22 0
BBX 23 35 3 0
BITMAP
00F000
007800
003800
001C00
000C00
000000
01FF80
01FF80
01FF80
000000
07FFFE
07FFFE
07FFFC
0FFFFC
0F8000
0F8000
0F8000
0F8000
1F0000
1F0000
1FFFF0
1FFFF0
1FFFE0
3FFFE0
3E0000
3E0000
3E0000
3E0000
7C0000
7C0000
7C0000
7FFFE0
FFFFE0
FFFFC0
FFFFC0
ENDCHAR
STARTCHAR uni1E15
ENCODING 7701
SWIDTH 556 0
DWIDTH 18 0
BBX 17 28 3 0
BITMAP
078000
03C000
01C000
00E000
006000
000000
0FFC00
0FFC00
0FFC00
000000
01F800
07FE00
1FFF00
1F9F00
3E0F80
7C0780
780780
FFFF80
FFFF80
FFFF80
F00000
F80000
F80F00
7C1F00
7FFE00
3FFC00
1FF800
07E000
ENDCHAR
STARTCHAR uni1E16
ENCODING 7702
SWIDTH 667 0
DWIDTH 22 0
BBX 23 35 3 0
BITMAP
000780
000F00
000E00
001C00
003800
000000
01FF80
01FF80
01FF80
000000
07FFFE
07FFFE
07FFFC
0FFFFC
0F8000
0F8000
0F8000
0F8000
1F0000
1F0000
1FFFF0
1FFFF0
1FFFE0
3FFFE0
3E0000
3E0000
3E0000
3E0000
7C0000
7C0000
7C0000
7FFFE0
FFFFE0
FFFFC0
FFFFC0
ENDCHAR
STARTCHAR uni1E17
ENCODING 7703
SWIDTH 556 0
DWIDTH 18 0
BBX 17 28 3 0
BITMAP
003C00
007800
007000
00E000
01C000
000000
0FFC00
0FFC00
0FFC00
000000
01F800
07FE00
1FFF00
1F9F00
3E0F80
7C0780
780780
FFFF80
FFFF80
FFFF80
F00000
F80000
F80F00
7C1F00
7FFE00
3FFC00
1FF800
07E000
ENDCHAR
STARTCHAR uni1E18
ENCODING 7704
SWIDTH 667 0
DWIDTH 22 0
BBX 23 31 3 -6
BITMAP
07FFFE
07FFFE
07FFFC
0FFFFC
0F8000
0F8000
0F8000
0F8000
1F0000
1F0000
1FFFF0
1FFFF0
1FFFE0
3FFFE0
3E0000
3E0000
3E0000
3E0000
7C0000
7C0000
7C0000
7FFFE0
FFFFE0
FFFFC0
FFFFC0
000000
00F000
01F800
03B800
071C00
060C00
ENDCHAR
STARTCHAR uni1E19
ENCODING 7705
SWIDTH 556 0
DWIDTH 18 0
BBX 17 24 3 -6
BITMAP
01F800
07FE00
1FFF00
1F9F00
3E0F80
7C0780
780780
FFFF80
FFFF80
FFFF80
F00000
F80000
F80F00
7C1F00
7FFE00
3FFC00
1FF800
07E000
000000
03C000
07E000
0EE000
1C7000
183000
ENDCHAR
STARTCHAR uni1E1A
ENCODING 7706
SWIDTH 667 0
DWIDTH 22 0
BBX 23 31 3 -6
BITMAP
07FFFE
07FFFE
07FFFC
0FFFFC
0F8000
0F8000
0F8000
0F8000
1F0000
1F0000
1FFFF0
1FFFF0
1FFFE0
3FFFE0
3E0000
3E0000
3E0000
3E0000
7C0000
7C0000
7C0000
7FFFE0
FFFFE0
FFFFC0
FFFFC0
000000
038200
07C600
0FFC00
18F800
107000
ENDCHAR
STARTCHAR uni1E1B
ENCODING 7707
SWIDTH 556 0
DWIDTH 18 0
BBX 17 24 3 -6
BITMAP
01F800
07FE00
1FFF00
1F9F00
3E0F80
7C0780
780780
FFFF80
FFFF80
FFFF80
F00000
F80000
F80F00
7C1F00
7FFE00
3FFC00
1FF800
07E000
000000
070400
0F8C00
1FF800
31F000
20E000
ENDCHAR
STARTCHAR uni1E1C
ENCODING 7708
SWIDTH 667 0
DWIDTH 22 0
BBX 23 38 3 -7
BITMAP
010100
018300
01FE00
00FC00
007800
000000
07FFFE
07FFFE
07FFFC
0FFFFC
0F8000
0F8000
0F8000
0F8000
1F0000
1F0000
1FFFF0
1FFFF0
1FFFE0
3FFFE0
3E0000
3E0000
3E0000
3E0000
7C0000
7C0000
7C0000
7FFFE0
FFFFE0
FFFFC0
FFFFC0
00C000
00C000
00F000
003800
003800
07F000
07E000
ENDCHAR
STARTCHAR uni1E1D
ENCODING 7709
SWIDTH 556 0
DWIDTH 18 0
BBX 17 31 3 -7
BITMAP
040400
060C00
07F800
03F000
01E000
000000
01F800
07FE00
1FFF00
1F9F00
3E0F80
7C0780
780780
FFFF80
FFFF80
FFFF80
F00000
F80000
F80F00
7C1F00
7FFE00
3FFC00
1FF800
07E000
018000
018000
01E000
007000
007000
0FE000
0FC000
ENDCHAR
STARTCHAR uni1E1E
ENCODING 7710
SWIDTH 611 0
DWIDTH 20 0
BBX 22 30 2 0
BITMAP
003C00
003C00
003C00
003C00
000000
07FFFC
07FFFC
07FFF8
0FFFF8
0F8000
0F8000
0F8000
0F8000
1F0000
1F0000
1FFFE0
1FFFE0
1FFFC0
3FFFC0
3E0000
3E0000
3E0000
3E0000
7C0000
7C0000
7C0000
7C0000
FC0000
F80000
F80000
ENDCHAR
STARTCHAR uni1E1F
ENCODING 7711
SWIDTH 333 0
DWIDTH 11 0
BBX 13 30 3 0
BITMAP
03C0
03C0
03C0
03C0
0000
01F8
03F8
07F0
07C0
0F80
0F80
0F80
3FE0
7FE0
7FC0
1F00
1F00
1F00
1E00
3E00
3E00
3E00
3E00
7C00
7C00
7C00
7C00
7800
F800
F800
ENDCHAR
STARTCHAR uni1E20
ENCODING 7712
SWIDTH 778 0
DWIDTH 25 0
BBX 25 29 3 0
BITMAP
007FE000
007FE000
007FE000
00000000
001FF000
007FFC00
01FFFE00
03FFFF00
07F87F00
0FC01F80
1F801F80
1F000F80
3E000000
3E000000
7E000000
7C000000
7C03FF00
7C07FF00
F807FE00
F807FE00
FC003E00
FC003E00
7C007E00
7E00FC00
7F83FC00
3FFFFC00
1FFFBC00
0FFF3800
03F80000
ENDCHAR
STARTCHAR uni1E21
ENCODING 7713
SWIDTH 611 0
DWIDTH 20 0
BBX 21 29 1 -7
BITMAP
01FF80
01FF80
01FF80
000000
00FC78
01FE78
07FF78
0FFFF0
0FC7F0
1F03F0
1E01F0
3E01E0
3C01E0
3C03E0
3C03E0
3C03E0
3C07C0
3E1FC0
3FFFC0
1FFFC0
1FF7C0
07C780
000F80
F00F80
F01F00
F87F00
7FFE00
7FF800
1FE000
ENDCHAR
STARTCHAR uni1E22
ENCODING 7714
SWIDTH 722 0
DWIDTH 24 0
BBX 25 30 2 0
BITMAP
000F0000
000F0000
000F0000
000F0000
00000000
07E00F80
07C00F80
07C00F80
07C01F80
07C01F00
0FC01F00
0F801F00
0F801F00
0F803F00
0F803E00
1FFFFE00
1FFFFE00
1FFFFE00
1FFFFE00
1F007C00
3E007C00
3E007C00
3E007C00
3E00F800
7E00F800
7C00F800
7C00F800
7C01F800
7C01F000
FC01F000
ENDCHAR
STARTCHAR uni1E23
ENCODING 7715
SWIDTH 611 0
DWIDTH 20 0
BBX 19 30 2 0
BITMAP
03C000
03C000
03C000
03C000
000000
07C000
07C000
078000
078000
0F8000
0F8000
0F0000
0F3F80
0F7FC0
1FFFE0
1FFFE0
1FC7E0
1F03E0
1F03C0
3E07C0
3E07C0
3E07C0
3C07C0
7C0F80
7C0F80
7C0F80
7C0F80
780F00
F81F00
F81F00
ENDCHAR
STARTCHAR uni1E24
ENCODING 7716
SWIDTH 722 0
DWIDTH 24 0
BBX 25 30 2 -5
BITMAP
07E00F80
07C00F80
07C00F80
07C01F80
07C01F00
0FC01F00
0F801F00
0F801F00
0F803F00
0F803E00
1FFFFE00
1FFFFE00
1FFFFE00
1FFFFE00
1F007C00
3E007C00
3E007C00
3E007C00
3E00F800
7E00F800
7C00F800
7C00F800
7C01F800
7C01F000
FC01F000
00000000
00780000
00780000
00780000
00780000
ENDCHAR
STARTCHAR uni1E25
ENCODING 7717
SWIDTH 611 0
DWIDTH 20 0
BBX 19 30 2 -5
BITMAP
07C000
07C000
078000
078000
0F8000
0F8000
0F0000
0F3F80
0F7FC0
1FFFE0
1FFFE0
1FC7E0
1F03E0
1F03C0
3E07C0
3E07C0
3E07C0
3C07C0
7C0F80
7C0F80
7C0F80
7C0F80
780F00
F81F00
F81F00
000000
01E000
01E000
01E000
01E000
ENDCHAR
STARTCHAR uni1E26
ENCODING 7718
SWIDTH 722 0
DWIDTH 24 0
BBX 25 30 2 0
BITMAP
00F1E000
00F1E000
00F1E000
00F1E000
00000000
07E00F80
07C00F80
07C00F80
07C01F80
07C01F00
0FC01F00
0F801F00
0F801F00
0F803F00
0F803E00
1FFFFE00
1FFFFE00
1FFFFE00
1FFFFE00
1F007C00
3E007C00
3E007C00
3E007C00
3E00F800
7E00F800
7C00F800
7C00F800
7C01F800
7C01F000
FC01F000
ENDCHAR
STARTCHAR uni1E27
ENCODING 7719
SWIDTH 611 0
DWIDTH 20 0
BBX 19 30 2 0
BITMAP
3C7800
3C7800
3C7800
3C7800
000000
07C000
07C000
078000
078000
0F8000
0F8000
0F0000
0F3F80
0F7FC0
1FFFE0
1FFFE0
1FC7E0
1F03E0
1F03C0
3E07C0
3E07C0
3E07C0
3C07C0
7C0F80
7C0F80
7C0F80
7C0F80
780F00
F81F00
F81F00
ENDCHAR
STARTCHAR uni1E28
ENCODING 7720
SWIDTH 722 0
DWIDTH 24 0
BBX 25 32 2 -7
BITMAP
07E00F80
07C00F80
07C00F80
07C01F80
07C01F00
0FC01F00
0F801F00
0F801F00
0F803F00
0F803E00
1FFFFE00
1FFFFE00
1FFFFE00
1FFFFE00
1F007C00
3E007C00
3E007C00
3E007C00
3E00F800
7E00F800
7C00F800
7C00F800
7C01F800
7C01F000
FC01F000
00300000
00300000
003C0000
000E0000
000E0000
01FC0000
01F80000
ENDCHAR
STARTCHAR uni1E29
ENCODING 7721
SWIDTH 611 0
DWIDTH 20 0
BBX 19 32 2 -7
BITMAP
07C000
07C000
078000
078000
0F8000
0F8000
0F0000
0F3F80
0F7FC0
1FFFE0
1FFFE0
1FC7E0
1F03E0
1F03C0
3E07C0
3E07C0
3E07C0
3C07C0
7C0F80
7C0F80
7C0F80
7C0F80
780F00
F81F00
F81F00
00C000
00C000
00F000
003800
003800
07F000
07E000
ENDCHAR
STARTCHAR uni1E2A
ENCODING 7722
SWIDTH 722 0
DWIDTH 24 0
BBX 25 31 2 -6
BITMAP
07E00F80
07C00F80
07C00F80
07C01F80
07C01F00
0FC01F00
0F801F00
0F801F00
0F803F00
0F803E00
1FFFFE00
1FFFFE00
1FFFFE00
1FFFFE00
1F007C00
3E007C00
3E007C00
3E007C00
3E00F800
7E00F800
7C00F800
7C00F800
7C01F800
7C01F000
FC01F000
00000000
01010000
01830000
01FE0000
00FC0000
00780000
ENDCHAR
STARTCHAR uni1E2B
ENCODING 7723
SWIDTH 611 0
DWIDTH 20 0
BBX 19 31 2 -6
BITMAP
07C000
07C000
078000
078000
0F8000
0F8000
0F0000
0F3F80
0F7FC0
1FFFE0
1FFFE0
1FC7E0
1F03E0
1F03C0
3E07C0
3E07C0
3E07C0
3C07C0
7C0F80
7C0F80
7C0F80
7C0F80
780F00
F81F00
F81F00
000000
080800
0C1800
0FF000
07E000
03C000
ENDCHAR
STARTCHAR uni1E2C
ENCODING 7724
SWIDTH 278 0
DWIDTH 9 0
BBX 12 31 0 -6
BITMAP
01F0
01F0
01F0
03F0
03E0
03E0
03E0
03E0
07E0
07C0
07C0
07C0
07C0
0FC0
0F80
0F80
0F80
0F80
1F00
1F00
1F00
1F00
3F00
3E00
3E00
0000
1C10
3E30
7FE0
C7C0
8380
ENDCHAR
STARTCHAR uni1E2D
ENCODING 7725
SWIDTH 278 0
DWIDTH 9 0
BBX 12 31 0 -6
BITMAP
00F0
01F0
01F0
01E0
0000
0000
0000
03E0
03E0
07C0
07C0
07C0
07C0
07C0
0F80
0F80
0F80
0F80
1F00
1F00
1F00
1F00
3E00
3E00
3E00
0000
1C10
3E30
7FE0
C7C0
8380
ENDCHAR
STARTCHAR uni1E2E
ENCODING 7726
SWIDTH 278 0
DWIDTH 9 0
BBX 14 37 2 0
BITMAP
00F0
01E0
01C0
0380
0700
0000
1E3C
1E3C
1E3C
1E3C
0000
0000
07C0
07C0
07C0
0FC0
0F80
0F80
0F80
0F80
1F80
1F00
1F00
1F00
1F00
3F00
3E00
3E00
3E00
3E00
7C00
7C00
7C00
7C00
FC00
F800
F800
ENDCHAR
STARTCHAR uni1E2F
ENCODING 7727
SWIDTH 278 0
DWIDTH 9 0
BBX 13 30 2 0
BITMAP
00F0
01E0
01C0
0380
0700
0000
3C78
3C78
3C78
3C78
0000
0000
0F80
0F80
1F00
1F00
1F00
1F00
1E00
3E00
3E00
3E00
3E00
7C00
7C00
7C00
7C00
7800
F800
F800
ENDCHAR
STARTCHAR uni1E30
ENCODING 7728
SWIDTH 722 0
DWIDTH 24 0
BBX 25 31 2 0
BITMAP
0003C000
00078000
00070000
000E0000
001C0000
00000000
07C01F80
07C03F00
07C07E00
0FC0FC00
0F81F800
0F83F000
0F87E000
0F8FC000
1FBF8000
1F7E0000
1FFC0000
1FF80000
1FFC0000
3FFE0000
3FBE0000
3E3F0000
3E1F0000
3E1F8000
7C0F8000
7C0FC000
7C07E000
7C07E000
FC03F000
F803F000
F801F800
ENDCHAR
STARTCHAR uni1E31
ENCODING 7729
SWIDTH 556 0
DWIDTH 18 0
BBX 19 31 2 0
BITMAP
00F000
01E000
01C000
038000
070000
000000
07C000
07C000
07C000
078000
0F8000
0F8000
0F8000
0F87E0
0F0FC0
1F1F80
1F3F00
1F7E00
1FFC00
1FF800
3FF000
3FF000
3FF800
3FF800
7E7C00
7C7C00
7C3E00
7C3E00
F83E00
F81F00
F81F00
ENDCHAR
STARTCHAR uni1E32
ENCODING 7730
SWIDTH 722 0
DWIDTH 24 0
BBX 25 30 2 -5
BITMAP
07C01F80
07C03F00
07C07E00
0FC0FC00
0F81F800
0F83F000
0F87E000
0F8FC000
1FBF8000
1F7E0000
1FFC0000
1FF80000
1FFC0000
3FFE0000
3FBE0000
3E3F0000
3E1F0000
3E1F8000
7C0F8000
7C0FC000
7C07E000
7C07E000
FC03F000
F803F000
F801F800
00000000
00780000
00780000
00780000
00780000
ENDCHAR
STARTCHAR uni1E33
ENCODING 7731
SWIDTH 556 0
DWIDTH 18 0
BBX 19 30 2 -5
BITMAP
07C000
07C000
07C000
078000
0F8000
0F8000
0F8000
0F87E0
0F0FC0
1F1F80
1F3F00
1F7E00
1FFC00
1FF800
3FF000
3FF000
3FF800
3FF800
7E7C00
7C7C00
7C3E00
7C3E00
F83E00
F81F00
F81F00
000000
03C000
03C000
03C000
03C000
ENDCHAR
STARTCHAR uni1E34
ENCODING 7732
SWIDTH 722 0
DWIDTH 24 0
BBX 25 29 2 -4
BITMAP
07C01F80
07C03F00
07C07E00
0FC0FC00
0F81F800
0F83F000
0F87E000
0F8FC000
1FBF8000
1F7E0000
1FFC0000
1FF80000
1FFC0000
3FFE0000
3FBE0000
3E3F0000
3E1F0000
3E1F8000
7C0F8000
7C0FC000
7C07E000
7C07E000
FC03F000
F803F000
F801F800
00000000
03FF0000
03FF0000
03FF0000
ENDCHAR
STARTCHAR uni1E35
ENCODING 7733
SWIDTH 556 0
DWIDTH 18 0
BBX 19 29 2 -4
BITMAP
07C000
07C000
07C000
078000
0F8000
0F8000
0F8000
0F87E0
0F0FC0
1F1F80
1F3F00
1F7E00
1FFC00
1FF800
3FF000
3FF000
3FF800
3FF800
7E7C00
7C7C00
7C3E00
7C3E00
F83E00
F81F00
F81F00
000000
1FF800
1FF800
1FF800
ENDCHAR
STARTCHAR uni1E36
ENCODING 7734
SWIDTH 611 0
DWIDTH 20 0
BBX 17 30 3 -5
BITMAP
07C000
07C000
07C000
0FC000
0F8000
0F8000
0F8000
0F8000
1F8000
1F0000
1F0000
1F0000
1F0000
3F0000
3E0000
3E0000
3E0000
3E0000
7C0000
7C0000
7C0000
7FFF80
FFFF80
FFFF00
FFFF00
000000
03C000
03C000
03C000
03C000
ENDCHAR
STARTCHAR uni1E37
ENCODING 7735
SWIDTH 278 0
DWIDTH 9 0
BBX 10 30 2 -5
BITMAP
07C0
07C0
07C0
0F80
0F80
0F80
0F80
1F00
1F00
1F00
1F00
1F00
3F00
3E00
3E00
3E00
3E00
3E00
7C00
7C00
7C00
7C00
F800
F800
F800
0000
3C00
3C00
3C00
3C00
ENDCHAR
STARTCHAR uni1E38
ENCODING 7736
SWIDTH 611 0
DWIDTH 20 0
BBX 17 34 3 -5
BITMAP
3FF000
3FF000
3FF000
000000
07C000
07C000
07C000
0FC000
0F8000
0F8000
0F8000
0F8000
1F8000
1F0000
1F0000
1F0000
1F0000
3F0000
3E0000
3E0000
3E0000
3E0000
7C0000
7C0000
7C0000
7FFF80
FFFF80
FFFF00
FFFF00
000000
03C000
03C000
03C000
03C000
ENDCHAR
STARTCHAR uni1E39
ENCODING 7737
SWIDTH 278 0
DWIDTH 9 0
BBX 11 34 2 -5
BITMAP
7FE0
7FE0
7FE0
0000
07C0
07C0
07C0
0F80
0F80
0F80
0F80
1F00
1F00
1F00
1F00
1F00
3F00
3E00
3E00
3E00
3E00
3E00
7C00
7C00
7C00
7C00
F800
F800
F800
0000
3C00
3C00
3C00
3C00
ENDCHAR
STARTCHAR uni1E3A
ENCODING 7738
SWIDTH 611 0
DWIDTH 20 0
BBX 17 29 3 -4
BITMAP
07C000
07C000
07C000
0FC000
0F8000
0F8000
0F8000
0F8000
1F8000
1F0000
1F0000
1F0000
1F0000
3F0000
3E0000
3E0000
3E0000
3E0000
7C0000
7C0000
7C0000
7FFF80
FFFF80
FFFF00
FFFF00
000000
1FF800
1FF800
1FF800
ENDCHAR
STARTCHAR uni1E3B
ENCODING 7739
SWIDTH 278 0
DWIDTH 9 0
BBX 11 29 1 -4
BITMAP
03E0
03E0
03E0
07C0
07C0
07C0
07C0
0F80
0F80
0F80
0F80
0F80
1F80
1F00
1F00
1F00
1F00
1F00
3E00
3E00
3E00
3E00
7C00
7C00
7C00
0000
FFC0
FFC0
FFC0
ENDCHAR
STARTCHAR uni1E3C
ENCODING 7740
SWIDTH 611 0
DWIDTH 20 0
BBX 17 31 3 -6
BITMAP
07C000
07C000
07C000
0FC000
0F8000
0F8000
0F8000
0F8000
1F8000
1F0000
1F0000
1F0000
1F0000
3F0000
3E0000
3E0000
3E0000
3E0000
7C0000
7C0000
7C0000
7FFF80
FFFF80
FFFF00
FFFF00
000000
03C000
07E000
0EE000
1C7000
183000
ENDCHAR
STARTCHAR uni1E3D
ENCODING 7741
SWIDTH 278 0
DWIDTH 9 0
BBX 11 31 1 -6
BITMAP
03E0
03E0
03E0
07C0
07C0
07C0
07C0
0F80
0F80
0F80
0F80
0F80
1F80
1F00
1F00
1F00
1F00
1F00
3E00
3E00
3E00
3E00
7C00
7C00
7C00
0000
1E00
3F00
7700
E380
C180
ENDCHAR
STARTCHAR uni1E3E
ENCODING 7742
SWIDTH 833 0
DWIDTH 27 0
BBX 28 31 2 0
BITMAP
0000F000
0001E000
0001C000
00038000
00070000
00000000
07F807F0
07F80FF0
07F80FF0
0FF80FF0
0FF81FE0
0FF81FE0
0FF83FE0
0FF83BE0
1F787BE0
1F7877C0
1F78F7C0
1F78F7C0
1F78E7C0
3E79EFC0
3E79CF80
3E7BCF80
3E7BCF80
3E7F8F80
7C7F9F00
7C7F1F00
7C7F1F00
7C7E1F00
FC7E1F00
F87E3E00
F87C3E00
ENDCHAR
STARTCHAR uni1E3F
ENCODING 7743
SWIDTH 889 0
DWIDTH 29 0
BBX 28 24 2 0
BITMAP
0001E000
0003C000
00038000
00070000
000E0000
00000000
0F1F0FC0
0F7FBFE0
1FFFFFE0
1FFFFFF0
1F8FE3F0
1F07C1F0
1E0781E0
3E0F83E0
3E0F83E0
3E0F83E0
3C0F03E0
7C0F03C0
7C1F07C0
7C1F07C0
7C1F07C0
781E0780
F83E0F80
F83E0F80
ENDCHAR
STARTCHAR uni1E40
ENCODING 7744
SWIDTH 833 0
DWIDTH 27 0
BBX 28 30 2 0
BITMAP
00078000
00078000
00078000
00078000
00000000
07F807F0
07F80FF0
07F80FF0
0FF80FF0
0FF81FE0
0FF81FE0
0FF83FE0
0FF83BE0
1F787BE0
1F7877C0
1F78F7C0
1F78F7C0
1F78E7C0
3E79EFC0
3E79CF80
3E7BCF80
3E7BCF80
3E7F8F80
7C7F9F00
7C7F1F00
7C7F1F00
7C7E1F00
FC7E1F00
F87E3E00
F87C3E00
ENDCHAR
STARTCHAR uni1E41
ENCODING 7745
SWIDTH 889 0
DWIDTH 29 0
BBX 28 23 2 0
BITMAP
00078000
00078000
00078000
00078000
00000000
0F1F0FC0
0F7FBFE0
1FFFFFE0
1FFFFFF0
1F8FE3F0
1F07C1F0
1E0781E0
3E0F83E0
3E0F83E0
3E0F83E0
3C0F03E0
7C0F03C0
7C1F07C0
7C1F07C0
7C1F07C0
781E0780
F83E0F80
F83E0F80
ENDCHAR
STARTCHAR uni1E42
ENCODING 7746
SWIDTH 833 0
DWIDTH 27 0
BBX 28 30 2 -5
BITMAP
07F807F0
07F80FF0
07F80FF0
0FF80FF0
0FF81FE0
0FF81FE0
0FF83FE0
0FF83BE0
1F787BE0
1F7877C0
1F78F7C0
1F78F7C0
1F78E7C0
3E79EFC0
3E79CF80
3E7BCF80
3E7BCF80
3E7F8F80
7C7F9F00
7C7F1F00
7C7F1F00
7C7E1F00
FC7E1F00
F87E3E00
F87C3E00
00000000
001E0000
001E0000
001E0000
001E0000
ENDCHAR
STARTCHAR uni1E43
ENCODING 7747
SWIDTH 889 0
DWIDTH 29 0
BBX 28 23 2 -5
BITMAP
0F1F0FC0
0F7FBFE0
1FFFFFE0
1FFFFFF0
1F8FE3F0
1F07C1F0
1E0781E0
3E0F83E0
3E0F83E0
3E0F83E0
3C0F03E0
7C0F03C0
7C1F07C0
7C1F07C0
7C1F07C0
781E0780
F83E0F80
F83E0F80
00000000
001E0000
001E0000
001E0000
001E0000
ENDCHAR
STARTCHAR uni1E44
ENCODING 7748
SWIDTH 722 0
DWIDTH 24 0
BBX 25 30 2 0
BITMAP
001E0000
001E0000
001E0000
001E0000
00000000
07E00F80
07E00F80
07E00F80
0FF01F80
0FF01F00
0FF01F00
0FF81F00
0FF81F00
1FFC3F00
1F7C3E00
1F3C3E00
1F3E3E00
1F3E3E00
3F1E7E00
3E1F7C00
3E1F7C00
3E0F7C00
3E0FFC00
7E07F800
7C07F800
7C07F800
7C03F800
FC03F800
F803F000
F801F000
ENDCHAR
STARTCHAR uni1E45
ENCODING 7749
SWIDTH 611 0
DWIDTH 20 0
BBX 19 23 2 0
BITMAP
00F000
00F000
00F000
00F000
000000
0F1F00
0F7FC0
1FFFC0
1FFFC0
1F87E0
1F03E0
1E03E0
3E07E0
3E07C0
3E07C0
3C07C0
7C0780
7C0F80
7C0F80
7C0F80
780F00
F81F00
F81F00
ENDCHAR
STARTCHAR uni1E46
ENCODING 7750
SWIDTH 722 0
DWIDTH 24 0
BBX 25 30 2 -5
BITMAP
07E00F80
07E00F80
07E00F80
0FF01F80
0FF01F00
0FF01F00
0FF81F00
0FF81F00
1FFC3F00
1F7C3E00
1F3C3E00
1F3E3E00
1F3E3E00
3F1E7E00
3E1F7C00
3E1F7C00
3E0F7C00
3E0FFC00
7E07F800
7C07F800
7C07F800
7C03F800
FC03F800
F803F000
F801F000
00000000
003C0000
003C0000
003C0000
003C0000
ENDCHAR
STARTCHAR uni1E47
ENCODING 7751
SWIDTH 611 0
DWIDTH 20 0
BBX 19 23 2 -5
BITMAP
0F1F00
0F7FC0
1FFFC0
1FFFC0
1F87E0
1F03E0
1E03E0
3E07E0
3E07C0
3E07C0
3C07C0
7C0780
7C0F80
7C0F80
7C0F80
780F00
F81F00
F81F00
000000
01E000
01E000
01E000
01E000
ENDCHAR
STARTCHAR uni1E48
ENCODING 7752
SWIDTH 722 0
DWIDTH 24 0
BBX 25 29 2 -4
BITMAP
07E00F80
07E00F80
07E00F80
0FF01F80
0FF01F00
0FF01F00
0FF81F00
0FF81F00
1FFC3F00
1F7C3E00
1F3C3E00
1F3E3E00
1F3E3E00
3F1E7E00
3E1F7C00
3E1F7C00
3E0F7C00
3E0FFC00
7E07F800
7C07F800
7C07F800
7C03F800
FC03F800
F803F000
F801F000
00000000
01FF8000
01FF8000
01FF8000
ENDCHAR
STARTCHAR uni1E49
ENCODING 7753
SWIDTH 611 0
DWIDTH 20 0
BBX 19 22 2 -4
BITMAP
0F1F00
0F7FC0
1FFFC0
1FFFC0
1F87E0
1F03E0
1E03E0
3E07E0
3E07C0
3E07C0
3C07C0
7C0780
7C0F80
7C0F80
7C0F80
780F00
F81F00
F81F00
000000
0FFC00
0FFC00
0FFC00
ENDCHAR
STARTCHAR uni1E4A
ENCODING 7754
SWIDTH 722 0
DWIDTH 24 0
BBX 25 31 2 -6
BITMAP
07E00F80
07E00F80
07E00F80
0FF01F80
0FF01F00
0FF01F00
0FF81F00
0FF81F00
1FFC3F00
1F7C3E00
1F3C3E00
1F3E3E00
1F3E3E00
3F1E7E00
3E1F7C00
3E1F7C00
3E0F7C00
3E0FFC00
7E07F800
7C07F800
7C07F800
7C03F800
FC03F800
F803F000
F801F000
00000000
003C0000
007E0000
00EE0000
01C70000
01830000
ENDCHAR
STARTCHAR uni1E4B
ENCODING 7755
SWIDTH 611 0
DWIDTH 20 0
BBX 19 24 2 -6
BITMAP
0F1F00
0F7FC0
1FFFC0
1FFFC0
1F87E0
1F03E0
1E03E0
3E07E0
3E07C0
3E07C0
3C07C0
7C0780
7C0F80
7C0F80
7C0F80
780F00
F81F00
F81F00
000000
01E000
03F000
077000
0E3800
0C1800
ENDCHAR
STARTCHAR uni1E4C
ENCODING 7756
SWIDTH 778 0
DWIDTH 25 0
BBX 24 37 4 0
BITMAP
0003C0
000780
000700
000E00
001C00
000000
000E08
001F18
003FF0
0063E0
0041C0
000000
001F80
00FFF0
03FFF8
07FFFC
0FE1FE
1F807E
3F003E
3E003F
7E001F
7C001F
7C001F
FC001F
F8001F
F8001F
F8003E
F8003E
F8007E
F8007C
FC00FC
7C01F8
7F07F0
3FFFE0
1FFFC0
0FFF00
03FC00
ENDCHAR
STARTCHAR uni1E4D
ENCODING 7757
SWIDTH 611 0
DWIDTH 20 0
BBX 18 30 3 0
BITMAP
001E00
003C00
003800
007000
00E000
000000
007040
00F8C0
01FF80
031F00
020E00
000000
01FC00
07FF00
0FFF80
1FFFC0
3F0FC0
7E07C0
7C07C0
7807C0
F807C0
F807C0
F80F80
F80F80
F81F80
FC3F00
FFFE00
7FFC00
3FF800
0FE000
ENDCHAR
STARTCHAR uni1E4E
ENCODING 7758
SWIDTH 778 0
DWIDTH 25 0
BBX 24 36 4 0
BITMAP
00F1E0
00F1E0
00F1E0
00F1E0
000000
000E08
001F18
003FF0
0063E0
0041C0
000000
001F80
00FFF0
03FFF8
07FFFC
0FE1FE
1F807E
3F003E
3E003F
7E001F
7C001F
7C001F
FC001F
F8001F
F8001F
F8003E
F8003E
F8007E
F8007C
FC00FC
7C01F8
7F07F0
3FFFE0
1FFFC0
0FFF00
03FC00
ENDCHAR
STARTCHAR uni1E4F
ENCODING 7759
SWIDTH 611 0
DWIDTH 20 0
BBX 18 29 3 0
BITMAP
078F00
078F00
078F00
078F00
000000
007040
00F8C0
01FF80
031F00
020E00
000000
01FC00
07FF00
0FFF80
1FFFC0
3F0FC0
7E07C0
7C07C0
7807C0
F807C0
F807C0
F80F80
F80F80
F81F80
FC3F00
FFFE00
7FFC00
3FF800
0FE000
ENDCHAR
STARTCHAR uni1E50
ENCODING 7760
SWIDTH 778 0
DWIDTH 25 0
BBX 25 35 3 0
BITMAP
003C0000
001E0000
000E0000
00070000
00030000
00000000
007FE000
007FE000
007FE000
00000000
001FE000
00FFFC00
01FFFE00
03FFFE00
07F0FF00
0FC03F00
1F801F80
1F001F80
3E000F80
3E000F80
7C000F80
7C000F80
78000F80
F8001F00
F8001F00
F8003F00
F8003E00
FC007E00
FC00FC00
7E01F800
7F87F800
3FFFF000
1FFFE000
0FFF8000
03FE0000
ENDCHAR
STARTCHAR uni1E51
ENCODING 7761
SWIDTH 611 0
DWIDTH 20 0
BBX 18 28 3 0
BITMAP
03C000
01E000
00E000
007000
003000
000000
07FE00
07FE00
07FE00
000000
01FC00
07FF00
0FFF80
1FFFC0
3F0FC0
7E07C0
7C07C0
7C07C0
F807C0
F807C0
F80F80
F80F80
F81F80
FC3F00
7FFE00
7FFC00
3FF800
0FE000
ENDCHAR
STARTCHAR uni1E52
ENCODING 7762
SWIDTH 778 0
DWIDTH 25 0
BBX 25 35 3 0
BITMAP
0003C000
00078000
00070000
000E0000
001C0000
00000000
007FE000
007FE000
007FE000
00000000
001FE000
00FFFC00
01FFFE00
03FFFE00
07F0FF00
0FC03F00
1F801F80
1F001F80
3E000F80
3E000F80
7C000F80
7C000F80
78000F80
F8001F00
F8001F00
F8003F00
F8003E00
FC007E00
FC00FC00
7E01F800
7F87F800
3FFFF000
1FFFE000
0FFF8000
03FE0000
ENDCHAR
STARTCHAR uni1E53
ENCODING 7763
SWIDTH 611 0
DWIDTH 20 0
BBX 18 28 3 0
BITMAP
003C00
007800
007000
00E000
01C000
000000
07FE00
07FE00
07FE00
000000
01FC00
07FF00
0FFF80
1FFFC0
3F0FC0
7E07C0
7C07C0
7C07C0
F807C0
F807C0
F80F80
F80F80
F81F80
FC3F00
7FFE00
7FFC00
3FF800
0FE000
ENDCHAR
STARTCHAR uni1E54
ENCODING 7764
SWIDTH 667 0
DWIDTH 22 0
BBX 22 31 3 0
BITMAP
000780
000F00
000E00
001C00
003800
000000
07FFE0
07FFF8
07FFF8
0FFFFC
0F80FC
0F807C
0F807C
0F807C
1F00F8
1F00F8
1F01F8
1F03F0
1FFFF0
3FFFE0
3FFFC0
3FFF00
3E0000
3E0000
7C0000
7C0000
7C0000
7C0000
F80000
F80000
F80000
ENDCHAR
STARTCHAR uni1E55
ENCODING 7765
SWIDTH 611 0
DWIDTH 20 0
BBX 20 31 1 -7
BITMAP
000F00
001E00
001C00
003800
007000
000000
078F80
07BFC0
0FFFE0
0FFFE0
0FE3F0
0FC1F0
0F81F0
1F01F0
1F01F0
1F01F0
1F01F0
3F03E0
3F03E0
3F8FC0
3FFFC0
3FFF80
7DFE00
7CFC00
7C0000
780000
780000
F80000
F80000
F80000
F00000
ENDCHAR
STARTCHAR uni1E56
ENCODING 7766
SWIDTH 667 0
DWIDTH 22 0
BBX 22 30 3 0
BITMAP
003C00
003C00
003C00
003C00
000000
07FFE0
07FFF8
07FFF8
0FFFFC
0F80FC
0F807C
0F807C
0F807C
1F00F8
1F00F8
1F01F8
1F03F0
1FFFF0
3FFFE0
3FFFC0
3FFF00
3E0000
3E0000
7C0000
7C0000
7C0000
7C0000
F80000
F80000
F80000
ENDCHAR
STARTCHAR uni1E57
ENCODING 7767
SWIDTH 611 0
DWIDTH 20 0
BBX 20 30 1 -7
BITMAP
007800
007800
007800
007800
000000
078F80
07BFC0
0FFFE0
0FFFE0
0FE3F0
0FC1F0
0F81F0
1F01F0
1F01F0
1F01F0
1F01F0
3F03E0
3F03E0
3F8FC0
3FFFC0
3FFF80
7DFE00
7CFC00
7C0000
780000
780000
F80000
F80000
F80000
F00000
ENDCHAR
STARTCHAR uni1E58
ENCODING 7768
SWIDTH 722 0
DWIDTH 24 0
BBX 23 30 3 0
BITMAP
001E00
001E00
001E00
001E00
000000
07FFF8
07FFFC
07FFFE
0FFFFE
0F807E
0F803E
0F803E
0F803E
1F007C
1F007C
1F01F8
1FFFF0
1FFFE0
3FFFE0
3FFFF0
3E03F0
3E01F0
3E01F0
7C01F0
7C03E0
7C03E0
7C03E0
F803E0
F803E0
F803E0
ENDCHAR
STARTCHAR uni1E59
ENCODING 7769
SWIDTH 389 0
DWIDTH 13 0
BBX 14 23 2 0
BITMAP
03C0
03C0
03C0
03C0
0000
0F0C
0F3C
1F7C
1FFC
1FF8
1F80
1F00
3E00
3E00
3E00
3E00
7C00
7C00
7C00
7C00
7800
F800
F800
ENDCHAR
STARTCHAR uni1E5A
ENCODING 7770
SWIDTH 722 0
DWIDTH 24 0
BBX 23 30 3 -5
BITMAP
07FFF8
07FFFC
07FFFE
0FFFFE
0F807E
0F803E
0F803E
0F803E
1F007C
1F007C
1F01F8
1FFFF0
1FFFE0
3FFFE0
3FFFF0
3E03F0
3E01F0
3E01F0
7C01F0
7C03E0
7C03E0
7C03E0
F803E0
F803E0
F803E0
000000
00F000
00F000
00F000
00F000
ENDCHAR
STARTCHAR uni1E5B
ENCODING 7771
SWIDTH 389 0
DWIDTH 13 0
BBX 14 23 2 -5
BITMAP
0F0C
0F3C
1F7C
1FFC
1FF8
1F80
1F00
3E00
3E00
3E00
3E00
7C00
7C00
7C00
7C00
7800
F800
F800
0000
3C00
3C00
3C00
3C00
ENDCHAR
STARTCHAR uni1E5C
ENCODING 7772
SWIDTH 722 0
DWIDTH 24 0
BBX 23 34 3 -5
BITMAP
00FFC0
00FFC0
00FFC0
000000
07FFF8
07FFFC
07FFFE
0FFFFE
0F807E
0F803E
0F803E
0F803E
1F007C
1F007C
1F01F8
1FFFF0
1FFFE0
3FFFE0
3FFFF0
3E03F0
3E01F0
3E01F0
7C01F0
7C03E0
7C03E0
7C03E0
F803E0
F803E0
F803E0
000000
00F000
00F000
00F000
00F000
ENDCHAR
STARTCHAR uni1E5D
ENCODING 7773
SWIDTH 389 0
DWIDTH 13 0
BBX 14 27 2 -5
BITMAP
1FF8
1FF8
1FF8
0000
0F0C
0F3C
1F7C
1FFC
1FF8
1F80
1F00
3E00
3E00
3E00
3E00
7C00
7C00
7C00
7C00
7800
F800
F800
0000
3C00
3C00
3C00
3C00
ENDCHAR
STARTCHAR uni1E5E
ENCODING 7774
SWIDTH 722 0
DWIDTH 24 0
BBX 23 29 3 -4
BITMAP
07FFF8
07FFFC
07FFFE
0FFFFE
0F807E
0F803E
0F803E
0F803E
1F007C
1F007C
1F01F8
1FFFF0
1FFFE0
3FFFE0
3FFFF0
3E03F0
3E01F0
3E01F0
7C01F0
7C03E0
7C03E0
7C03E0
F803E0
F803E0
F803E0
000000
07FE00
07FE00
07FE00
ENDCHAR
STARTCHAR uni1E5F
ENCODING 7775
SWIDTH 389 0
DWIDTH 13 0
BBX 15 22 1 -4
BITMAP
0786
079E
0FBE
0FFE
0FFC
0FC0
0F80
1F00
1F00
1F00
1F00
3E00
3E00
3E00
3E00
3C00
7C00
7C00
0000
FFC0
FFC0
FFC0
ENDCHAR
STARTCHAR uni1E60
ENCODING 7776
SWIDTH 667 0
DWIDTH 22 0
BBX 22 30 2 0
BITMAP
001E00
001E00
001E00
001E00
000000
003FC0
01FFF0
03FFF8
07FFFC
0FC1FC
0F807C
1F007C
1F007C
1F0000
1FC000
1FFE00
0FFFC0
07FFF0
00FFF0
000FF8
0001F8
0000F8
F800F0
F801F0
FC01F0
7E07E0
7FFFC0
3FFFC0
1FFF00
07F800
ENDCHAR
STARTCHAR uni1E61
ENCODING 7777
SWIDTH 556 0
DWIDTH 18 0
BBX 17 23 2 0
BITMAP
00F000
00F000
00F000
00F000
000000
01FC00
07FF00
0FFF80
1F1F80
1E0780
3E0780
3F8000
1FF000
1FFC00
07FE00
01FF00
003F00
F81F00
F81F00
FE3E00
7FFE00
7FFC00
1FF000
ENDCHAR
STARTCHAR uni1E62
ENCODING 7778
SWIDTH 667 0
DWIDTH 22 0
BBX 22 30 2 -5
BITMAP
003FC0
01FFF0
03FFF8
07FFFC
0FC1FC
0F807C
1F007C
1F007C
1F0000
1FC000
1FFE00
0FFFC0
07FFF0
00FFF0
000FF8
0001F8
0000F8
F800F0
F801F0
FC01F0
7E07E0
7FFFC0
3FFFC0
1FFF00
07F800
000000
00F000
00F000
00F000
00F000
ENDCHAR
STARTCHAR uni1E63
ENCODING 7779
SWIDTH 556 0
DWIDTH 18 0
BBX 17 23 2 -5
BITMAP
01FC00
07FF00
0FFF80
1F1F80
1E0780
3E0780
3F8000
1FF000
1FFC00
07FE00
01FF00
003F00
F81F00
F81F00
FE3E00
7FFE00
7FFC00
1FF000
000000
03C000
03C000
03C000
03C000
ENDCHAR
STARTCHAR uni1E64
ENCODING 7780
SWIDTH 667 0
DWIDTH 22 0
BBX 22 36 2 0
BITMAP
001E00
001E00
001E00
001E00
000000
000780
000F00
000E00
001C00
003800
000000
003FC0
01FFF0
03FFF8
07FFFC
0FC1FC
0F807C
1F007C
1F007C
1F0000
1FC000
1FFE00
0FFFC0
07FFF0
00FFF0
000FF8
0001F8
0000F8
F800F0
F801F0
FC01F0
7E07E0
7FFFC0
3FFFC0
1FFF00
07F800
ENDCHAR
STARTCHAR uni1E65
ENCODING 7781
SWIDTH 556 0
DWIDTH 18 0
BBX 17 29 2 0
BITMAP
00F000
00F000
00F000
00F000
000000
003C00
007800
007000
00E000
01C000
000000
01FC00
07FF00
0FFF80
1F1F80
1E0780
3E0780
3F8000
1FF000
1FFC00
07FE00
01FF00
003F00
F81F00
F81F00
FE3E00
7FFE00
7FFC00
1FF000
ENDCHAR
STARTCHAR uni1E66
ENCODING 7782
SWIDTH 667 0
DWIDTH 22 0
BBX 22 32 2 0
BITMAP
001E00
001E00
001E00
001E00
000000
003870
001CE0
001DC0
000F80
000F80
000000
000000
003FC0
01FFF0
03FFF8
07FFFC
0FC1FC
1F007C
1F807C
0FF800
0FFFC0
03FFF0
007FF8
0003F8
F800F8
F800F0
FC01F0
7E07E0
7FFFC0
3FFFC0
1FFF00
07F800
ENDCHAR
STARTCHAR uni1E67
ENCODING 7783
SWIDTH 556 0
DWIDTH 18 0
BBX 17 30 2 0
BITMAP
007800
007800
007800
007800
000000
01C380
00E700
00EE00
007C00
007C00
000000
000000
01FC00
07FF00
0FFF80
1F9F80
1E0780
3E0780
3F8000
3FF800
1FFE00
0FFF00
01FF00
003F00
F81F00
F81F00
FE3E00
7FFE00
7FFC00
1FF000
ENDCHAR
STARTCHAR uni1E68
ENCODING 7784
SWIDTH 667 0
DWIDTH 22 0
BBX 22 35 2 -5
BITMAP
003C00
003C00
003C00
003C00
000000
003FC0
01FFF0
03FFF8
07FFFC
0FC1FC
0F807C
1F007C
1F007C
1F0000
1FC000
1FFE00
0FFFC0
07FFF0
00FFF0
000FF8
0001F8
0000F8
F800F0
F801F0
FC01F0
7E07E0
7FFFC0
3FFFC0
1FFF00
07F800
000000
00F000
00F000
00F000
00F000
ENDCHAR
STARTCHAR uni1E69
ENCODING 7785
SWIDTH 556 0
DWIDTH 18 0
BBX 17 28 2 -5
BITMAP
00F000
00F000
00F000
00F000
000000
01FC00
07FF00
0FFF80
1F1F80
1E0780
3E0780
3F8000
1FF000
1FFC00
07FE00
01FF00
003F00
F81F00
F81F00
FE3E00
7FFE00
7FFC00
1FF000
000000
03C000
03C000
03C000
03C000
ENDCHAR
STARTCHAR uni1E6A
ENCODING 7786
SWIDTH 611 0
DWIDTH 20 0
BBX 20 30 5 0
BITMAP
00F000
00F000
00F000
00F000
000000
7FFFF0
7FFFF0
FFFFE0
FFFFE0
01F000
01F000
01F000
01F000
03F000
03E000
03E000
03E000
03E000
07E000
07C000
07C000
07C000
07C000
0F8000
0F8000
0F8000
0F8000
1F8000
1F0000
1F0000
ENDCHAR
STARTCHAR uni1E6B
ENCODING 7787
SWIDTH 333 0
DWIDTH 11 0
BBX 10 27 4 0
BITMAP
1E00
1E00
1E00
1E00
0000
1F00
1F00
1F00
1F00
7FC0
FFC0
FF80
3E00
3E00
3E00
7C00
7C00
7C00
7C00
7C00
F800
F800
F800
FE00
FE00
FE00
7C00
ENDCHAR
STARTCHAR uni1E6C
ENCODING 7788
SWIDTH 611 0
DWIDTH 20 0
BBX 20 30 5 -5
BITMAP
7FFFF0
7FFFF0
FFFFE0
FFFFE0
01F000
01F000
01F000
01F000
03F000
03E000
03E000
03E000
03E000
07E000
07C000
07C000
07C000
07C000
0F8000
0F8000
0F8000
0F8000
1F8000
1F0000
1F0000
000000
078000
078000
078000
078000
ENDCHAR
STARTCHAR uni1E6D
ENCODING 7789
SWIDTH 333 0
DWIDTH 11 0
BBX 10 27 4 -5
BITMAP
1F00
1F00
1F00
1F00
7FC0
FFC0
FF80
3E00
3E00
3E00
7C00
7C00
7C00
7C00
7C00
F800
F800
F800
FE00
FE00
FE00
7C00
0000
3C00
3C00
3C00
3C00
ENDCHAR
STARTCHAR uni1E6E
ENCODING 7790
SWIDTH 611 0
DWIDTH 20 0
BBX 20 29 5 -4
BITMAP
7FFFF0
7FFFF0
FFFFE0
FFFFE0
01F000
01F000
01F000
01F000
03F000
03E000
03E000
03E000
03E000
07E000
07C000
07C000
07C000
07C000
0F8000
0F8000
0F8000
0F8000
1F8000
1F0000
1F0000
000000
3FF000
3FF000
3FF000
ENDCHAR
STARTCHAR uni1E6F
ENCODING 7791
SWIDTH 333 0
DWIDTH 11 0
BBX 11 26 3 -4
BITMAP
0F80
0F80
0F80
0F80
3FE0
7FE0
7FC0
1F00
1F00
1F00
3E00
3E00
3E00
3E00
3E00
7C00
7C00
7C00
7F00
7F00
7F00
3E00
0000
FFC0
FFC0
FFC0
ENDCHAR
STARTCHAR uni1E70
ENCODING 7792
SWIDTH 611 0
DWIDTH 20 0
BBX 20 31 5 -6
BITMAP
7FFFF0
7FFFF0
FFFFE0
FFFFE0
01F000
01F000
01F000
01F000
03F000
03E000
03E000
03E000
03E000
07E000
07C000
07C000
07C000
07C000
0F8000
0F8000
0F8000
0F8000
1F8000
1F0000
1F0000
000000
03C000
07E000
0EE000
1C7000
183000
ENDCHAR
STARTCHAR uni1E71
ENCODING 7793
SWIDTH 333 0
DWIDTH 11 0
BBX 11 28 3 -6
BITMAP
0F80
0F80
0F80
0F80
3FE0
7FE0
7FC0
1F00
1F00
1F00
3E00
3E00
3E00
3E00
3E00
7C00
7C00
7C00
7F00
7F00
7F00
3E00
0000
1E00
3F00
7700
E380
C180
ENDCHAR
STARTCHAR uni1E72
ENCODING 7794
SWIDTH 722 0
DWIDTH 24 0
BBX 22 30 5 -5
BITMAP
1F007C
1F007C
1F007C
3F007C
3E00F8
3E00F8
3E00F8
3E00F8
7E01F8
7C01F0
7C01F0
7C01F0
7C01F0
F803F0
F803E0
F803E0
F803E0
F807E0
F807C0
F80FC0
FE3F80
FFFF00
7FFF00
3FFC00
1FF000
000000
0F1E00
0F1E00
0F1E00
0F1E00
ENDCHAR
STARTCHAR uni1E73
ENCODING 7795
SWIDTH 611 0
DWIDTH 20 0
BBX 19 23 3 -5
BITMAP
1F03E0
1F03E0
1E03E0
3E07C0
3E07C0
3C07C0
3C0780
7C0F80
7C0F80
7C0F80
780F80
F81F00
F81F00
FC3F00
FFFF00
FFFE00
7FDE00
1F1E00
000000
1E3C00
1E3C00
1E3C00
1E3C00
ENDCHAR
STARTCHAR uni1E74
ENCODING 7796
SWIDTH 722 0
DWIDTH 24 0
BBX 22 31 5 -6
BITMAP
1F007C
1F007C
1F007C
3F007C
3E00F8
3E00F8
3E00F8
3E00F8
7E01F8
7C01F0
7C01F0
7C01F0
7C01F0
F803F0
F803E0
F803E0
F803E0
F807E0
F807C0
F80FC0
FE3F80
FFFF00
7FFF00
3FFC00
1FF000
000000
038200
07C600
0FFC00
18F800
107000
ENDCHAR
STARTCHAR uni1E75
ENCODING 7797
SWIDTH 611 0
DWIDTH 20 0
BBX 19 24 3 -6
BITMAP
1F03E0
1F03E0
1E03E0
3E07C0
3E07C0
3C07C0
3C0780
7C0F80
7C0F80
7C0F80
780F80
F81F00
F81F00
FC3F00
FFFF00
FFFE00
7FDE00
1F1E00
000000
070400
0F8C00
1FF800
31F000
20E000
ENDCHAR
STARTCHAR uni1E76
ENCODING 7798
SWIDTH 722 0
DWIDTH 24 0
BBX 22 31 5 -6
BITMAP
1F007C
1F007C
1F007C
3F007C
3E00F8
3E00F8
3E00F8
3E00F8
7E01F8
7C01F0
7C01F0
7C01F0
7C01F0
F803F0
F803E0
F803E0
F803E0
F807E0
F807C0
F80FC0
FE3F80
FFFF00
7FFF00
3FFC00
1FF000
000000
01E000
03F000
077000
0E3800
0C1800
ENDCHAR
STARTCHAR uni1E77
ENCODING 7799
SWIDTH 611 0
DWIDTH 20 0
BBX 19 24 3 -6
BITMAP
1F03E0
1F03E0
1E03E0
3E07C0
3E07C0
3C07C0
3C0780
7C0F80
7C0F80
7C0F80
780F80
F81F00
F81F00
FC3F00
FFFF00
FFFE00
7FDE00
1F1E00
000000
01E000
03F000
077000
0E3800
0C1800
ENDCHAR
STARTCHAR uni1E78
ENCODING 7800
SWIDTH 722 0
DWIDTH 24 0
BBX 22 37 5 0
BITMAP
000F00
001E00
001C00
003800
007000
000000
007040
00F8C0
01FF80
031F00
020E00
000000
1F007C
1F007C
1F007C
3F007C
3E00F8
3E00F8
3E00F8
3E00F8
7E01F8
7C01F0
7C01F0
7C01F0
7C01F0
F803F0
F803E0
F803E0
F803E0
F807E0
F807C0
F80FC0
FE3F80
FFFF00
7FFF00
3FFC00
1FF000
ENDCHAR
STARTCHAR uni1E79
ENCODING 7801
SWIDTH 611 0
DWIDTH 20 0
BBX 19 30 3 0
BITMAP
003C00
007800
007000
00E000
01C000
000000
01C100
03E300
07FE00
0C7C00
083800
000000
1F03E0
1F03E0
1E03E0
3E07C0
3E07C0
3C07C0
3C0780
7C0F80
7C0F80
7C0F80
780F80
F81F00
F81F00
FC3F00
FFFF00
FFFE00
7FDE00
1F1E00
ENDCHAR
STARTCHAR uni1E7A
ENCODING 7802
SWIDTH 722 0
DWIDTH 24 0
BBX 22 34 5 0
BITMAP
03C780
03C780
03C780
03C780
000000
01FF80
01FF80
01FF80
000000
1F007C
1F007C
1F007C
3F007C
3E00F8
3E00F8
3E00F8
3E00F8
7E01F8
7C01F0
7C01F0
7C01F0
7C01F0
F803F0
F803E0
F803E0
F803E0
F807E0
F807C0
F80FC0
FE3F80
FFFF00
7FFF00
3FFC00
1FF000
ENDCHAR
STARTCHAR uni1E7B
ENCODING 7803
SWIDTH 611 0
DWIDTH 20 0
BBX 19 27 3 0
BITMAP
078F00
078F00
078F00
078F00
000000
07FE00
07FE00
07FE00
000000
1F03E0
1F03E0
1E03E0
3E07C0
3E07C0
3C07C0
3C0780
7C0F80
7C0F80
7C0F80
780F80
F81F00
F81F00
FC3F00
FFFF00
FFFE00
7FDE00
1F1E00
ENDCHAR
STARTCHAR uni1E7C
ENCODING 7804
SWIDTH 667 0
DWIDTH 22 0
BBX 20 31 6 0
BITMAP
01C100
03E300
07FE00
0C7C00
083800
000000
F801F0
F801F0
F803E0
F803E0
F807C0
7807C0
7C0F80
7C0F80
7C1F00
7C1F00
7C3E00
7C3E00
7C7C00
7C7800
3CF800
3CF000
3DF000
3DE000
3FE000
3FC000
3FC000
3F8000
3F8000
1F0000
1F0000
ENDCHAR
STARTCHAR uni1E7D
ENCODING 7805
SWIDTH 556 0
DWIDTH 18 0
BBX 17 24 4 0
BITMAP
070400
0F8C00
1FF800
31F000
20E000
000000
F80F80
F81F00
F81F00
F83E00
F83E00
F87C00
F87800
78F800
78F000
79F000
79E000
7BE000
7FC000
7FC000
3F8000
3F0000
3F0000
3E0000
ENDCHAR
STARTCHAR uni1E7E
ENCODING 7806
SWIDTH 667 0
DWIDTH 22 0
BBX 20 30 6 -5
BITMAP
F801F0
F801F0
F803E0
F803E0
F807C0
7807C0
7C0F80
7C0F80
7C1F00
7C1F00
7C3E00
7C3E00
7C7C00
7C7800
3CF800
3CF000
3DF000
3DE000
3FE000
3FC000
3FC000
3F8000
3F8000
1F0000
1F0000
000000
078000
078000
078000
078000
ENDCHAR
STARTCHAR uni1E7F
ENCODING 7807
SWIDTH 556 0
DWIDTH 18 0
BBX 17 23 4 -5
BITMAP
F80F80
F81F00
F81F00
F83E00
F83E00
F87C00
F87800
78F800
78F000
79F000
79E000
7BE000
7FC000
7FC000
3F8000
3F0000
3F0000
3E0000
000000
0F0000
0F0000
0F0000
0F0000
ENDCHAR
STARTCHAR Wgrave
ENCODING 7808
SWIDTH 944 0
DWIDTH 31 0
BBX 30 31 6 0
BITMAP
001E0000
000F0000
00070000
00038000
00018000
00000000
F80FC07C
F80FC0FC
F81FC0F8
F81FC0F8
F83FC1F0
F83FC1F0
F83FC3E0
F87BC3E0
F87BC7C0
F8F3C7C0
F8F3C780
F8F3CF80
F9E3CF00
F9E39F00
7BC39E00
7BC39E00
7B83BE00
7F83BC00
7F83FC00
7F03F800
7F03F800
7E03F000
7E03F000
7C03E000
7C03E000
ENDCHAR
STARTCHAR wgrave
ENCODING 7809
SWIDTH 778 0
DWIDTH 25 0
BBX 25 24 3 0
BITMAP
00F00000
00780000
00380000
001C0000
000C0000
00000000
F83E0F80
F83E0F80
F87E1F00
F87E1F00
F8FE3E00
F8FE3E00
F9EE3C00
F9EE7C00
79CE7800
7BCEF800
7B8EF000
7F8FF000
7F8FE000
7F0FE000
7F0FC000
7E0FC000
7E0F8000
7C0F8000
ENDCHAR
STARTCHAR Wacute
ENCODING 7810
SWIDTH 944 0
DWIDTH 31 0
BBX 30 31 6 0
BITMAP
0001E000
0003C000
00038000
00070000
000E0000
00000000
F80FC07C
F80FC0FC
F81FC0F8
F81FC0F8
F83FC1F0
F83FC1F0
F83FC3E0
F87BC3E0
F87BC7C0
F8F3C7C0
F8F3C780
F8F3CF80
F9E3CF00
F9E39F00
7BC39E00
7BC39E00
7B83BE00
7F83BC00
7F83FC00
7F03F800
7F03F800
7E03F000
7E03F000
7C03E000
7C03E000
ENDCHAR
STARTCHAR wacute
ENCODING 7811
SWIDTH 778 0
DWIDTH 25 0
BBX 25 24 3 0
BITMAP
00078000
000F0000
000E0000
001C0000
00380000
00000000
F83E0F80
F83E0F80
F87E1F00
F87E1F00
F8FE3E00
F8FE3E00
F9EE3C00
F9EE7C00
79CE7800
7BCEF800
7B8EF000
7F8FF000
7F8FE000
7F0FE000
7F0FC000
7E0FC000
7E0F8000
7C0F8000
ENDCHAR
STARTCHAR Wdieresis
ENCODING 7812
SWIDTH 944 0
DWIDTH 31 0
BBX 30 30 6 0
BITMAP
0078F000
0078F000
0078F000
0078F000
00000000
F80FC07C
F80FC0FC
F81FC0F8
F81FC0F8
F83FC1F0
F83FC1F0
F83FC3E0
F87BC3E0
F87BC7C0
F8F3C7C0
F8F3C780
F8F3CF80
F9E3CF00
F9E39F00
7BC39E00
7BC39E00
7B83BE00
7F83BC00
7F83FC00
7F03F800
7F03F800
7E03F000
7E03F000
7C03E000
7C03E000
ENDCHAR
STARTCHAR wdieresis
ENCODING 7813
SWIDTH 778 0
DWIDTH 25 0
BBX 25 23 3 0
BITMAP
01E3C000
01E3C000
01E3C000
01E3C000
00000000
F83E0F80
F83E0F80
F87E1F00
F87E1F00
F8FE3E00
F8FE3E00
F9EE3C00
F9EE7C00
79CE7800
7BCEF800
7B8EF000
7F8FF000
7F8FE000
7F0FE000
7F0FC000
7E0FC000
7E0F8000
7C0F8000
ENDCHAR
STARTCHAR uni1E86
ENCODING 7814
SWIDTH 944 0
DWIDTH 31 0
BBX 30 30 6 0
BITMAP
00078000
00078000
00078000
00078000
00000000
F80FC07C
F80FC0FC
F81FC0F8
F81FC0F8
F83FC1F0
F83FC1F0
F83FC3E0
F87BC3E0
F87BC7C0
F8F3C7C0
F8F3C780
F8F3CF80
F9E3CF00
F9E39F00
7BC39E00
7BC39E00
7B83BE00
7F83BC00
7F83FC00
7F03F800
7F03F800
7E03F000
7E03F000
7C03E000
7C03E000
ENDCHAR
STARTCHAR uni1E87
ENCODING 7815
SWIDTH 778 0
DWIDTH 25 0
BBX 25 23 3 0
BITMAP
003C0000
003C0000
003C0000
003C0000
00000000
F83E0F80
F83E0F80
F87E1F00
F87E1F00
F8FE3E00
F8FE3E00
F9EE3C00
F9EE7C00
79CE7800
7BCEF800
7B8EF000
7F8FF000
7F8FE000
7F0FE000
7F0FC000
7E0FC000
7E0F8000
7C0F8000
ENDCHAR
STARTCHAR uni1E88
ENCODING 7816
SWIDTH 944 0
DWIDTH 31 0
BBX 30 30 6 -5
BITMAP
F80FC07C
F80FC0FC
F81FC0F8
F81FC0F8
F83FC1F0
F83FC1F0
F83FC3E0
F87BC3E0
F87BC7C0
F8F3C7C0
F8F3C780
F8F3CF80
F9E3CF00
F9E39F00
7BC39E00
7BC39E00
7B83BE00
7F83BC00
7F83FC00
7F03F800
7F03F800
7E03F000
7E03F000
7C03E000
7C03E000
00000000
003C0000
003C0000
003C0000
003C0000
ENDCHAR
STARTCHAR uni1E89
ENCODING 7817
SWIDTH 778 0
DWIDTH 25 0
BBX 25 23 3 -5
BITMAP
F83E0F80
F83E0F80
F87E1F00
F87E1F00
F8FE3E00
F8FE3E00
F9EE3C00
F9EE7C00
79CE7800
7BCEF800
7B8EF000
7F8FF000
7F8FE000
7F0FE000
7F0FC000
7E0FC000
7E0F8000
7C0F8000
00000000
00F00000
00F00000
00F00000
00F00000
ENDCHAR
STARTCHAR uni1E8A
ENCODING 7818
SWIDTH 667 0
DWIDTH 22 0
BBX 25 30 1 0
BITMAP
000F0000
000F0000
000F0000
000F0000
00000000
03F01F80
03F01F80
03F03F00
01F87E00
01F8FC00
01F8F800
00F9F800
00FFF000
007FE000
007FC000
007F8000
003F8000
003F0000
007F0000
00FF8000
01FF8000
01FFC000
03EFC000
07E7C000
0FC7E000
1F87E000
1F03E000
3F03F000
7E03F000
FC01F000
ENDCHAR
STARTCHAR uni1E8B
ENCODING 7819
SWIDTH 556 0
DWIDTH 18 0
BBX 20 23 1 0
BITMAP
007800
007800
007800
007800
000000
0F83F0
0FC3E0
07C7C0
07CFC0
07FF80
03FF00
03FE00
01FC00
01F800
01F800
03FC00
07FC00
0FFC00
1FBE00
1F3E00
3E3F00
7E1F00
FC1F00
ENDCHAR
STARTCHAR uni1E8C
ENCODING 7820
SWIDTH 667 0
DWIDTH 22 0
BBX 25 30 1 0
BITMAP
0078F000
0078F000
0078F000
0078F000
00000000
03F01F80
03F01F80
03F03F00
01F87E00
01F8FC00
01F8F800
00F9F800
00FFF000
007FE000
007FC000
007F8000
003F8000
003F0000
007F0000
00FF8000
01FF8000
01FFC000
03EFC000
07E7C000
0FC7E000
1F87E000
1F03E000
3F03F000
7E03F000
FC01F000
ENDCHAR
STARTCHAR uni1E8D
ENCODING 7821
SWIDTH 556 0
DWIDTH 18 0
BBX 20 23 1 0
BITMAP
03C780
03C780
03C780
03C780
000000
0F83F0
0FC3E0
07C7C0
07CFC0
07FF80
03FF00
03FE00
01FC00
01F800
01F800
03FC00
07FC00
0FFC00
1FBE00
1F3E00
3E3F00
7E1F00
FC1F00
ENDCHAR
STARTCHAR uni1E8E
ENCODING 7822
SWIDTH 667 0
DWIDTH 22 0
BBX 20 30 6 0
BITMAP
00F000
00F000
00F000
00F000
000000
FC01F0
7C03F0
7E03E0
7E07E0
3E0FC0
3E0F80
3E1F00
3F3F00
1F3E00
1F7C00
1FFC00
0FF800
0FF000
0FF000
0FE000
07C000
07C000
0FC000
0F8000
0F8000
0F8000
0F8000
1F8000
1F0000
1F0000
ENDCHAR
STARTCHAR uni1E8F
ENCODING 7823
SWIDTH 556 0
DWIDTH 18 0
BBX 21 30 1 -7
BITMAP
007800
007800
007800
007800
000000
1F00F8
1F01F0
1F01E0
0F83E0
0F83C0
0F87C0
0F8780
0F8F80
0F8F00
0F9E00
079E00
07BC00
07FC00
07F800
07F800
07F000
07E000
03E000
07C000
07C000
0F8000
7F8000
7F0000
FE0000
F80000
ENDCHAR
STARTCHAR uni1E90
ENCODING 7824
SWIDTH 611 0
DWIDTH 20 0
BBX 23 31 1 0
BITMAP
000F00
001F80
003B80
0071C0
0060C0
000000
03FFFE
03FFFE
07FFFE
07FFFE
00007E
0000FC
0001F8
0003F0
0007E0
000FC0
001F80
003F00
007E00
00FC00
01F800
03F000
07E000
0FC000
1F8000
3F0000
7E0000
7FFFE0
FFFFE0
FFFFC0
FFFFC0
ENDCHAR
STARTCHAR uni1E91
ENCODING 7825
SWIDTH 500 0
DWIDTH 16 0
BBX 18 24 1 0
BITMAP
007800
00FC00
01DC00
038E00
030600
000000
0FFFC0
0FFFC0
1FFFC0
1FFF80
001F80
003F00
007E00
00FC00
03F800
07E000
0FC000
1F8000
3F0000
7E0000
FFFE00
FFFE00
FFFC00
FFFC00
ENDCHAR
STARTCHAR uni1E92
ENCODING 7826
SWIDTH 611 0
DWIDTH 20 0
BBX 23 30 1 -5
BITMAP
03FFFE
03FFFE
07FFFE
07FFFE
00007E
0000FC
0001F8
0003F0
0007E0
000FC0
001F80
003F00
007E00
00FC00
01F800
03F000
07E000
0FC000
1F8000
3F0000
7E0000
7FFFE0
FFFFE0
FFFFC0
FFFFC0
000000
00F000
00F000
00F000
00F000
ENDCHAR
STARTCHAR uni1E93
ENCODING 7827
SWIDTH 500 0
DWIDTH 16 0
BBX 18 23 1 -5
BITMAP
0FFFC0
0FFFC0
1FFFC0
1FFF80
001F80
003F00
007E00
00FC00
03F800
07E000
0FC000
1F8000
3F0000
7E0000
FFFE00
FFFE00
FFFC00
FFFC00
000000
03C000
03C000
03C000
03C000
ENDCHAR
STARTCHAR uni1E94
ENCODING 7828
SWIDTH 611 0
DWIDTH 20 0
BBX 23 29 1 -4
BITMAP
03FFFE
03FFFE
07FFFE
07FFFE
00007E
0000FC
0001F8
0003F0
0007E0
000FC0
001F80
003F00
007E00
00FC00
01F800
03F000
07E000
0FC000
1F8000
3F0000
7E0000
7FFFE0
FFFFE0
FFFFC0
FFFFC0
000000
07FE00
07FE00
07FE00
ENDCHAR
STARTCHAR uni1E95
ENCODING 7829
SWIDTH 500 0
DWIDTH 16 0
BBX 18 22 1 -4
BITMAP
0FFFC0
0FFFC0
1FFFC0
1FFF80
001F80
003F00
007E00
00FC00
03F800
07E000
0FC000
1F8000
3F0000
7E0000
FFFE00
FFFE00
FFFC00
FFFC00
000000
1FF800
1FF800
1FF800
ENDCHAR
STARTCHAR uni1E96
ENCODING 7830
SWIDTH 611 0
DWIDTH 20 0
BBX 19 29 2 -4
BITMAP
07C000
07C000
078000
078000
0F8000
0F8000
0F0000
0F3F80
0F7FC0
1FFFE0
1FFFE0
1FC7E0
1F03E0
1F03C0
3E07C0
3E07C0
3E07C0
3C07C0
7C0F80
7C0F80
7C0F80
7C0F80
780F00
F81F00
F81F00
000000
0FFC00
0FFC00
0FFC00
ENDCHAR
STARTCHAR uni1E97
ENCODING 7831
SWIDTH 333 0
DWIDTH 11 0
BBX 11 27 4 0
BITMAP
F1E0
F1E0
F1E0
F1E0
0000
1F00
1F00
1F00
1F00
7FC0
FFC0
FF80
3E00
3E00
3E00
7C00
7C00
7C00
7C00
7C00
F800
F800
F800
FE00
FE00
FE00
7C00
ENDCHAR
STARTCHAR uni1E98
ENCODING 7832
SWIDTH 778 0
DWIDTH 25 0
BBX 25 25 3 0
BITMAP
000E0000
001B0000
00130000
00330000
00360000
001C0000
00000000
F83E0F80
F83E0F80
F87E1F00
F87E1F00
F8FE3E00
F8FE3E00
F9EE3C00
F9EE7C00
79CE7800
7BCEF800
7B8EF000
7F8FF000
7F8FE000
7F0FE000
7F0FC000
7E0FC000
7E0F8000
7C0F8000
ENDCHAR
STARTCHAR uni1E99
ENCODING 7833
SWIDTH 556 0
DWIDTH 18 0
BBX 21 32 1 -7
BITMAP
003800
006C00
004C00
00CC00
00D800
007000
000000
1F00F8
1F01F0
1F01E0
0F83E0
0F83C0
0F87C0
0F8780
0F8F80
0F8F00
0F9E00
079E00
07BC00
07FC00
07F800
07F800
07F000
07E000
03E000
07C000
07C000
0F8000
7F8000
7F0000
FE0000
F80000
ENDCHAR
STARTCHAR uni1EA0
ENCODING 7840
SWIDTH 722 0
DWIDTH 24 0
BBX 22 30 1 -5
BITMAP
0003E0
0007E0
000FE0
001FE0
001FF0
003FF0
003FF0
007DF0
007DF0
00F9F0
00F9F0
01F0F8
03F0F8
03E0F8
07E0F8
07C0F8
0FFFF8
0FFFF8
1FFFF8
1FFFFC
3E00FC
3E007C
7C007C
FC007C
F8007C
000000
003C00
003C00
003C00
003C00
ENDCHAR
STARTCHAR uni1EA1
ENCODING 7841
SWIDTH 556 0
DWIDTH 18 0
BBX 17 23 2 -5
BITMAP
01FE00
07FF00
0FFF80
1F8F80
1E0780
1E0780
000F80
03FF80
1FFF00
3FFF00
7E1F00
781F00
F83E00
F87E00
FFFE00
FFFE00
7FBE00
3E3E00
000000
03C000
03C000
03C000
03C000
ENDCHAR
STARTCHAR uni1EA4
ENCODING 7844
SWIDTH 722 0
DWIDTH 24 0
BBX 22 37 1 0
BITMAP
0001E0
0003C0
000380
000700
000E00
000000
0001E0
0003F0
000770
000E38
001C1C
000000
0003E0
0007E0
000FE0
000FE0
001FF0
003FF0
003FF0
007DF0
007DF0
00F9F0
00F9F0
01F0F8
03F0F8
03E0F8
07E0F8
07C0F8
0FFFF8
0FFFF8
1FFFF8
1FFFFC
3E00FC
3E007C
7C007C
FC007C
F8007C
ENDCHAR
STARTCHAR uni1EA5
ENCODING 7845
SWIDTH 556 0
DWIDTH 18 0
BBX 17 31 2 0
BITMAP
001E00
003C00
003800
007000
00E000
000000
003C00
007E00
00EE00
01C700
038380
000000
000000
01FE00
07FF00
0FFF80
1F8F80
1E0780
1E0F80
001F80
07FF80
1FFF00
3FFF00
7E1F00
781F00
F83E00
F87E00
FFFE00
FFFE00
7FBE00
3E3E00
ENDCHAR
STARTCHAR uni1EA6
ENCODING 7846
SWIDTH 722 0
DWIDTH 24 0
BBX 22 37 1 0
BITMAP
001E00
000F00
000700
000380
000180
000000
0001E0
0003F0
000770
000E38
001C1C
000000
0003E0
0007E0
000FE0
000FE0
001FF0
003FF0
003FF0
007DF0
007DF0
00F9F0
00F9F0
01F0F8
03F0F8
03E0F8
07E0F8
07C0F8
0FFFF8
0FFFF8
1FFFF8
1FFFFC
3E00FC
3E007C
7C007C
FC007C
F8007C
ENDCHAR
STARTCHAR uni1EA7
ENCODING 7847
SWIDTH 556 0
DWIDTH 18 0
BBX 17 31 2 0
BITMAP
03C000
01E000
00E000
007000
003000
000000
003C00
007E00
00EE00
01C700
038380
000000
000000
01FE00
07FF00
0FFF80
1F8F80
1E0780
1E0F80
001F80
07FF80
1FFF00
3FFF00
7E1F00
781F00
F83E00
F87E00
FFFE00
FFFE00
7FBE00
3E3E00
ENDCHAR
STARTCHAR uni1EAA
ENCODING 7850
SWIDTH 722 0
DWIDTH 24 0
BBX 22 37 1 0
BITMAP
000E08
001F18
003FF0
0063E0
0041C0
000000
0001E0
0003F0
000770
000E38
001C1C
000000
0003E0
0007E0
000FE0
000FE0
001FF0
003FF0
003FF0
007DF0
007DF0
00F9F0
00F9F0
01F0F8
03F0F8
03E0F8
07E0F8
07C0F8
0FFFF8
0FFFF8
1FFFF8
1FFFFC
3E00FC
3E007C
7C007C
FC007C
F8007C
ENDCHAR
STARTCHAR uni1EAB
ENCODING 7851
SWIDTH 556 0
DWIDTH 18 0
BBX 17 31 2 0
BITMAP
00E080
01F180
03FF00
063E00
041C00
000000
003C00
007E00
00EE00
01C700
038380
000000
000000
01FE00
07FF00
0FFF80
1F8F80
1E0780
1E0F80
001F80
07FF80
1FFF00
3FFF00
7E1F00
781F00
F83E00
F87E00
FFFE00
FFFE00
7FBE00
3E3E00
ENDCHAR
STARTCHAR uni1EAC
ENCODING 7852
SWIDTH 722 0
DWIDTH 24 0
BBX 22 36 1 -5
BITMAP
000F00
001F80
003B80
0071C0
0060C0
000000
0003E0
0007E0
000FE0
001FE0
001FF0
003FF0
003FF0
007DF0
007DF0
00F9F0
00F9F0
01F0F8
03F0F8
03E0F8
07E0F8
07C0F8
0FFFF8
0FFFF8
1FFFF8
1FFFFC
3E00FC
3E007C
7C007C
FC007C
F8007C
000000
003C00
003C00
003C00
003C00
ENDCHAR
STARTCHAR uni1EAD
ENCODING 7853
SWIDTH 556 0
DWIDTH 18 0
BBX 17 29 2 -5
BITMAP
00F000
01F800
03B800
071C00
060C00
000000
01FE00
07FF00
0FFF80
1F8F80
1E0780
1E0780
000F80
03FF80
1FFF00
3FFF00
7E1F00
781F00
F83E00
F87E00
FFFE00
FFFE00
7FBE00
3E3E00
000000
03C000
03C000
03C000
03C000
ENDCHAR
STARTCHAR uni1EAE
ENCODING 7854
SWIDTH 722 0
DWIDTH 24 0
BBX 22 37 1 0
BITMAP
0003C0
000780
000700
000E00
001C00
000000
002020
003060
003FC0
001F80
000F00
000000
0003E0
0007E0
000FE0
001FE0
001FF0
003FF0
003FF0
007DF0
007DF0
00F9F0
00F9F0
01F0F8
03F0F8
03E0F8
07E0F8
07C0F8
0FFFF8
0FFFF8
1FFFF8
1FFFFC
3E00FC
3E007C
7C007C
FC007C
F8007C
ENDCHAR
STARTCHAR uni1EAF
ENCODING 7855
SWIDTH 556 0
DWIDTH 18 0
BBX 17 30 2 0
BITMAP
003C00
007800
007000
00E000
01C000
000000
020200
030600
03FC00
01F800
00F000
000000
01FE00
07FF00
0FFF80
1F8F80
1E0780
1E0780
000F80
03FF80
1FFF00
3FFF00
7E1F00
781F00
F83E00
F87E00
FFFE00
FFFE00
7FBE00
3E3E00
ENDCHAR
STARTCHAR uni1EB0
ENCODING 7856
SWIDTH 722 0
DWIDTH 24 0
BBX 22 37 1 0
BITMAP
007800
003C00
001C00
000E00
000600
000000
002020
003060
003FC0
001F80
000F00
000000
0003E0
0007E0
000FE0
001FE0
001FF0
003FF0
003FF0
007DF0
007DF0
00F9F0
00F9F0
01F0F8
03F0F8
03E0F8
07E0F8
07C0F8
0FFFF8
0FFFF8
1FFFF8
1FFFFC
3E00FC
3E007C
7C007C
FC007C
F8007C
ENDCHAR
STARTCHAR uni1EB1
ENCODING 7857
SWIDTH 556 0
DWIDTH 18 0
BBX 17 30 2 0
BITMAP
03C000
01E000
00E000
007000
003000
000000
020200
030600
03FC00
01F800
00F000
000000
01FE00
07FF00
0FFF80
1F8F80
1E0780
1E0780
000F80
03FF80
1FFF00
3FFF00
7E1F00
781F00
F83E00
F87E00
FFFE00
FFFE00
7FBE00
3E3E00
ENDCHAR
STARTCHAR uni1EB4
ENCODING 7860
SWIDTH 722 0
DWIDTH 24 0
BBX 22 37 1 0
BITMAP
001C10
003E30
007FE0
00C7C0
008380
000000
002020
003060
003FC0
001F80
000F00
000000
0003E0
0007E0
000FE0
001FE0
001FF0
003FF0
003FF0
007DF0
007DF0
00F9F0
00F9F0
01F0F8
03F0F8
03E0F8
07E0F8
07C0F8
0FFFF8
0FFFF8
1FFFF8
1FFFFC
3E00FC
3E007C
7C007C
FC007C
F8007C
ENDCHAR
STARTCHAR uni1EB5
ENCODING 7861
SWIDTH 556 0
DWIDTH 18 0
BBX 17 30 2 0
BITMAP
01C100
03E300
07FE00
0C7C00
083800
000000
020200
030600
03FC00
01F800
00F000
000000
01FE00
07FF00
0FFF80
1F8F80
1E0780
1E0780
000F80
03FF80
1FFF00
3FFF00
7E1F00
781F00
F83E00
F87E00
FFFE00
FFFE00
7FBE00
3E3E00
ENDCHAR
STARTCHAR uni1EB6
ENCODING 7862
SWIDTH 722 0
DWIDTH 24 0
BBX 22 36 1 -5
BITMAP
002020
003060
003FC0
001F80
000F00
000000
0003E0
0007E0
000FE0
001FE0
001FF0
003FF0
003FF0
007DF0
007DF0
00F9F0
00F9F0
01F0F8
03F0F8
03E0F8
07E0F8
07C0F8
0FFFF8
0FFFF8
1FFFF8
1FFFFC
3E00FC
3E007C
7C007C
FC007C
F8007C
000000
003C00
003C00
003C00
003C00
ENDCHAR
STARTCHAR uni1EB7
ENCODING 7863
SWIDTH 556 0
DWIDTH 18 0
BBX 17 29 2 -5
BITMAP
020200
030600
03FC00
01F800
00F000
000000
01FE00
07FF00
0FFF80
1F8F80
1E0780
1E0780
000F80
03FF80
1FFF00
3FFF00
7E1F00
781F00
F83E00
F87E00
FFFE00
FFFE00
7FBE00
3E3E00
000000
03C000
03C000
03C000
03C000
ENDCHAR
STARTCHAR uni1EB8
ENCODING 7864
SWIDTH 667 0
DWIDTH 22 0
BBX 23 30 3 -5
BITMAP
07FFFE
07FFFE
07FFFC
0FFFFC
0F8000
0F8000
0F8000
0F8000
1F0000
1F0000
1FFFF0
1FFFF0
1FFFE0
3FFFE0
3E0000
3E0000
3E0000
3E0000
7C0000
7C0000
7C0000
7FFFE0
FFFFE0
FFFFC0
FFFFC0
000000
01E000
01E000
01E000
01E000
ENDCHAR
STARTCHAR uni1EB9
ENCODING 7865
SWIDTH 556 0
DWIDTH 18 0
BBX 17 23 3 -5
BITMAP
01F800
07FE00
1FFF00
1F9F00
3E0F80
7C0780
780780
FFFF80
FFFF80
FFFF80
F00000
F80000
F80F00
7C1F00
7FFE00
3FFC00
1FF800
07E000
000000
03C000
03C000
03C000
03C000
ENDCHAR
STARTCHAR uni1EBC
ENCODING 7868
SWIDTH 667 0
DWIDTH 22 0
BBX 23 31 3 0
BITMAP
007040
00F8C0
01FF80
031F00
020E00
000000
07FFFE
07FFFE
07FFFC
0FFFFC
0F8000
0F8000
0F8000
0F8000
1F0000
1F0000
1FFFF0
1FFFF0
1FFFE0
3FFFE0
3E0000
3E0000
3E0000
3E0000
7C0000
7C0000
7C0000
7FFFE0
FFFFE0
FFFFC0
FFFFC0
ENDCHAR
STARTCHAR uni1EBD
ENCODING 7869
SWIDTH 556 0
DWIDTH 18 0
BBX 17 24 3 0
BITMAP
038200
07C600
0FFC00
18F800
107000
000000
01F800
07FE00
1FFF00
1F9F00
3E0F80
7C0780
780780
FFFF80
FFFF80
FFFF80
F00000
F80000
F80F00
7C1F00
7FFE00
3FFC00
1FF800
07E000
ENDCHAR
STARTCHAR uni1EBE
ENCODING 7870
SWIDTH 667 0
DWIDTH 22 0
BBX 23 37 3 0
BITMAP
0003C0
000780
000700
000E00
001C00
000000
000780
000FC0
001DC0
0038E0
007070
000000
07FFFE
07FFFE
07FFFC
0FFFFC
0F8000
0F8000
0F8000
0F8000
1F0000
1F0000
1FFFF0
1FFFF0
1FFFE0
3FFFE0
3E0000
3E0000
3E0000
3E0000
7C0000
7C0000
7C0000
7FFFE0
FFFFE0
FFFFC0
FFFFC0
ENDCHAR
STARTCHAR uni1EBF
ENCODING 7871
SWIDTH 556 0
DWIDTH 18 0
BBX 17 31 3 0
BITMAP
003C00
007800
007000
00E000
01C000
000000
007800
00FC00
01DC00
038E00
070700
000000
000000
01F800
07FE00
1FFF00
1FFF80
3E0F80
7C0F80
7C0F80
FFFF80
FFFF80
FFFF80
F80000
F00000
F01F00
F83E00
FFFC00
7FF800
3FF000
0F8000
ENDCHAR
STARTCHAR uni1EC0
ENCODING 7872
SWIDTH 667 0
DWIDTH 22 0
BBX 23 37 3 0
BITMAP
007800
003C00
001C00
000E00
000600
000000
000780
000FC0
001DC0
0038E0
007070
000000
07FFFE
07FFFE
07FFFC
0FFFFC
0F8000
0F8000
0F8000
0F8000
1F0000
1F0000
1FFFF0
1FFFF0
1FFFE0
3FFFE0
3E0000
3E0000
3E0000
3E0000
7C0000
7C0000
7C0000
7FFFE0
FFFFE0
FFFFC0
FFFFC0
ENDCHAR
STARTCHAR uni1EC1
ENCODING 7873
SWIDTH 556 0
DWIDTH 18 0
BBX 17 31 3 0
BITMAP
03C000
01E000
00E000
007000
003000
000000
007800
00FC00
01DC00
038E00
070700
000000
000000
01F800
07FE00
1FFF00
1FFF80
3E0F80
7C0F80
7C0F80
FFFF80
FFFF80
FFFF80
F80000
F00000
F01F00
F83E00
FFFC00
7FF800
3FF000
0F8000
ENDCHAR
STARTCHAR uni1EC4
ENCODING 7876
SWIDTH 667 0
DWIDTH 22 0
BBX 23 37 3 0
BITMAP
001C10
003E30
007FE0
00C7C0
008380
000000
000780
000FC0
001DC0
0038E0
007070
000000
07FFFE
07FFFE
07FFFC
0FFFFC
0F8000
0F8000
0F8000
0F8000
1F0000
1F0000
1FFFF0
1FFFF0
1FFFE0
3FFFE0
3E0000
3E0000
3E0000
3E0000
7C0000
7C0000
7C0000
7FFFE0
FFFFE0
FFFFC0
FFFFC0
ENDCHAR
STARTCHAR uni1EC5
ENCODING 7877
SWIDTH 556 0
DWIDTH 18 0
BBX 17 31 3 0
BITMAP
01C100
03E300
07FE00
0C7C00
083800
000000
007800
00FC00
01DC00
038E00
070700
000000
000000
01F800
07FE00
1FFF00
1FFF80
3E0F80
7C0F80
7C0F80
FFFF80
FFFF80
FFFF80
F80000
F00000
F01F00
F83E00
FFFC00
7FF800
3FF000
0F8000
ENDCHAR
STARTCHAR uni1EC6
ENCODING 7878
SWIDTH 667 0
DWIDTH 22 0
BBX 23 36 3 -5
BITMAP
003C00
007E00
00EE00
01C700
018300
000000
07FFFE
07FFFE
07FFFC
0FFFFC
0F8000
0F8000
0F8000
0F8000
1F0000
1F0000
1FFFF0
1FFFF0
1FFFE0
3FFFE0
3E0000
3E0000
3E0000
3E0000
7C0000
7C0000
7C0000
7FFFE0
FFFFE0
FFFFC0
FFFFC0
000000
01E000
01E000
01E000
01E000
ENDCHAR
STARTCHAR uni1EC7
ENCODING 7879
SWIDTH 556 0
DWIDTH 18 0
BBX 17 29 3 -5
BITMAP
00F000
01F800
03B800
071C00
060C00
000000
01F800
07FE00
1FFF00
1F9F00
3E0F80
7C0780
780780
FFFF80
FFFF80
FFFF80
F00000
F80000
F80F00
7C1F00
7FFE00
3FFC00
1FF800
07E000
000000
03C000
03C000
03C000
03C000
ENDCHAR
STARTCHAR uni1ECA
ENCODING 7882
SWIDTH 278 0
DWIDTH 9 0
BBX 10 30 2 -5
BITMAP
07C0
07C0
07C0
0FC0
0F80
0F80
0F80
0F80
1F80
1F00
1F00
1F00
1F00
3F00
3E00
3E00
3E00
3E00
7C00
7C00
7C00
7C00
FC00
F800
F800
0000
3C00
3C00
3C00
3C00
ENDCHAR
STARTCHAR uni1ECB
ENCODING 7883
SWIDTH 278 0
DWIDTH 9 0
BBX 10 30 2 -5
BITMAP
03C0
07C0
07C0
0780
0000
0000
0000
0F80
0F80
1F00
1F00
1F00
1F00
1F00
3E00
3E00
3E00
3E00
7C00
7C00
7C00
7C00
F800
F800
F800
0000
3C00
3C00
3C00
3C00
ENDCHAR
STARTCHAR uni1ECC
ENCODING 7884
SWIDTH 778 0
DWIDTH 25 0
BBX 25 30 3 -5
BITMAP
001FE000
00FFFC00
01FFFE00
03FFFE00
07F0FF00
0FC03F00
1F801F80
1F001F80
3E000F80
3E000F80
7C000F80
7C000F80
78000F80
F8001F00
F8001F00
F8003F00
F8003E00
FC007E00
FC00FC00
7E01F800
7F87F800
3FFFF000
1FFFE000
0FFF8000
03FE0000
00000000
00780000
00780000
00780000
00780000
ENDCHAR
STARTCHAR uni1ECD
ENCODING 7885
SWIDTH 611 0
DWIDTH 20 0
BBX 18 23 3 -5
BITMAP
01FC00
07FF00
0FFF80
1FFFC0
3F0FC0
7E07C0
7C07C0
7C07C0
F807C0
F807C0
F80F80
F80F80
F81F80
FC3F00
7FFE00
7FFC00
3FF800
0FE000
000000
03C000
03C000
03C000
03C000
ENDCHAR
STARTCHAR uni1ED0
ENCODING 7888
SWIDTH 778 0
DWIDTH 25 0
BBX 24 37 4 0
BITMAP
0001E0
0003C0
000380
000700
000E00
000000
0003C0
0007E0
000EE0
001C70
003838
000000
001F80
00FFF0
03FFF8
07FFFC
0FE1FE
1F807E
3F003E
3E003F
7E001F
7C001F
7C001F
FC001F
F8001F
F8003F
F8003E
F8003E
F8007E
F8007C
FC00FC
FC01F8
7F07F0
7FFFE0
3FFFC0
1FFF00
07FC00
ENDCHAR
STARTCHAR uni1ED1
ENCODING 7889
SWIDTH 611 0
DWIDTH 20 0
BBX 18 31 3 0
BITMAP
001E00
003C00
003800
007000
00E000
000000
003C00
007E00
00EE00
01C700
038380
000000
000000
01FC00
07FF00
0FFF80
1FFFC0
3F0FC0
7E07C0
7C07C0
7807C0
F807C0
F807C0
F80F80
F80F80
F81F80
FC3F00
FFFE00
7FFC00
3FF800
0FE000
ENDCHAR
STARTCHAR uni1ED2
ENCODING 7890
SWIDTH 778 0
DWIDTH 25 0
BBX 24 37 4 0
BITMAP
003C00
001E00
000E00
000700
000300
000000
0003C0
0007E0
000EE0
001C70
003838
000000
001F80
00FFF0
03FFF8
07FFFC
0FE1FE
1F807E
3F003E
3E003F
7E001F
7C001F
7C001F
FC001F
F8001F
F8003F
F8003E
F8003E
F8007E
F8007C
FC00FC
FC01F8
7F07F0
7FFFE0
3FFFC0
1FFF00
07FC00
ENDCHAR
STARTCHAR uni1ED3
ENCODING 7891
SWIDTH 611 0
DWIDTH 20 0
BBX 18 31 3 0
BITMAP
01E000
00F000
007000
003800
001800
000000
003C00
007E00
00EE00
01C700
038380
000000
000000
01FC00
07FF00
0FFF80
1FFFC0
3F0FC0
7E07C0
7C07C0
7807C0
F807C0
F807C0
F80F80
F80F80
F81F80
FC3F00
FFFE00
7FFC00
3FF800
0FE000
ENDCHAR
STARTCHAR uni1ED6
ENCODING 7894
SWIDTH 778 0
DWIDTH 25 0
BBX 24 37 4 0
BITMAP
001C10
003E30
007FE0
00C7C0
008380
000000
0003C0
0007E0
000EE0
001C70
003838
000000
001F80
00FFF0
03FFF8
07FFFC
0FE1FE
1F807E
3F003E
3E003F
7E001F
7C001F
7C001F
FC001F
F8001F
F8003F
F8003E
F8003E
F8007E
F8007C
FC00FC
FC01F8
7F07F0
7FFFE0
3FFFC0
1FFF00
07FC00
ENDCHAR
STARTCHAR uni1ED7
ENCODING 7895
SWIDTH 611 0
DWIDTH 20 0
BBX 18 31 3 0
BITMAP
00E080
01F180
03FF00
063E00
041C00
000000
003C00
007E00
00EE00
01C700
038380
000000
000000
01FC00
07FF00
0FFF80
1FFFC0
3F0FC0
7E07C0
7C07C0
7807C0
F807C0
F807C0
F80F80
F80F80
F81F80
FC3F00
FFFE00
7FFC00
3FF800
0FE000
ENDCHAR
STARTCHAR uni1ED8
ENCODING 7896
SWIDTH 778 0
DWIDTH 25 0
BBX 25 36 3 -5
BITMAP
000F0000
001F8000
003B8000
0071C000
0060C000
00000000
001FE000
00FFFC00
01FFFE00
03FFFE00
07F0FF00
0FC03F00
1F801F80
1F001F80
3E000F80
3E000F80
7C000F80
7C000F80
78000F80
F8001F00
F8001F00
F8003F00
F8003E00
FC007E00
FC00FC00
7E01F800
7F87F800
3FFFF000
1FFFE000
0FFF8000
03FE0000
00000000
00780000
00780000
00780000
00780000
ENDCHAR
STARTCHAR uni1ED9
ENCODING 7897
SWIDTH 611 0
DWIDTH 20 0
BBX 18 29 3 -5
BITMAP
00F000
01F800
03B800
071C00
060C00
000000
01FC00
07FF00
0FFF80
1FFFC0
3F0FC0
7E07C0
7C07C0
7C07C0
F807C0
F807C0
F80F80
F80F80
F81F80
FC3F00
7FFE00
7FFC00
3FF800
0FE000
000000
03C000
03C000
03C000
03C000
ENDCHAR
STARTCHAR uni1EDA
ENCODING 7898
SWIDTH 778 0
DWIDTH 25 0
BBX 28 31 3 0
BITMAP
00007800
0000F000
0000E000
0001C000
00038000
00000000
001FE1F0
00FFFDF0
01FFFFF0
03FFFFF0
07F0FF70
0FC03FE0
1F801FC0
1F001F80
3E000F80
3E000F80
7C000F80
7C000F80
78000F80
F8001F00
F8001F00
F8003F00
F8003E00
FC007E00
FC00FC00
7E01F800
7F87F800
3FFFF000
1FFFE000
0FFF8000
03FE0000
ENDCHAR
STARTCHAR uni1EDB
ENCODING 7899
SWIDTH 611 0
DWIDTH 20 0
BBX 22 24 3 0
BITMAP
000780
000F00
000E00
001C00
003800
000000
01FC7C
07FF7C
0FFFFC
1FFFFC
3F0FDC
7E07F8
7C07F0
7C07E0
F807C0
F807C0
F80F80
F80F80
F81F80
FC3F00
7FFE00
7FFC00
3FF800
0FE000
ENDCHAR
STARTCHAR uni1EDC
ENCODING 7900
SWIDTH 778 0
DWIDTH 25 0
BBX 28 31 3 0
BITMAP
000F0000
00078000
00038000
0001C000
0000C000
00000000
001FE1F0
00FFFDF0
01FFFFF0
03FFFFF0
07F0FF70
0FC03FE0
1F801FC0
1F001F80
3E000F80
3E000F80
7C000F80
7C000F80
78000F80
F8001F00
F8001F00
F8003F00
F8003E00
FC007E00
FC00FC00
7E01F800
7F87F800
3FFFF000
1FFFE000
0FFF8000
03FE0000
ENDCHAR
STARTCHAR uni1EDD
ENCODING 7901
SWIDTH 611 0
DWIDTH 20 0
BBX 22 24 3 0
BITMAP
00F000
007800
003800
001C00
000C00
000000
01FC7C
07FF7C
0FFFFC
1FFFFC
3F0FDC
7E07F8
7C07F0
7C07E0
F807C0
F807C0
F80F80
F80F80
F81F80
FC3F00
7FFE00
7FFC00
3FF800
0FE000
ENDCHAR
STARTCHAR uni1EE0
ENCODING 7904
SWIDTH 778 0
DWIDTH 25 0
BBX 28 31 3 0
BITMAP
00070400
000F8C00
001FF800
0031F000
0020E000
00000000
001FE1F0
00FFFDF0
01FFFFF0
03FFFFF0
07F0FF70
0FC03FE0
1F801FC0
1F001F80
3E000F80
3E000F80
7C000F80
7C000F80
78000F80
F8001F00
F8001F00
F8003F00
F8003E00
FC007E00
FC00FC00
7E01F800
7F87F800
3FFFF000
1FFFE000
0FFF8000
03FE0000
ENDCHAR
STARTCHAR uni1EE1
ENCODING 7905
SWIDTH 611 0
DWIDTH 20 0
BBX 22 24 3 0
BITMAP
003820
007C60
00FFC0
018F80
010700
000000
01FC7C
07FF7C
0FFFFC
1FFFFC
3F0FDC
7E07F8
7C07F0
7C07E0
F807C0
F807C0
F80F80
F80F80
F81F80
FC3F00
7FFE00
7FFC00
3FF800
0FE000
ENDCHAR
STARTCHAR uni1EE2
ENCODING 7906
SWIDTH 778 0
DWIDTH 25 0
BBX 28 30 3 -5
BITMAP
001FE1F0
00FFFDF0
01FFFFF0
03FFFFF0
07F0FF70
0FC03FE0
1F801FC0
1F001F80
3E000F80
3E000F80
7C000F80
7C000F80
78000F80
F8001F00
F8001F00
F8003F00
F8003E00
FC007E00
FC00FC00
7E01F800
7F87F800
3FFFF000
1FFFE000
0FFF8000
03FE0000
00000000
003C0000
003C0000
003C0000
003C0000
ENDCHAR
STARTCHAR uni1EE3
ENCODING 7907
SWIDTH 611 0
DWIDTH 20 0
BBX 22 23 3 -5
BITMAP
01FC7C
07FF7C
0FFFFC
1FFFFC
3F0FDC
7E07F8
7C07F0
7C07E0
F807C0
F807C0
F80F80
F80F80
F81F80
FC3F00
7FFE00
7FFC00
3FF800
0FE000
000000
01E000
01E000
01E000
01E000
ENDCHAR
STARTCHAR uni1EE4
ENCODING 7908
SWIDTH 722 0
DWIDTH 24 0
BBX 22 30 5 -5
BITMAP
1F007C
1F007C
1F007C
3F007C
3E00F8
3E00F8
3E00F8
3E00F8
7E01F8
7C01F0
7C01F0
7C01F0
7C01F0
F803F0
F803E0
F803E0
F803E0
F807E0
F807C0
F80FC0
FE3F80
FFFF00
7FFF00
3FFC00
1FF000
000000
01E000
01E000
01E000
01E000
ENDCHAR
STARTCHAR uni1EE5
ENCODING 7909
SWIDTH 611 0
DWIDTH 20 0
BBX 19 23 3 -5
BITMAP
1F03E0
1F03E0
1E03E0
3E07C0
3E07C0
3C07C0
3C0780
7C0F80
7C0F80
7C0F80
780F80
F81F00
F81F00
FC3F00
FFFF00
FFFE00
7FDE00
1F1E00
000000
03C000
03C000
03C000
03C000
ENDCHAR
STARTCHAR uni1EE8
ENCODING 7912
SWIDTH 722 0
DWIDTH 24 0
BBX 26 31 5 0
BITMAP
0001E000
0003C000
00038000
00070000
000E0000
00000000
1F007FC0
1F007FC0
1F007FC0
3F007FC0
3E00F9C0
3E00FB80
3E00FF00
3E00FE00
7E01F800
7C01F000
7C01F000
7C01F000
7C01F000
F803F000
F803E000
F803E000
F803E000
F807E000
F807C000
F80FC000
FE3F8000
FFFF0000
7FFF0000
3FFC0000
1FF00000
ENDCHAR
STARTCHAR uni1EE9
ENCODING 7913
SWIDTH 611 0
DWIDTH 20 0
BBX 23 24 3 0
BITMAP
000780
000F00
000E00
001C00
003800
000000
1F03FE
1F03FE
1E03FE
3E07FE
3E07CE
3C07DC
3C07B8
7C0FF0
7C0F80
7C0F80
780F80
F81F00
F81F00
FC3F00
FFFF00
FFFE00
7FDE00
1F1E00
ENDCHAR
STARTCHAR uni1EEA
ENCODING 7914
SWIDTH 722 0
DWIDTH 24 0
BBX 26 31 5 0
BITMAP
003C0000
001E0000
000E0000
00070000
00030000
00000000
1F007FC0
1F007FC0
1F007FC0
3F007FC0
3E00F9C0
3E00FB80
3E00FF00
3E00FE00
7E01F800
7C01F000
7C01F000
7C01F000
7C01F000
F803F000
F803E000
F803E000
F803E000
F807E000
F807C000
F80FC000
FE3F8000
FFFF0000
7FFF0000
3FFC0000
1FF00000
ENDCHAR
STARTCHAR uni1EEB
ENCODING 7915
SWIDTH 611 0
DWIDTH 20 0
BBX 23 24 3 0
BITMAP
007800
003C00
001C00
000E00
000600
000000
1F03FE
1F03FE
1E03FE
3E07FE
3E07CE
3C07DC
3C07B8
7C0FF0
7C0F80
7C0F80
780F80
F81F00
F81F00
FC3F00
FFFF00
FFFE00
7FDE00
1F1E00
ENDCHAR
STARTCHAR uni1EEE
ENCODING 7918
SWIDTH 722 0
DWIDTH 24 0
BBX 26 31 5 0
BITMAP
000E0800
001F1800
003FF000
0063E000
0041C000
00000000
1F007FC0
1F007FC0
1F007FC0
3F007FC0
3E00F9C0
3E00FB80
3E00FF00
3E00FE00
7E01F800
7C01F000
7C01F000
7C01F000
7C01F000
F803F000
F803E000
F803E000
F803E000
F807E000
F807C000
F80FC000
FE3F8000
FFFF0000
7FFF0000
3FFC0000
1FF00000
ENDCHAR
STARTCHAR uni1EEF
ENCODING 7919
SWIDTH 611 0
DWIDTH 20 0
BBX 23 24 3 0
BITMAP
003820
007C60
00FFC0
018F80
010700
000000
1F03FE
1F03FE
1E03FE
3E07FE
3E07CE
3C07DC
3C07B8
7C0FF0
7C0F80
7C0F80
780F80
F81F00
F81F00
FC3F00
FFFF00
FFFE00
7FDE00
1F1E00
ENDCHAR
STARTCHAR uni1EF0
ENCODING 7920
SWIDTH 722 0
DWIDTH 24 0
BBX 26 30 5 -5
BITMAP
1F007FC0
1F007FC0
1F007FC0
3F007FC0
3E00F9C0
3E00FB80
3E00FF00
3E00FE00
7E01F800
7C01F000
7C01F000
7C01F000
7C01F000
F803F000
F803E000
F803E000
F803E000
F807E000
F807C000
F80FC000
FE3F8000
FFFF0000
7FFF0000
3FFC0000
1FF00000
00000000
00F00000
00F00000
00F00000
00F00000
ENDCHAR
STARTCHAR uni1EF1
ENCODING 7921
SWIDTH 611 0
DWIDTH 20 0
BBX 23 23 3 -5
BITMAP
1F03FE
1F03FE
1E03FE
3E07FE
3E07CE
3C07DC
3C07B8
7C0FF0
7C0F80
7C0F80
780F80
F81F00
F81F00
FC3F00
FFFF00
FFFE00
7FDE00
1F1E00
000000
01E000
01E000
01E000
01E000
ENDCHAR
STARTCHAR Ygrave
ENCODING 7922
SWIDTH 667 0
DWIDTH 22 0
BBX 20 31 6 0
BITMAP
03C000
01E000
00E000
007000
003000
000000
FC01F0
7C03F0
7E03E0
7E07E0
3E0FC0
3E0F80
3E1F00
3F3F00
1F3E00
1F7C00
1FFC00
0FF800
0FF000
0FF000
0FE000
07C000
07C000
0FC000
0F8000
0F8000
0F8000
0F8000
1F8000
1F0000
1F0000
ENDCHAR
STARTCHAR ygrave
ENCODING 7923
SWIDTH 556 0
DWIDTH 18 0
BBX 21 31 1 -7
BITMAP
01E000
00F000
007000
003800
001800
000000
1F00F8
1F01F0
1F01E0
0F83E0
0F83C0
0F87C0
0F8780
0F8F80
0F8F00
0F9E00
079E00
07BC00
07FC00
07F800
07F800
07F000
07E000
03E000
07C000
07C000
0F8000
7F8000
7F0000
FE0000
F80000
ENDCHAR
STARTCHAR uni1EF4
ENCODING 7924
SWIDTH 667 0
DWIDTH 22 0
BBX 20 30 6 -5
BITMAP
FC01F0
7C03F0
7E03E0
7E07E0
3E0FC0
3E0F80
3E1F00
3F3F00
1F3E00
1F7C00
1FFC00
0FF800
0FF000
0FF000
0FE000
07C000
07C000
0FC000
0F8000
0F8000
0F8000
0F8000
1F8000
1F0000
1F0000
000000
078000
078000
078000
078000
ENDCHAR
STARTCHAR uni1EF5
ENCODING 7925
SWIDTH 556 0
DWIDTH 18 0
BBX 21 30 1 -12
BITMAP
1F00F8
1F01F0
1F01E0
0F83E0
0F83C0
0F87C0
0F8780
0F8F80
0F8F00
0F9E00
079E00
07BC00
07FC00
07F800
07F800
07F000
07E000
03E000
07C000
07C000
0F8000
7F8000
7F0000
FE0000
F80000
000000
078000
078000
078000
078000
ENDCHAR
STARTCHAR uni1EF8
ENCODING 7928
SWIDTH 667 0
DWIDTH 22 0
BBX 20 31 6 0
BITMAP
01C100
03E300
07FE00
0C7C00
083800
000000
FC01F0
7C03F0
7E03E0
7E07E0
3E0FC0
3E0F80
3E1F00
3F3F00
1F3E00
1F7C00
1FFC00
0FF800
0FF000
0FF000
0FE000
07C000
07C000
0FC000
0F8000
0F8000
0F8000
0F8000
1F8000
1F0000
1F0000
ENDCHAR
STARTCHAR uni1EF9
ENCODING 7929
SWIDTH 556 0
DWIDTH 18 0
BBX 21 31 1 -7
BITMAP
00E080
01F180
03FF00
063E00
041C00
000000
1F00F8
1F01F0
1F01E0
0F83E0
0F83C0
0F87C0
0F8780
0F8F80
0F8F00
0F9E00
079E00
07BC00
07FC00
07F800
07F800
07F000
07E000
03E000
07C000
07C000
0F8000
7F8000
7F0000
FE0000
F80000
ENDCHAR
STARTCHAR uni2000
ENCODING 8192
SWIDTH 500 0
DWIDTH 17 0
BBX 1 1 0 0
BITMAP
00
ENDCHAR
STARTCHAR uni2001
ENCODING 8193
SWIDTH 1000 0
DWIDTH 33 0
BBX 1 1 0 0
BITMAP
00
ENDCHAR
STARTCHAR uni2002
ENCODING 8194
SWIDTH 500 0
DWIDTH 17 0
BBX 1 1 0 0
BITMAP
00
ENDCHAR
STARTCHAR uni2003
ENCODING 8195
SWIDTH 1000 0
DWIDTH 33 0
BBX 1 1 0 0
BITMAP
00
ENDCHAR
STARTCHAR uni2004
ENCODING 8196
SWIDTH 333 0
DWIDTH 11 0
BBX 1 1 0 0
BITMAP
00
ENDCHAR
STARTCHAR uni2005
ENCODING 8197
SWIDTH 250 0
DWIDTH 8 0
BBX 1 1 0 0
BITMAP
00
ENDCHAR
STARTCHAR uni2006
ENCODING 8198
SWIDTH 167 0
DWIDTH 6 0
BBX 1 1 0 0
BITMAP
00
ENDCHAR
STARTCHAR uni2007
ENCODING 8199
SWIDTH 556 0
DWIDTH 18 0
BBX 1 1 0 0
BITMAP
00
ENDCHAR
STARTCHAR uni2008
ENCODING 8200
SWIDTH 278 0
DWIDTH 9 0
BBX 1 1 0 0
BITMAP
00
ENDCHAR
STARTCHAR uni2009
ENCODING 8201
SWIDTH 200 0
DWIDTH 7 0
BBX 1 1 0 0
BITMAP
00
ENDCHAR
STARTCHAR uni200A
ENCODING 8202
SWIDTH 100 0
DWIDTH 3 0
BBX 1 1 0 0
BITMAP
00
ENDCHAR
STARTCHAR uni200B
ENCODING 8203
SWIDTH 0 0
DWIDTH 0 0
BBX 1 1 0 0
BITMAP
00
ENDCHAR
STARTCHAR uni2010
ENCODING 8208
SWIDTH 333 0
DWIDTH 11 0
BBX 9 5 3 7
BITMAP
FF80
FF80
FF80
FF80
FF80
ENDCHAR
STARTCHAR uni2011
ENCODING 8209
SWIDTH 333 0
DWIDTH 11 0
BBX 9 5 3 7
BITMAP
FF80
FF80
FF80
FF80
FF80
ENDCHAR
STARTCHAR figuredash
ENCODING 8210
SWIDTH 556 0
DWIDTH 18 0
BBX 18 3 0 7
BITMAP
7FFFC0
FFFFC0
FFFF80
ENDCHAR
STARTCHAR endash
ENCODING 8211
SWIDTH 556 0
DWIDTH 18 0
BBX 18 3 0 7
BITMAP
7FFFC0
FFFFC0
FFFF80
ENDCHAR
STARTCHAR emdash
ENCODING 8212
SWIDTH 1000 0
DWIDTH 32 0
BBX 32 3 0 7
BITMAP
FFFFFFFF
FFFFFFFF
FFFFFFFF
ENDCHAR
STARTCHAR afii00208
ENCODING 8213
SWIDTH 1000 0
DWIDTH 32 0
BBX 32 3 0 7
BITMAP
FFFFFFFF
FFFFFFFF
FFFFFFFF
ENDCHAR
STARTCHAR quoteleft
ENCODING 8216
SWIDTH 278 0
DWIDTH 9 0
BBX 6 8 5 17
BITMAP
1C
38
70
E0
F8
F8
F8
F8
ENDCHAR
STARTCHAR quoteright
ENCODING 8217
SWIDTH 278 0
DWIDTH 9 0
BBX 6 8 6 17
BITMAP
7C
7C
7C
7C
1C
38
70
E0
ENDCHAR
STARTCHAR quotesinglbase
ENCODING 8218
SWIDTH 278 0
DWIDTH 9 0
BBX 6 8 1 -4
BITMAP
7C
7C
7C
78
18
18
70
E0
ENDCHAR
STARTCHAR quotereversed
ENCODING 8219
SWIDTH 278 0
DWIDTH 9 0
BBX 6 8 6 17
BITMAP
F8
F8
F8
F8
E0
70
38
1C
ENDCHAR
STARTCHAR quotedblleft
ENCODING 8220
SWIDTH 500 0
DWIDTH 16 0
BBX 13 8 6 16
BITMAP
1C38
3060
60C0
60C0
F9F0
F9F0
F9F0
F9F0
ENDCHAR
STARTCHAR quotedblright
ENCODING 8221
SWIDTH 500 0
DWIDTH 16 0
BBX 14 8 6 17
BITMAP
3C7C
3C7C
7C78
7C78
0C18
1830
3870
E0E0
ENDCHAR
STARTCHAR quotedblbase
ENCODING 8222
SWIDTH 500 0
DWIDTH 16 0
BBX 13 10 2 -5
BITMAP
3C78
7C78
7CF8
78F8
78F0
1830
1830
3060
70E0
C180
ENDCHAR
STARTCHAR uni201F
ENCODING 8223
SWIDTH 500 0
DWIDTH 16 0
BBX 14 8 6 17
BITMAP
F8F0
F8F0
78F8
78F8
60C0
3060
3870
1C1C
ENDCHAR
STARTCHAR dagger
ENCODING 8224
SWIDTH 556 0
DWIDTH 18 0
BBX 17 30 4 -7
BITMAP
00F800
00F000
00F000
01F000
01F000
01F000
01E000
FFFF80
FFFF80
FFFF80
FFFF00
03C000
07C000
07C000
078000
078000
078000
0F8000
0F8000
0F0000
0F0000
1F0000
1F0000
1F0000
1E0000
1E0000
3E0000
3E0000
3C0000
3C0000
ENDCHAR
STARTCHAR daggerdbl
ENCODING 8225
SWIDTH 556 0
DWIDTH 18 0
BBX 19 30 2 -7
BITMAP
003E00
003C00
003C00
007C00
007C00
007C00
007800
3FFFE0
3FFFE0
3FFFE0
3FFFC0
00F000
01F000
01F000
01F000
01E000
01E000
03E000
FFFF80
FFFF00
FFFF00
FFFF00
07C000
07C000
07C000
078000
0F8000
0F8000
0F8000
0F0000
ENDCHAR
STARTCHAR bullet
ENCODING 8226
SWIDTH 350 0
DWIDTH 12 0
BBX 8 8 4 6
BITMAP
1E
7F
FF
FF
FF
FF
FE
7C
ENDCHAR
STARTCHAR ellipsis
ENCODING 8230
SWIDTH 1000 0
DWIDTH 33 0
BBX 28 5 3 0
BITMAP
7C0F81F0
7C0F81F0
FC1F83F0
F81F03E0
F81F03E0
ENDCHAR
STARTCHAR perthousand
ENCODING 8240
SWIDTH 1000 0
DWIDTH 32 0
BBX 31 25 2 0
BITMAP
07C01800
0FE03000
1FF07000
3870E000
3870C000
70718000
78F30000
3FE70000
3FCE0000
1F0C0000
00180000
00300000
00700000
00E00000
00C00000
01800000
03878078
071FC1FC
0E3FE3FE
0C78E78E
1870E70E
3871C71C
707FC7FC
E03F83F8
C01E01E0
ENDCHAR
STARTCHAR guilsinglleft
ENCODING 8249
SWIDTH 333 0
DWIDTH 11 0
BBX 8 12 5 3
BITMAP
03
07
0E
1E
3C
78
F0
78
3C
1E
0E
04
ENDCHAR
STARTCHAR guilsinglright
ENCODING 8250
SWIDTH 333 0
DWIDTH 11 0
BBX 8 12 2 3
BITMAP
20
70
78
3C
1E
0F
1E
3C
78
70
E0
C0
ENDCHAR
STARTCHAR fraction
ENCODING 8260
SWIDTH 167 0
DWIDTH 6 0
BBX 20 24 -5 0
BITMAP
000030
000070
0000E0
0001C0
0003C0
000380
000700
000E00
001C00
003C00
003800
007000
00E000
01C000
03C000
038000
070000
0E0000
1C0000
1C0000
380000
700000
E00000
C00000
ENDCHAR
STARTCHAR oneinferior
ENCODING 8321
SWIDTH 333 0
DWIDTH 11 0
BBX 8 15 5 -7
BITMAP
07
1F
FE
FE
0E
0E
1E
1C
1C
1C
1C
3C
38
38
38
ENDCHAR
STARTCHAR twoinferior
ENCODING 8322
SWIDTH 333 0
DWIDTH 11 0
BBX 13 16 2 -7
BITMAP
01C0
07F0
0FF8
1E78
1C38
3838
0078
0070
01E0
07C0
0F00
3E00
7800
7FE0
FFE0
FFE0
ENDCHAR
STARTCHAR threeinferior
ENCODING 8323
SWIDTH 333 0
DWIDTH 11 0
BBX 11 15 3 -7
BITMAP
0FC0
1FE0
3DE0
78E0
70E0
01E0
07C0
07C0
01E0
00E0
E0E0
E1E0
F3C0
FF80
7F00
ENDCHAR
STARTCHAR uni20A5
ENCODING 8357
SWIDTH 889 0
DWIDTH 29 0
BBX 28 24 2 -3
BITMAP
00001800
00003000
00003000
0F1F6FC0
0F7FFFE0
1FFFFFE0
1FFFFFF0
1F8FE3F0
1F07C1F0
1E0781E0
3E0F83E0
3E0F83E0
3E0F83E0
3C0F03E0
7C0F03C0
7C1F07C0
7C1F07C0
7C3F07C0
783E0780
F87E0F80
F87E0F80
00C00000
00C00000
01800000
ENDCHAR
STARTCHAR uni20A6
ENCODING 8358
SWIDTH 722 0
DWIDTH 24 0
BBX 25 25 2 0
BITMAP
07E00F80
07E00F80
07E00F80
0FF01F80
0FF01F00
0FF01F00
0FFFFF00
0FFFFF00
1FFFFF00
1FFFFE00
1F3C3E00
1F3E3E00
1F3E3E00
3F1E7E00
3FFFFC00
3FFFFC00
3FFFFC00
3FFFFC00
7E07F800
7C07F800
7C07F800
7C03F800
FC03F800
F803F000
F801F000
ENDCHAR
STARTCHAR uni20A9
ENCODING 8361
SWIDTH 944 0
DWIDTH 31 0
BBX 30 25 6 0
BITMAP
F80FC07C
F80FC0FC
F81FC0F8
F81FC0F8
F83FC1F0
F83FC1F0
F87FFFE0
F87FFFE0
F8FFFFC0
F8FFFFC0
F8F3C780
F8F3CF80
F9E3CF00
F9E39F00
7BFFFE00
7BFFFE00
7BFFFE00
7FFFFC00
7F83FC00
7F03F800
7F03F800
7E03F000
7E03F000
7C03E000
7C03E000
ENDCHAR
STARTCHAR Euro
ENCODING 8364
SWIDTH 722 0
DWIDTH 24 0
BBX 27 25 -1 0
BITMAP
0003FE00
000FFF80
001FFFC0
007FFFC0
00FF0FE0
00FC03E0
1FFFE3E0
1FFFE3E0
3FFFC3E0
3FFFC000
07C00000
07C00000
0F800000
0F800000
7FFF8000
7FFF8000
FFFF07C0
FFFF0FC0
07C00F80
07E03F00
07F0FF00
03FFFE00
03FFFC00
01FFF000
007F8000
ENDCHAR
STARTCHAR uni20AD
ENCODING 8365
SWIDTH 722 0
DWIDTH 24 0
BBX 25 25 2 0
BITMAP
07C01F80
07C03F00
07C07E00
0FC0FC00
0F81F800
0F83F000
0F87E000
0F8FC000
1FBF8000
1F7E0000
1FFC0000
FFFFFF80
FFFFFF80
3FFE0000
3FBE0000
3E3F0000
3E1F0000
3E1F8000
7C0F8000
7C0FC000
7C07E000
7C07E000
FC03F000
F803F000
F801F800
ENDCHAR
STARTCHAR uni2103
ENCODING 8451
SWIDTH 1102 0
DWIDTH 36 0
BBX 32 25 6 0
BITMAP
00001FF0
0F007FFC
3F80FFFE
71C3FFFE
60C7F87F
C0C7E01F
C0CFC01F
C1DF801F
E39F001F
7F3F0000
3C3E0000
003E0000
007C0000
007C0000
007C0000
007C0000
007C003E
007E007E
003E007C
003F01F8
003F87F8
001FFFF0
001FFFE0
000FFF80
0003FC00
ENDCHAR
STARTCHAR uni2109
ENCODING 8457
SWIDTH 991 0
DWIDTH 32 0
BBX 30 25 6 0
BITMAP
0007FFFC
0F07FFFC
3F87FFF8
71CFFFF8
60CF8000
C0CF8000
C0CF8000
C1CF8000
E39F0000
7F1F0000
3C1FFFE0
001FFFE0
001FFFC0
003FFFC0
003E0000
003E0000
003E0000
003E0000
007C0000
007C0000
007C0000
007C0000
00FC0000
00F80000
00F80000
ENDCHAR
STARTCHAR trademark
ENCODING 8482
SWIDTH 1000 0
DWIDTH 32 0
BBX 28 14 7 11
BITMAP
FFEF81F0
FFEF81F0
FFEFC3F0
1E0FC7F0
1C1DC7E0
1C1DCEE0
3C1DDEE0
3C1DFCE0
381CF9E0
3838F9C0
7838F1C0
7838F1C0
7038E1C0
7038E1C0
ENDCHAR
STARTCHAR uni212A
ENCODING 8490
SWIDTH 722 0
DWIDTH 24 0
BBX 25 25 2 0
BITMAP
07C01F80
07C03F00
07C07E00
0FC0FC00
0F81F800
0F83F000
0F87E000
0F8FC000
1FBF8000
1F7E0000
1FFC0000
1FF80000
1FFC0000
3FFE0000
3FBE0000
3E3F0000
3E1F0000
3E1F8000
7C0F8000
7C0FC000
7C07E000
7C07E000
FC03F000
F803F000
F801F800
ENDCHAR
STARTCHAR uni212B
ENCODING 8491
SWIDTH 722 0
DWIDTH 24 0
BBX 22 31 1 0
BITMAP
0001E0
000370
000630
000630
000760
0003C0
000000
0007E0
000FE0
000FE0
001FF0
003FF0
003FF0
007DF0
007DF0
00F9F0
00F9F0
01F0F8
03F0F8
03E0F8
07E0F8
07C0F8
0FFFF8
0FFFF8
1FFFF8
1FFFFC
3E00FC
3E007C
7C007C
FC007C
F8007C
ENDCHAR
STARTCHAR uni2132
ENCODING 8498
SWIDTH 611 0
DWIDTH 20 0
BBX 22 25 2 0
BITMAP
00007C
00007C
0000FC
0000F8
0000F8
0000F8
0000F8
0001F0
0001F0
0001F0
0001F0
0FFFF0
0FFFE0
1FFFE0
1FFFE0
0003E0
0003E0
0007C0
0007C0
0007C0
0007C0
7FFFC0
7FFF80
FFFF80
FFFF80
ENDCHAR
STARTCHAR minus
ENCODING 8722
SWIDTH 584 0
DWIDTH 19 0
BBX 17 4 3 6
BITMAP
7FFF80
7FFF80
FFFF00
FFFF00
ENDCHAR
STARTCHAR fraction
ENCODING 8725
SWIDTH 167 0
DWIDTH 6 0
BBX 20 24 -5 0
BITMAP
000030
000070
0000E0
0001C0
0003C0
000380
000700
000E00
001C00
003C00
003800
007000
00E000
01C000
03C000
038000
070000
0E0000
1C0000
1C0000
380000
700000
E00000
C00000
ENDCHAR
STARTCHAR periodcentered
ENCODING 8729
SWIDTH 278 0
DWIDTH 9 0
BBX 4 4 5 11
BITMAP
70
F0
F0
E0
ENDCHAR
STARTCHAR uni2236
ENCODING 8758
SWIDTH 333 0
DWIDTH 11 0
BBX 8 17 4 0
BITMAP
1F
1F
3F
3E
3E
00
00
00
00
00
00
00
7C
7C
FC
F8
F8
ENDCHAR
STARTCHAR uni2259
ENCODING 8793
SWIDTH 584 0
DWIDTH 19 0
BBX 19 18 2 2
BITMAP
00F000
01F800
03B800
071C00
060C00
000000
1FFFE0
1FFFE0
3FFFC0
3FFFC0
000000
000000
000000
000000
7FFF80
7FFF80
FFFF00
FFFF00
ENDCHAR
STARTCHAR uni225A
ENCODING 8794
SWIDTH 584 0
DWIDTH 19 0
BBX 19 18 2 2
BITMAP
070E00
039C00
03B800
01F000
01F000
000000
1FFFE0
1FFFE0
3FFFC0
3FFFC0
000000
000000
000000
000000
7FFF80
7FFF80
FFFF00
FFFF00
ENDCHAR
STARTCHAR notequal
ENCODING 8800
SWIDTH 584 0
DWIDTH 19 0
BBX 19 24 2 -4
BITMAP
000180
000300
000300
000600
000600
000C00
1FFFE0
1FFFE0
3FFFC0
3FFFC0
003000
006000
006000
00C000
7FFF80
7FFF80
FFFF00
FFFF00
030000
060000
060000
0C0000
0C0000
180000
ENDCHAR
STARTCHAR equivalence
ENCODING 8801
SWIDTH 584 0
DWIDTH 19 0
BBX 19 8 0 4
BITMAP
FFFFE0
FFFFE0
000000
FFFFE0
FFFFE0
000000
FFFFE0
FFFFE0
ENDCHAR
STARTCHAR uni2262
ENCODING 8802
SWIDTH 584 0
DWIDTH 19 0
BBX 19 24 0 -4
BITMAP
000180
000300
000300
000600
000600
000C00
000C00
001800
FFFFE0
FFFFE0
003000
FFFFE0
FFFFE0
00C000
FFFFE0
FFFFE0
018000
030000
030000
060000
060000
0C0000
0C0000
180000
ENDCHAR
STARTCHAR lessequal
ENCODING 8804
SWIDTH 584 0
DWIDTH 19 0
BBX 18 19 2 -3
BITMAP
000040
0003C0
001FC0
00FF80
07FF80
1FFC00
7FE000
7F0000
FF0000
FFE000
3FF800
0FFF00
03FF00
007F00
001E00
000600
000000
FFFFC0
FFFFC0
ENDCHAR
STARTCHAR greaterequal
ENCODING 8805
SWIDTH 584 0
DWIDTH 19 0
BBX 18 19 2 -3
BITMAP
180000
1E0000
3FC000
3FF000
3FFE00
07FF00
00FFC0
003FC0
003FC0
01FF00
0FFE00
7FF800
7FC000
FE0000
F00000
C00000
000000
FFFFC0
FFFFC0
ENDCHAR
STARTCHAR uni226E
ENCODING 8814
SWIDTH 584 0
DWIDTH 19 0
BBX 18 24 2 -4
BITMAP
000300
000600
000600
000C00
000C40
001BC0
001FC0
00FF80
07FF80
1FFC00
7FE000
7FC000
FFC000
FFE000
3FF800
0FFF00
03FF00
067F00
061E00
0C0600
0C0000
180000
180000
300000
ENDCHAR
STARTCHAR uni226F
ENCODING 8815
SWIDTH 584 0
DWIDTH 19 0
BBX 18 24 2 -4
BITMAP
000300
000600
000600
000C00
180C00
1E1800
3FD800
3FF000
3FFE00
07FF00
00FFC0
00FFC0
00FFC0
01FF00
0FFE00
7FF800
7FC000
FE0000
F60000
CC0000
0C0000
180000
180000
300000
ENDCHAR
STARTCHAR uni2270
ENCODING 8816
SWIDTH 584 0
DWIDTH 19 0
BBX 18 24 2 -5
BITMAP
000300
000600
000600
000C40
000FC0
001FC0
00FF80
07FF80
1FFC00
7FE000
7F6000
FFC000
FFE000
3FF800
0FFF00
03FF00
037F00
061E00
060600
0C0000
FFFFC0
FFFFC0
180000
300000
ENDCHAR
STARTCHAR uni2271
ENCODING 8817
SWIDTH 584 0
DWIDTH 19 0
BBX 18 24 2 -5
BITMAP
000300
000600
000600
180C00
1E0C00
3FD800
3FF800
3FFE00
07FF00
00FFC0
007FC0
00FFC0
01FF00
0FFE00
7FF800
7FC000
FF0000
F60000
C60000
0C0000
FFFFC0
FFFFC0
180000
300000
ENDCHAR
STARTCHAR fi
ENCODING -1
SWIDTH 611 0
DWIDTH 20 0
BBX 20 25 3 0
BITMAP
01F1F0
03F1F0
07F1F0
07C1E0
0F8000
0F8000
0F83E0
7FE3E0
7FE3C0
7FE3C0
1F07C0
1F07C0
1E07C0
1E0780
3E0F80
3E0F80
3E0F80
3C0F80
7C0F00
7C1F00
7C1F00
781F00
781E00
F81E00
F83E00
ENDCHAR
STARTCHAR fl
ENCODING -1
SWIDTH 611 0
DWIDTH 20 0
BBX 20 25 3 0
BITMAP
01F1F0
03F1F0
07F1F0
07C1E0
0F81E0
0F83E0
0F83E0
7FE3E0
7FE3C0
7FE3C0
1F07C0
1F07C0
1E07C0
1E0780
3E0F80
3E0F80
3E0F80
3C0F80
7C0F00
7C1F00
7C1F00
7C1F00
781E00
F81E00
F83E00
ENDCHAR
ENDFONT
